<?xml version="1.0" encoding="UTF-8"?>
<svg xmlns="http://www.w3.org/2000/svg" version="1.1" viewBox="0 0 3865.67 1176.26">
  <defs>
    <style>
      .cls-1 {
        fill: #c4c7d0;
      }
    </style>
  </defs>
  <!-- Generator: Adobe Illustrator 28.7.1, SVG Export Plug-In . SVG Version: 1.2.0 Build 142)  -->
  <g>
    <g id="Warstwa_1">
      <path class="cls-1" d="M3405.09,175.25c-10.14-9.01-20.2-18.1-30.23-27.23-1.31-1.13-2.6-2.29-3.9-3.42-15.56-12.77-30.99-25.71-46.23-38.87-25.62-20.69-50.61-42.16-74.6-64.7l-.8.42c17.62,45.96,35.6,91.78,51.71,138.28,59.27,119.52,112.93,244.34,156.75,384.18H24.41v149.14h3442.31c-71.61,164.56-136.88,314.56-201.57,463.22,6.37-5.5,12.94-10.78,19.53-15.99,45.36-35.84,91.24-70.99,136.43-107.04,2.13-2.04,4.25-4.09,6.35-6.16,35.28-34.8,71.86-68.24,108.8-101.27,23.05-20.61,46.27-41.04,69.44-61.54,77.87-82.19,156.26-164.92,235.54-248.61-147.69-155.9-292.29-308.55-436.16-460.41Z"/>
    </g>
  </g>
</svg>