<?xml version="1.0" encoding="UTF-8"?>
<svg xmlns="http://www.w3.org/2000/svg" version="1.1" viewBox="0 0 800 800">
  <defs>
    <style>
      .cls-1 {
        fill: #333134;
      }

      .cls-2 {
        fill: #826749;
      }

      .cls-3 {
        fill: #cac1b4;
      }

      .cls-4 {
        fill: #b4a896;
      }

      .cls-5 {
        fill: #695136;
      }

      .cls-6 {
        fill: #674e33;
      }

      .cls-7 {
        fill: #7d6549;
      }

      .cls-8 {
        fill: #604931;
      }

      .cls-9 {
        fill: #c5ada5;
      }

      .cls-10 {
        fill: #d1c9bb;
      }

      .cls-11 {
        fill: #585974;
      }

      .cls-12 {
        fill: #b7b6b6;
      }

      .cls-13 {
        fill: #59432c;
      }

      .cls-14 {
        fill: #dfdfdf;
      }

      .cls-15 {
        fill: #816749;
      }

      .cls-16 {
        fill: #684e33;
      }

      .cls-17 {
        fill: #050506;
      }

      .cls-18 {
        fill: #67523a;
      }

      .cls-19 {
        fill: #57495d;
      }

      .cls-20 {
        fill: #bfa995;
      }

      .cls-21 {
        fill: #d9d0c3;
      }

      .cls-22 {
        fill: #bfa996;
      }

      .cls-23 {
        fill: #a0a09f;
      }

      .cls-24 {
        fill: #6b5338;
      }

      .cls-25 {
        fill: #c1ad9d;
      }

      .cls-26 {
        fill: #474348;
      }

      .cls-27 {
        fill: #6d4b55;
      }

      .cls-28 {
        fill: #6b4852;
      }

      .cls-29 {
        fill: #7c654b;
      }

      .cls-30 {
        fill: #684f33;
      }

      .cls-31 {
        fill: #58412a;
      }

      .cls-32 {
        fill: #998d7b;
      }

      .cls-33 {
        fill: #585873;
      }

      .cls-34 {
        fill: #c1ab98;
      }

      .cls-35 {
        fill: #684f34;
      }

      .cls-36 {
        fill: #dbdae3;
      }

      .cls-37 {
        fill: #dcdbe5;
      }

      .cls-38 {
        fill: #e5e4e8;
      }

      .cls-39 {
        fill: #201f21;
      }

      .cls-40 {
        fill: #484348;
      }

      .cls-41 {
        fill: #938776;
      }

      .cls-42 {
        fill: #dad9e2;
      }

      .cls-43 {
        fill: #bab2a6;
      }

      .cls-44 {
        fill: #57412a;
      }

      .cls-45 {
        fill: #575876;
      }

      .cls-46 {
        fill: #b8b2a7;
      }

      .cls-47 {
        fill: #674e32;
      }

      .cls-48 {
        fill: #58422a;
      }

      .cls-49 {
        fill: #6b6070;
      }

      .cls-50 {
        fill: #816648;
      }

      .cls-51 {
        fill: #6e9295;
      }

      .cls-52 {
        fill: #e4e4e8;
      }

      .cls-53 {
        fill: #584a5e;
      }

      .cls-54 {
        fill: #816748;
      }
    </style>
  </defs>
  <!-- Generator: Adobe Illustrator 28.6.0, SVG Export Plug-In . SVG Version: 1.2.0 Build 709)  -->
  <g>
    <g id="Warstwa_1">
      <path class="cls-51" d="M371.89-.41c18.53,0,37.06,0,55.59,0,.65.31,1.27.82,1.94.9,11.23,1.3,22.59,1.85,33.66,3.95,17.84,3.39,35.71,7.01,53.16,11.96,27.43,7.77,53.36,19.4,78.35,33.16,30.03,16.53,57.26,36.91,82.02,60.45,11.96,11.37,23.12,23.71,33.62,36.44,15.83,19.21,29.8,39.81,41.52,61.84,14.41,27.08,26.25,55.2,34.11,84.93,5.66,21.38,10.15,42.94,11.98,65.02.38,4.54,1.21,9.03,1.84,13.55v55.59c-.3.49-.85.97-.87,1.47-.75,18.44-3.84,36.53-7.53,54.58-5.95,29.12-15.32,57.11-27.77,84.03-9.54,20.63-20.65,40.42-33.64,59.13-13.3,19.14-27.89,37.25-44.33,53.73-10.42,10.45-21.83,19.93-32.79,29.84-.33-1.04-.75-2.06-.99-3.12-6.29-28.08-13-56.08-18.6-84.3-2.09-10.51-5.62-19.74-12.61-27.69-2.89-3.29-6.02-6.36-8.96-9.6-3.25-3.58-6.41-7.25-9.6-10.88,2.48-.64,4.95-1.29,7.43-1.93,10.79.31,18.01-5.34,23.33-14.08,12.01-19.74,5.45-47.72-15.65-61.8-16.19-10.8-22.91-25.57-22.55-44.27.05-2.44,1.05-5.22,2.49-7.21,5.77-8.01,7.84-16.75,3.79-25.75-3.24-7.19-7.97-13.72-12.14-20.48-.81-1.31-2.11-2.31-3.16-3.48-11.5-12.87-13.25-26.88-5.31-42.41l4.64,1.59c4.88,4.18,10.26,7.91,14.52,12.64,7.01,7.77,11.66,16.51,4.94,27.06,4.93.81,8.61-1.38,10.74-6.36,4.04-9.46,2.57-18.77-2.53-27.08-5.48-8.92-12.01-17.21-18.35-25.57-2.38-3.14-3.3-6.32-2.62-10.07,2.8-15.59-1.67-29.42-9.94-42.47-1.21-1.92-1.63-4.96-1.15-7.22,2.22-10.49,2.4-20.72-3.66-30.01-2.86-4.39-6.63-8.23-10.23-12.1-3-3.22-6.66-6.01-6.41-10.99.34-6.64.89-13.27,1.39-20.52,2.06,1.83,3.82,3.4,5.81,5.17.43-.87.95-1.41.93-1.92-.48-12.35-5.23-22.65-15.83-29.28-10.77-6.74-20.7-14.13-27.52-25.15-5.28-8.53-10.68-17.01-16.34-25.3-6.33-9.27-13.81-17.48-23.57-23.34-22.34-13.4-46.65-18.82-72.54-17.8-8.56.34-16.92,1.22-25.72.37-22.95-2.2-44.8,3.62-65.46,13.87-18.03,8.95-29.13,24.59-39.06,41.03-8.14,13.48-16.53,26.6-30.91,33.98-8.48,4.36-13.09,11.39-17.07,19.3-2.2,4.38-2.33,9.06-1.84,14.63,2.62-2.18,4.47-3.73,6.4-5.33.37,5.37.27,10.11,1.11,14.69,1.36,7.4-1.37,12.63-6.93,17.24-13.21,10.95-17.08,25.05-12.9,41.45.73,2.85.44,4.91-1.22,7.38-8.61,12.83-12.73,26.75-10.23,42.39.45,2.79-.34,6.39-1.88,8.76-3.84,5.9-8.74,11.1-12.67,16.95-3.47,5.17-6.76,10.61-9.09,16.35-2.79,6.86-2.82,14.12.45,21.07,2.24,4.77,6.74,7.09,10.5,5.44-4.6-6.41-3.77-12.9-.24-19.41,4.64-8.56,12.15-14.25,19.76-19.85,1.55-.54,3.1-1.07,4.65-1.61,7.98,15.82,6.3,29.75-5.69,42.72-6.04,6.54-11.13,13.53-14.46,21.82-4.04,10.04-2.92,19.26,3.63,27.96,1.3,1.72,2.16,4.21,2.21,6.37.39,18.85-6.13,33.91-22.58,44.74-18.06,11.89-24.98,32.16-19.61,52.8,3.62,13.93,14.11,22.8,27.29,23.09,2.4.85,4.8,1.71,7.2,2.56-4.48,4.83-8.92,9.7-13.46,14.48-8.66,9.12-14.85,19.04-17.33,32.03-5.72,29.88-12.97,59.46-19.61,89.17-8.78-7.6-18.11-14.66-26.21-22.93-11.85-12.1-23.13-24.81-34.1-37.73-15.73-18.54-28.96-38.88-40.36-60.31-16.14-30.34-29.22-61.97-36.4-95.68-3.76-17.61-6.13-35.52-9.06-53.3-.74-4.49-1.27-9.02-1.89-13.53,0-18.53,0-37.06,0-55.59.31-.65.82-1.27.9-1.94,1.3-11.23,1.85-22.59,3.95-33.66,3.39-17.84,7.04-35.7,11.95-53.17,7.71-27.45,19.43-53.35,33.17-78.35,16.51-30.04,36.9-57.26,60.44-82.02,11.37-11.96,23.71-23.12,36.44-33.62,19.21-15.83,39.81-29.79,61.84-41.52,27.08-14.42,55.22-26.2,84.93-34.11,21.37-5.69,42.94-10.16,65.02-11.99,4.54-.38,9.03-1.21,13.55-1.84Z"/>
      <path class="cls-49" d="M423.72,799.59h-51.83c-.62-.31-1.22-.82-1.87-.9-13.2-1.66-26.4-3.27-39.61-4.89-1.42-13.51-2.7-27.05-4.31-40.54-1.81-15.2-3.95-30.36-5.9-45.55-1.97-15.34-3.91-30.69-5.81-46.04-1.23-9.92-2.38-19.85-3.51-29.78-1.37-12.11-2.7-24.22-4.02-36.33-1.21-11.18-2.43-22.36-3.53-33.55-.14-1.46.38-2.99.6-4.49,2.11,1.37,4.23,2.73,6.42,4.15.44-4.74.77-8.33,1.11-11.92,6.31,6.48,12.32,13.29,19.02,19.33,6.36,5.73,13,11.39,20.32,15.71,7.6,4.49,15.95,8.02,24.37,10.72,8.41,2.69,17.38,5.58,26,5.31,19-.6,35.84-9.36,52.19-18.23,6.33-3.43,11.62-8.95,16.96-13.97,6.37-5.99,12.27-12.47,18.38-18.74,0,2.03-.15,4.07.08,6.07.2,1.72.84,3.39,1.28,5.08,1.53-.64,3.1-1.21,4.58-1.95.67-.34,1.15-1.03,1.72-1.56.18,1.97.63,3.95.48,5.9-.38,4.98-1.07,9.93-1.54,14.91-.85,8.86-1.48,17.75-2.49,26.59-1.55,13.5-3.42,26.97-5.03,40.47-1.56,13.03-2.85,26.09-4.49,39.1-1.84,14.57-3.99,29.11-5.89,43.67-1.59,12.23-3.06,24.48-4.48,36.74-1.08,9.31-2.02,18.64-3.02,27.96-11.23,1.62-22.47,3.23-33.7,4.87-4.17.61-8.33,1.25-12.5,1.88Z"/>
      <path class="cls-44" d="M580.2,353.16c-7.94,15.53-6.19,29.54,5.31,42.41,1.05,1.17,2.35,2.17,3.16,3.48,4.17,6.76,8.91,13.29,12.14,20.48,4.05,9,1.98,17.73-3.79,25.75-1.43,1.99-2.44,4.77-2.49,7.21-.35,18.7,6.36,33.47,22.55,44.27,21.1,14.08,27.67,42.06,15.65,61.8-5.32,8.74-12.53,14.39-23.33,14.07-3.46-1.01-6.92-2.02-10.38-3.03.95-.35,1.9-.98,2.86-1,3.11-.07,6.23.08,9.34.15,4.44-2.45,9.88-4,13.1-7.55,6.22-6.88,9.35-15.77,9.34-25.07,0-15.71-7.29-27.89-20.07-36.82-7.69-5.37-14.42-11.55-18.46-20.23-6.69-14.37-4.79-29.3-2.88-44.23.67.7,1.72,1.31,1.94,2.13.39,1.5.29,3.13.4,4.71,4.48-8.22,4.04-16.14.43-24.33-4.59-10.41-12.74-18.06-19.57-26.74-3.2-6.58-7.23-12.91-9.4-19.82-2.94-9.36-4.86-19.1-6.44-28.81-.87-5.37-.16-11.01-.16-16.52.59-.06,1.19-.12,1.78-.18,2.81,15.5,4.27,31.33,9.83,46.22,1.19-12.32,6.95-22.79,11.74-33.68,2.73-6.19,5.15-13,5.51-19.65.86-15.83-6.07-29.01-16.24-40.84-5.58-6.49-10.41-13.63-15.58-20.48,1.22.71,2.69,1.19,3.63,2.16,5.33,5.51,10.53,11.14,16.24,17.23,2.06-9.33,3.15-18-1.45-25.76-5.26-8.88-11.53-17.17-17.37-25.71-.05-4.34.18-8.71-.23-13.01-.44-4.59-.95-9.32-2.42-13.65-2.21-6.52-8.96-8.35-14.06-11.81-3.89-2.64-7.93-5.06-11.91-7.58.25-.4.49-.79.74-1.19,11.95,3.13,22.02,9.98,32.33,17.48-3.76-9.7-6.86-13.76-13.87-17.63-11.49-6.34-21.03-15.14-27.99-26.54-4.66-7.62-9.5-15.14-14.67-22.41-6.1-8.57-12.83-16.6-21.98-22.24-14.8-9.11-31.04-14.21-48.04-16.89-10.86-1.71-21.83-2.41-32.47,1.63-6.6-.92-13.2-1.84-19.8-2.76-12.2-.57-24.08,1.54-35.7,4.92-15.61,4.54-31.03,10.14-42.07,22.71-8.03,9.13-15.44,19.03-21.67,29.46-8.7,14.55-19.86,26.04-34.74,34.05-6.06,3.26-8.08,9.33-10.89,15.94,10.6-7.82,20.62-14.59,32.87-17.02-5.85,4.53-11.95,8.58-18.28,12.25-8.37,4.85-10.24,12.4-9.8,21.26.22,4.33-.06,8.68-.11,13.01-3.28,4.46-6.71,8.83-9.81,13.41-2.87,4.24-5.78,8.52-8.01,13.1-3.82,7.88-3.04,16.1-.84,25.15,3.01-3.47,5.26-6.45,7.91-9.03,3.78-3.68,7.86-7.05,11.81-10.56-.61,1.07-1.1,2.25-1.86,3.21-6.02,7.62-12.39,14.97-18.07,22.83-11.17,15.43-16.47,32.26-8.48,50.76,5.34,12.38,12.54,24,14.13,38.01,2.39-7.75,4.19-15.46,5.69-23.24,1.46-7.59,2.6-15.23,3.88-22.85.5.06.99.13,1.49.19,0,6.03.38,12.1-.07,18.09-1.28,16.87-7.91,32.02-15.65,46.76-6.83,8.66-14.96,16.31-19.55,26.7-3.64,8.24-4.13,16.16.16,24.24.57-1.65.4-3.34.66-4.96.1-.64,1.18-1.13,1.81-1.69.27,2.94.38,5.92.85,8.83,3.67,22.58-1.45,42.35-22.89,56.17-13.12,8.46-24.66,28.88-16.77,49.1,3.75,9.6,8.71,17.79,19.94,19.74,1.74.1,3.49.17,5.23.29,2.32.16,4.64.36,6.97.54-3.46,1.01-6.92,2.03-10.38,3.04-13.18-.29-23.67-9.16-27.29-23.09-5.37-20.64,1.55-40.91,19.61-52.8,16.45-10.83,22.97-25.88,22.58-44.74-.04-2.16-.91-4.65-2.21-6.37-6.55-8.7-7.67-17.92-3.63-27.96,3.33-8.28,8.42-15.28,14.46-21.82,11.99-12.97,13.67-26.9,5.69-42.72-2.68-5.88-5.36-11.75-8.38-18.37-2.33,3.56-4.02,6.14-5.71,8.73-1.25,1.39-2.47,2.8-3.74,4.17-6.54,7.06-12.12,14.76-14.25,24.32-.82,3.7-.49,7.66-.69,11.49.51.05,1.02.1,1.53.14.01-8.31,5.09-14.18,9.58-20.33,5.47-3.93,10.94-7.86,16.41-11.79.37.4.74.8,1.11,1.2-.17.69-.35,1.37-.52,2.06-7.61,5.59-15.12,11.29-19.76,19.85-3.53,6.51-4.36,13,.24,19.41-3.76,1.65-8.26-.67-10.5-5.44-3.26-6.95-3.23-14.22-.45-21.07,2.33-5.74,5.63-11.18,9.09-16.35,3.92-5.85,8.82-11.06,12.67-16.95,1.54-2.36,2.32-5.97,1.88-8.76-2.5-15.64,1.62-29.56,10.23-42.39,1.65-2.47,1.94-4.53,1.22-7.38-4.18-16.4-.3-30.5,12.9-41.45,5.57-4.62,8.29-9.85,6.93-17.24-.84-4.57-.74-9.32-1.11-14.69-1.93,1.61-3.78,3.15-6.4,5.33-.49-5.57-.36-10.25,1.84-14.63,3.97-7.91,8.59-14.94,17.07-19.3,14.38-7.38,22.77-20.5,30.91-33.98,9.93-16.44,21.03-32.08,39.06-41.03,20.66-10.26,42.51-16.07,65.46-13.87,8.81.84,17.16-.04,25.72-.37,25.89-1.01,50.19,4.4,72.54,17.8,9.76,5.85,17.25,14.07,23.57,23.34,5.66,8.29,11.06,16.76,16.34,25.3,6.82,11.01,16.74,18.41,27.52,25.15,10.6,6.64,15.35,16.93,15.83,29.28.02.52-.49,1.05-.93,1.92-1.99-1.77-3.75-3.34-5.81-5.17-.5,7.26-1.05,13.88-1.39,20.52-.25,4.98,3.41,7.77,6.41,10.99,3.6,3.86,7.37,7.7,10.23,12.1,6.05,9.28,5.87,19.52,3.66,30.01-.48,2.26-.07,5.31,1.15,7.22,8.26,13.05,12.74,26.88,9.94,42.47-.67,3.75.24,6.93,2.62,10.07,6.34,8.36,12.88,16.65,18.35,25.57,5.1,8.31,6.57,17.62,2.53,27.08-2.13,4.99-5.81,7.18-10.74,6.36,6.72-10.55,2.07-19.29-4.94-27.06-4.26-4.73-9.64-8.46-14.52-12.64-.17-.69-.35-1.37-.52-2.06.36-.39.72-.78,1.08-1.17,5.48,3.92,10.95,7.85,16.43,11.77,4.62,6.17,9.52,12.2,10.1,20.44,2.61-7.72.56-14.94-3.35-21.28-4.14-6.71-9.48-12.67-14.3-18.96-1.75-2.62-3.5-5.24-5.8-8.69-3.05,6.76-5.66,12.56-8.28,18.36Z"/>
      <path class="cls-26" d="M151.36,713.94c-1.21-1.03-2.43-2.05-3.64-3.08,6.63-29.7,13.89-59.29,19.61-89.17,2.48-12.98,8.67-22.9,17.33-32.03,4.53-4.78,8.97-9.65,13.45-14.48,1.75-1.84,3.5-3.69,5.26-5.53,2.25-2.14,4.67-4.15,6.73-6.46,4.41-4.96,8.64-10.09,12.94-15.14.59-.35,1.18-.7,1.78-1.04.64,1.27,1.27,2.55,1.91,3.82-4.99,5.79-9.81,11.76-15.02,17.34-8.66,9.28-17.92,18.02-26.3,27.53-7.05,8-13.61,16.04-15.05,27.81-2.08,17.03-6.08,33.85-9.64,50.68-2.82,13.31-6.21,26.5-9.35,39.74Z"/>
      <path class="cls-26" d="M652.75,710.15c-1.57,1.27-3.14,2.54-4.71,3.81-.76-4.3-1.42-8.63-2.3-12.91-5.23-25.41-10.45-50.81-15.84-76.19-1.15-5.41-1.5-11.89-4.73-15.8-11.73-14.21-24.57-27.49-36.91-41.21-5-5.56-9.78-11.34-14.66-17.01.64-1.28,1.28-2.56,1.91-3.84.59.35,1.18.69,1.77,1.03,6.56,7.21,13.11,14.41,19.67,21.62,1.67,1.63,3.35,3.27,5.02,4.9,3.2,3.63,6.35,7.3,9.6,10.88,2.94,3.24,6.07,6.32,8.96,9.6,6.99,7.95,10.52,17.19,12.61,27.69,5.6,28.22,12.31,56.22,18.6,84.3.24,1.06.66,2.08.99,3.12Z"/>
      <path class="cls-30" d="M580.2,353.16c2.62-5.8,5.23-11.6,8.28-18.36,2.3,3.45,4.05,6.07,5.8,8.69.65,2.71.99,5.55,2.02,8.11,1.6,3.99,3.66,7.8,5.53,11.69-5.48-3.92-10.95-7.85-16.43-11.77-.36.39-.72.78-1.08,1.17.17.69.35,1.37.52,2.06-1.55-.53-3.09-1.06-4.64-1.59Z"/>
      <path class="cls-30" d="M206.04,343.5c1.69-2.59,3.38-5.17,5.71-8.73,3.02,6.62,5.7,12.5,8.38,18.37-1.55.54-3.1,1.07-4.65,1.61.17-.69.35-1.37.52-2.06-.37-.4-.74-.8-1.11-1.2-5.47,3.93-10.94,7.86-16.41,11.79,1.87-3.88,3.93-7.69,5.53-11.68,1.03-2.56,1.38-5.39,2.03-8.11Z"/>
      <path class="cls-29" d="M203.36,569.66c-1.75,1.85-3.51,3.69-5.26,5.53-2.4-.86-4.8-1.71-7.2-2.56,3.46-1.01,6.92-2.03,10.38-3.04.69.02,1.39.04,2.08.06Z"/>
      <path class="cls-7" d="M601.98,574.56c-1.67-1.63-3.35-3.27-5.02-4.9.69-.02,1.38-.04,2.07-.05,3.46,1.01,6.92,2.02,10.38,3.03-2.48.64-4.95,1.29-7.43,1.93Z"/>
      <path class="cls-31" d="M226.72,550.83c-.64-1.27-1.27-2.55-1.91-3.82-1.52-1.36-2.87-3.02-4.59-4.03-10.5-6.15-19.09-13.9-22.68-26.04.94-7.88,1.87-15.77,2.81-23.65,2.53-3.57,4.65-7.54,7.66-10.63,6.96-7.12,13.92-14.1,15.45-24.58.02-.17.48-.27,2.18-1.15-1,4.93-.89,9.4-2.8,12.7-3.17,5.47-7.59,10.23-11.56,15.22-18.58,23.31-10.06,45.06,16.86,57.38-.79-3.49-1.5-6.22-2-8.99-.54-3.07-1.04-6.17-1.26-9.27-.21-2.96-.19-5.97,0-8.93.2-2.9.75-5.78,1.14-8.67.57-.04,1.14-.08,1.71-.12-.78,16.88,1.05,32.67,16.91,42.61,3.76,3.49,8.32,4.26,13.22,3.86,4.12.92,8.2,2.17,12.37,2.69,9.76,1.21,15.81,8.35,14.92,18.08-.09.94-.21,1.87-.36,3.21,12.68-10.49,14.26-20.81,5.6-33.61-4.7-6.94-4.78-17.98-.03-24.94,1.15-1.69,2.77-3.06,4.17-4.58.39.18.79.37,1.18.55-3.69,7.25-5.88,14.85-2.86,22.51,2.89,7.3,7.83,13.35,14.43,18.34.47-2.87.76-5.32,1.28-7.72,2.22-10.15,4.55-20.28,6.7-30.44.24-1.12-.03-2.63-.64-3.6-2.48-3.92-4.43-8.28-9.61-9.81-1.7-.5-3.82-2.45-4.2-4.09-1.2-5.29-2.59-10.82-2.11-16.1.29-3.17,3.65-6.31,6.14-8.98,6.21-6.67,5.92-8.35-2.79-10.96-1.06-.32-3.35.39-3.64,1.16-1.24,3.29-2.39,6.75-2.73,10.22-.44,4.44-.1,8.97-.06,13.45.07,9.37-4.39,16.43-11.27,22.27-4.76,1.25-9.51,2.5-14.27,3.75-1.82-.39-3.7-.61-5.45-1.2-2.28-.77-3.53-.15-4.12,2.19-2.14,8.55-.52,21.65,9.6,26.32,2.05-.12,4.09-.29,6.14-.32,1.12-.02,2.24.22,3.36.35-4.41,5.35-8.85,6.07-14.25,2.06-9.56-7.09-11.41-18.48-8.19-29.68.76-2.65,1.42-4.45-.85-6.61-1.94-1.85-1.58-3.53,1.35-4.35,8.89-2.51,13.96-8.67,16.5-17.32,1.07-3.65.13-5.1-3.81-5.43-8.95-.75-15.11-5.49-18.19-14.03-2.99-9.15-3.04-18.12,2.33-26.44,3.36-5.21,7.24-10.08,10.89-15.1,2.6-2.33,5.21-4.65,8.45-7.55-2.57-2.26-5.04-4.42-7.5-6.58-2.27-.88-4.73-1.46-6.79-2.69-9.34-5.56-13.49-13.78-12.09-24.66l1.89-4.69c6.29-2.83,12.57-5.66,18.86-8.49,4.92-3.14,6.74-7.74,6.53-13.41-.03-.84.62-1.71.96-2.57l1.86,1.06c2.43,6.8,1.14,12.87-4.29,18.21,7.32.41,13.53-2.54,19.24-8.78.37,1.2.74,2.41,1.11,3.61-2.45,1.86-4.93,3.7-7.35,5.6-1.3,1.02-3.14,1.94-3.62,3.3-2.68,7.48,2.51,19.41,9.57,23.02,2.28-3.27,4.55-6.51,6.91-9.89,1.25,2.75,2.05,4.51,2.85,6.27.12.27.19.55.23.84-1.53-.17-3.06-.34-4.73-.52-4.82,8.09-4.34,10.29,3.94,15.46,5.08,3.18,8.87,7.23,9.76,14.61.77-1.79,1.05-2.44,1.33-3.1.51-2.16,1.01-4.32,1.78-7.62.53,1.99,1.21,3.07.96,3.86-1.3,4.24-2.31,8.69-4.38,12.55-4.07,7.59-1.69,14.65,5.35,17.29,2.14-4.11,3.97-8.24,6.36-12,1.56-2.46,3.93-4.39,5.94-6.56.33,1.22,1.3,2.73.89,3.62-3.23,7.1-.74,13.05,3.21,18.89,3.07,4.53,6.13,9.09,8.83,13.84,3.93,6.92,3.49,14.24-2.13,19.49-4.34,4.05-4.29,8.22-4.18,13.02-.93.62-1.87,1.24-2.8,1.86-.56-2.32-1.12-4.64-1.79-7.37-5.07,3.7-3.37,9.33-4.92,13.78-.94,1.3-1.87,2.61-2.81,3.91-2.19-10.9-10.31-15.41-20.04-18.93-1.5,4.43.15,6.63,3.53,8.71,3.07,1.88,5.88,4.4,8.26,7.12,2.01,2.31,3.23,5.3,4.8,7.99-4.94,6.05-3.95,13.5-4.85,20.5-2.75,3.62-4.4,7.51-3.08,12.16-.33,3.59-.67,7.18-1.11,11.92-2.19-1.42-4.31-2.78-6.42-4.15-.91-.98-1.82-1.96-2.73-2.94-.61.12-1.75.19-1.77.38-.46,3.94-.79,7.9-1.15,11.86-5.3,7.59-11.21,14.4-21.24,16.27.26-1.87.92-3.44,1.84-4.83,3.97-5.97,3.7-10.89-1.98-15.21-2.67-2.04-6.43-2.95-9.85-3.64-6.94-1.4-13.99-2.3-20.99-3.39-.26-.04-.56.2-.85.31-3.06,7.2-1.74,10.61,6.3,15.98-2.38,3.23-5.63,2.29-8.53,1.59-9.73-2.34-16.09-11.5-16.28-23.07ZM282.41,473.55c3.08,1.87,6.15,3.74,8.3,5.04,1.84-5.92,3.6-11.44,5.25-16.99.32-1.09.62-2.42.28-3.42-3.09-9.19-1.17-14.84,6.88-20.01,1.01-.65,2.11-1.48,2.65-2.49,5.37-10.14.73-19.76-10.71-22.41-1.4,3.14-2.8,6.28-4.2,9.41-.94,1.66-2.14,3.23-2.76,5.01-.87,2.47-1.08,5.18-1.98,7.64-2.72,7.47-5.84,14.79-8.41,22.31-2.12,6.22-.29,11.62,4.69,15.92ZM280.13,424.04c5.8-1.55,9.99-6.72,10.62-12.93.68-6.63-.42-8.85-7.32-11.89-10.32-4.54-19.27-10.41-23.3-21.44-7.46.89-8.8,2.36-8.91,9.08-.14,8.32,4.15,14.12,11.08,17.7,8.47,4.37,15.71,9.53,17.83,19.49ZM263.02,436.77c-10.42,4.92-13.58,16.35-8.19,29.07,3.28,7.74,14.5,12.52,22.42,9.44-8.71-11.36-18.91-22.17-14.22-38.51ZM325.63,438.52c-3.36,4.04-5.56,6.93-4.15,11.19.99,3,2.3,6.15,2.2,9.18-.19,5.95-.28,11.04,5.09,15.61,3.15,2.68,4.05,7.99,6.12,12.44,3.54-2.13,6.48-5.66,5.68-9.92-1.01-5.33-2.92-10.84-5.86-15.36-4.45-6.85-9.48-13.18-9.07-23.15ZM316.9,473.9l1.76-.08c.77-4.68,1.85-9.34,2.14-14.05.1-1.63-1.51-3.61-2.77-5.04-3.65-4.16-7.45-8.21-11.37-12.12-.82-.82-2.89-1.59-3.57-1.15-3.97,2.6-5.59,6.6-5.6,11.28-.01,3.95,2.18,6.75,5.59,7.97,6.6,2.36,11.36,6.44,13.82,13.19ZM321.95,500.83c2.74-3.57,5.3-6.77,7.69-10.09.76-1.06,1.68-2.59,1.46-3.69-1.14-5.8-3.47-10.96-8.5-13.75-4.76,6.25-9.36,12.3-13.94,18.31,4.04,2.8,8.97,6.23,13.29,9.23ZM283.57,428.89c-3.72,1.4-7.26,2.59-10.66,4.09-1.5.66-3.13,1.69-4,3.01-4.4,6.69-1.73,20.14,4.31,25,3.38-10.5,6.84-21.22,10.35-32.1ZM286.77,482.65c-1.07,13.67-9.89,20.59-20.36,26.25,8.66,2.81,16.56-.43,21.42-8.67,3.99-6.76,3.86-13.28-1.06-17.58ZM239.12,567.6c1.05-4.62,2.05-9.02,3.22-14.15-1.02-.79-3.04-2.24-4.93-3.85-1.94-1.65-3.76-3.44-5.86-5.38-2.75,9.48.42,18.56,7.57,23.37ZM280.5,393.26c-.36-5.01-.54-9.46-1.09-13.86-.13-1.02-1.44-2.64-2.31-2.71-3.95-.29-7.94-.13-12.75-.13,3.42,8.31,9.16,12.85,16.15,16.7ZM312.08,470.38c-2.68,2.8-5.51,5.45-7.95,8.42-1.32,1.61-2.45,3.68-2.81,5.7-.56,3.2,1.24,4.66,4.5,3.95,8.19-1.81,11.52-11.15,6.26-18.06ZM277.74,481.45c.52,8.59-4.05,14.65-8.32,21.07,4.6-3.38,8.81-7.04,12.33-11.26,3.31-3.96,1.75-7.89-4.01-9.8Z"/>
      <path class="cls-44" d="M575.51,547.01c-.64,1.28-1.28,2.56-1.92,3.84-.19,11.57-6.59,20.78-16.32,23.07-2.88.68-6.15,1.65-8.48-1.66,8.23-5.26,9.58-9.15,6.04-15.62-8.8,1.19-17.45,1.93-25.92,3.61-9.84,1.96-12.72,10.26-7.05,18.57.83,1.22,1.18,2.76,2.17,5.18-11.1-2.98-17.12-9.86-22.03-18.08-.35-3.66-.67-7.31-1.12-10.96-.02-.2-1.15-.26-1.77-.39-.91.98-1.82,1.96-2.73,2.94-.57.53-1.06,1.22-1.72,1.56-1.48.75-3.05,1.31-4.58,1.95-.44-1.69-1.08-3.36-1.28-5.08-.23-2-.07-4.05-.08-6.07,1.52-4.75-.02-8.75-3.04-12.38.03-.46.06-.93.1-1.39.65-2.31,1.3-4.61,1.95-6.92,1.78,8.49,3.56,16.98,5.43,25.94,12.91-11.45,21.07-23.76,11.01-41.79,9.79,4.69,11.88,21.93,5.28,30.51-8.6,11.17-5.88,24.65,5.99,32.41-1.46-12.78,2.99-18.59,16.01-21.04,3.69-.69,7.33-1.66,10.99-2.5,4.9.41,9.46-.36,13.23-3.85,16.04-9.88,17.43-26,17.8-42.66,3.93,12.04,1.34,23.84-.23,35.9,4.8-2.47,9.03-4.89,12.58-8.08,12.79-11.45,16.84-20.96,10.36-36.58-2.55-6.16-7.21-11.57-11.49-16.85-5.48-6.77-10.6-13.43-8.56-22.92.74.93.97,2.09,1.49,3.09,2.67,5.06,4.99,10.39,8.25,15.04,4.29,6.11,9.36,11.68,14.09,17.48.94,7.88,1.87,15.77,2.81,23.65-3.31,11.7-11.66,19.12-21.44,25.38-2.09,1.34-3.89,3.11-5.83,4.69ZM569.37,543.74c-4.4,3.8-8.35,7.22-11.36,9.83,1.18,5.26,2.19,9.74,3.26,14.51,7.55-6.32,9.63-14.32,8.1-24.34Z"/>
      <path class="cls-19" d="M485.68,537.49c3.02,3.63,4.56,7.63,3.04,12.38-6.11,6.27-12.01,12.75-18.38,18.74-5.34,5.02-10.63,10.54-16.96,13.97-16.35,8.87-33.19,17.62-52.19,18.23-8.63.27-17.59-2.61-26-5.31-8.42-2.7-16.77-6.23-24.37-10.72-7.32-4.32-13.97-9.99-20.32-15.71-6.7-6.04-12.71-12.85-19.02-19.33-1.32-4.65.33-8.54,3.08-12.16.26.04.53.06.8.06,1.83,2.57,3.66,5.14,5.48,7.71,10.61,11.27,20.64,23.17,31.98,33.64,12.79,11.81,29.3,16.75,46.19,17.65,13.69.73,26.98-3.94,38.93-10.92,17.11-10,29.4-25.17,41.57-40.36,2.06-2.62,4.12-5.25,6.18-7.87Z"/>
      <path class="cls-53" d="M301.2,554.58c.91.98,1.82,1.96,2.73,2.94-.22,1.5-.74,3.03-.6,4.49,1.1,11.19,2.31,22.37,3.53,33.55,1.32,12.11,2.64,24.23,4.02,36.33,1.13,9.93,2.29,19.86,3.51,29.78,1.9,15.35,3.84,30.7,5.81,46.04,1.95,15.19,4.09,30.35,5.9,45.55,1.61,13.49,2.89,27.02,4.31,40.54-1.25-.32-2.5-.63-3.75-.95-1.73-14.74-3.41-29.49-5.22-44.22-1.95-15.82-4.12-31.61-6.04-47.43-1.77-14.58-3.38-29.18-4.95-43.79-1.58-14.75-2.97-29.53-4.53-44.29-1.38-13.05-3.07-26.07-4.26-39.13-.58-6.43-.33-12.94-.46-19.41Z"/>
      <path class="cls-53" d="M496.38,557.51c.91-.98,1.82-1.96,2.73-2.94-.13,6.47.14,12.98-.46,19.41-1.53,16.33-3.5,32.61-5.2,48.93-1.42,13.68-2.55,27.38-4.07,41.05-1.63,14.59-3.54,29.16-5.37,43.73-2.04,16.28-4.17,32.55-6.18,48.83-1.46,11.78-2.79,23.58-4.18,35.37-1.25.32-2.5.63-3.75.95,1-9.32,1.93-18.65,3.02-27.96,1.43-12.25,2.89-24.5,4.48-36.74,1.89-14.57,4.05-29.1,5.89-43.67,1.64-13.02,2.93-26.08,4.49-39.1,1.62-13.5,3.48-26.96,5.03-40.47,1.02-8.84,1.64-17.73,2.49-26.59.48-4.97,1.17-9.93,1.54-14.91.15-1.94-.3-3.93-.48-5.9Z"/>
      <path class="cls-1" d="M502,565.92c4.91,8.22,10.93,15.1,22.03,18.08-.99-2.42-1.34-3.96-2.17-5.18-5.67-8.31-2.78-16.61,7.05-18.57,8.46-1.69,17.11-2.42,25.92-3.61,3.55,6.47,2.2,10.36-6.04,15.62,2.33,3.31,5.6,2.33,8.48,1.66,9.73-2.29,16.14-11.51,16.32-23.07,4.88,5.68,9.66,11.45,14.66,17.01,12.33,13.71,25.18,27,36.91,41.21,3.23,3.91,3.58,10.39,4.73,15.8,5.38,25.37,10.6,50.78,15.84,76.19.88,4.28,1.54,8.6,2.3,12.91-12.32,8.65-24.25,17.91-37.04,25.78-15.54,9.55-31.51,18.49-48.66,25.02-1.91-5.61-4.21-11.12-5.64-16.84-4.01-16.07-7.6-32.25-11.49-48.35-.66-2.71-1.99-5.27-3.01-7.89-.54.13-1.08.27-1.62.4.9,26.71,1.66,53.43,4.71,80.03-15.07,4.92-30.06,10.1-45.25,14.65-7.67,2.3-15.68,3.45-23.53,5.12.39-2.78.78-5.57,1.15-8.35,2.44-18.44,4.93-36.88,7.3-55.33,1.78-13.8,3.45-27.61,5.11-41.43,1.49-12.42,3-24.83,4.29-37.27,1.15-11.04,1.99-22.11,3-33.17,1.53-16.81,3.1-33.61,4.65-50.42Z"/>
      <path class="cls-40" d="M502,565.92c-1.55,16.8-3.11,33.61-4.65,50.42-1.01,11.06-1.85,22.13-3,33.17-1.29,12.44-2.8,24.85-4.29,37.27-1.65,13.81-3.33,27.63-5.11,41.43-2.38,18.45-4.86,36.89-7.3,55.33-.37,2.79-.77,5.57-1.15,8.35-.95,0-1.9.01-2.84.02,1.39-11.79,2.72-23.59,4.17-35.37,2.01-16.28,4.14-32.55,6.18-48.83,1.83-14.57,3.74-29.13,5.37-43.73,1.52-13.66,2.65-27.37,4.07-41.05,1.69-16.31,3.67-32.6,5.2-48.93.6-6.43.33-12.94.46-19.41.61.13,1.74.19,1.77.39.45,3.64.77,7.3,1.12,10.96Z"/>
      <path class="cls-39" d="M545.28,772.11c-3.05-26.61-3.82-53.32-4.71-80.03.54-.13,1.08-.27,1.62-.4,1.02,2.63,2.35,5.18,3.01,7.89,3.89,16.1,7.48,32.28,11.49,48.35,1.43,5.73,3.74,11.23,5.64,16.84-5.68,2.45-11.36,4.9-17.04,7.35Z"/>
      <path class="cls-1" d="M226.72,550.83c.19,11.57,6.54,20.74,16.28,23.07,2.9.69,6.15,1.64,8.53-1.59-8.04-5.37-9.36-8.77-6.3-15.98.28-.11.59-.35.85-.31,7.01,1.08,14.05,1.99,20.99,3.39,3.42.69,7.17,1.61,9.85,3.64,5.67,4.32,5.95,9.24,1.98,15.21-.92,1.39-1.58,2.96-1.84,4.83,10.03-1.87,15.93-8.69,21.24-16.27.76,10.14,1.33,20.3,2.31,30.42,1.29,13.38,2.96,26.72,4.36,40.09,1.41,13.53,2.46,27.1,4.06,40.6,2.22,18.78,4.8,37.53,7.25,56.28,2.51,19.22,5.04,38.44,7.55,57.66-7.5-1.34-15.19-2.04-22.47-4.15-15.55-4.51-30.89-9.74-46.31-14.68,3.18-26.92,3.78-53.97,3.77-81.18-1.81,2.63-2.97,5.39-3.72,8.25-5.7,21.78-11.33,43.59-16.98,65.38-8.11-3.71-16.41-7.03-24.28-11.2-21.19-11.23-41.68-23.62-60.34-38.82-.68-.55-1.42-1.03-2.13-1.55,3.14-13.24,6.54-26.43,9.35-39.74,3.56-16.83,7.56-33.64,9.64-50.68,1.44-11.77,8-19.81,15.05-27.81,8.38-9.51,17.64-18.26,26.3-27.53,5.22-5.59,10.03-11.55,15.02-17.34Z"/>
      <path class="cls-39" d="M238.11,765.51c5.65-21.8,11.27-43.6,16.98-65.38.75-2.86,1.91-5.62,3.72-8.25.01,27.21-.59,54.26-3.77,81.18-5.64-2.52-11.29-5.03-16.93-7.55Z"/>
      <path class="cls-40" d="M323.81,791.88c-2.52-19.22-5.05-38.44-7.55-57.66-2.45-18.76-5.02-37.5-7.25-56.28-1.6-13.51-2.65-27.07-4.06-40.6-1.39-13.37-3.06-26.71-4.36-40.09-.98-10.12-1.56-20.28-2.31-30.42.36-3.96.69-7.92,1.15-11.86.02-.19,1.15-.25,1.77-.38.13,6.47-.13,12.98.46,19.41,1.19,13.06,2.88,26.08,4.26,39.13,1.56,14.76,2.95,29.53,4.53,44.29,1.57,14.6,3.18,29.21,4.95,43.79,1.92,15.82,4.09,31.61,6.04,47.43,1.82,14.73,3.49,29.48,5.22,44.22-.95-.32-1.9-.64-2.85-.97Z"/>
      <path class="cls-2" d="M402.96,90.97c10.65-4.04,21.61-3.34,32.47-1.63,17.01,2.67,33.24,7.77,48.04,16.89,9.16,5.64,15.89,13.67,21.98,22.24,5.17,7.27,10.02,14.79,14.67,22.41,6.97,11.4,16.5,20.2,27.99,26.54,7.01,3.87,10.11,7.93,13.87,17.63-10.3-7.5-20.37-14.34-32.33-17.48-.25.4-.49.79-.74,1.19,3.97,2.52,8.01,4.94,11.91,7.58,5.1,3.46,11.85,5.29,14.06,11.81,1.47,4.33,1.98,9.05,2.42,13.65.42,4.3.18,8.67.23,13.01-1.08-.27-2.47-.21-3.21-.87-13.05-11.74-22.47-26.35-32.34-40.66-6.35-9.21-12.4-18.84-21.99-25.31-8.57-8.12-17.14-16.24-25.71-24.35,9.86,11.14,19.31,22.64,27.99,34.69,13.36,18.55,23.47,38.91,31.61,60.25-4.64-3.1-9.25-6.26-13.93-9.3-18.25-11.84-36.37-23.91-54.88-35.33-8.88-5.48-18.5-9.76-27.85-14.46-1.47-.74-3.27-.81-4.92-1.18-.17.43-.33.85-.5,1.28,2.25,1.55,4.76,2.84,6.71,4.71,11.09,10.57,22.61,20.76,32.89,32.07,12.71,13.98,24.32,28.97,36.49,43.45,7.33,8.72,14.83,17.31,22.25,25.96,2.46,3.73,4.93,7.46,8.02,12.14-2.17-.53-3.25-.61-4.16-1.04-14.01-6.63-28.46-12.52-41.85-20.24-9.66-5.57-18.99-12.58-26.56-20.71-16.19-17.4-31.15-35.95-46.61-54.03-2.58-3.13-5.17-6.27-7.75-9.4-.25.22-.49.43-.74.65.33,1.01.66,2.01.99,3.02-4.46-3.7-8.92-7.41-13.38-11.11,1.14-1.22,2.73-2.24,3.34-3.68,3.04-7.13,9.42-11.56,17.11-11.54,2.34,0,4.68,0,7.01,0,.03-.42.05-.83.08-1.25-1.25-.56-2.53-1.07-3.75-1.7-7.61-3.89-15.65-7.15-22.66-11.92-6.35-4.33-5.07-12.21,1.74-15.62,2.21-1.11,4.64-1.94,7.07-2.42,13.31-2.64,26.72-2.63,40.16-1.1,2.81.32,5.63.48,8.89.75-.6-.93-.76-1.4-1.1-1.66-.86-.67-1.75-1.36-2.72-1.84-9.77-4.88-20.01-7.96-31-8.5-7.48-.37-14.97-.85-22.39-1.8-3.99-.51-4.99-3.53-1.8-5.67,5.08-3.39,10.79-5.91,16.42-8.39,2.27-1,5-.94,7.52-1.35-6.93-4.08-14.19-1.94-22.01-1.8,1.29-1.99,2.1-3.25,2.92-4.51Z"/>
      <path class="cls-2" d="M242.77,224.79c.05-4.34.33-8.69.11-13.01-.45-8.86,1.43-16.42,9.8-21.26,6.33-3.67,12.43-7.72,18.28-12.25-12.25,2.42-22.26,9.2-32.87,17.02,2.81-6.61,4.83-12.68,10.89-15.94,14.88-8.01,26.04-19.5,34.74-34.05,6.24-10.43,13.65-20.33,21.67-29.46,11.05-12.57,26.46-18.17,42.07-22.71,11.61-3.38,23.49-5.49,35.7-4.92,2.43,1.35,6.27,1.42,5.6,5.69-.62,3.92-3.74,4.72-7,4.95-10.47.75-20.41,3.32-29.5,8.62-5.53,3.22-10.53,7.04-12.2,14.22,4.36-2.26,8.2-4.18,11.96-6.23,9.63-5.24,19.6-4.57,29.66-1.73,3.15.89,7.28,7.79,7.15,11.4-.16,4.61-3.97,4.49-6.99,5.55-4.53,1.6-9.44,2.73-11.71,7.41,4.12-.32,8.14-.64,12.16-.92,3.54-.25,6.17,1.15,7.39,4.55,1.11,3.07,1.87,6.26,3.01,9.32,1.32,3.54-.26,5.75-2.7,8.16-5.02,4.95-9.78,10.16-14.47,15.42-1.21,1.36-1.75,3.32-2.9,5.61,8.09-4.42,15.27-8.34,22.68-12.39.95,3.12,1.57,5.13,2.18,7.15-3.45,4.09-6.9,8.19-10.35,12.28-1.34.76-3.02,1.23-3.97,2.32-12.95,14.86-25.64,29.95-38.73,44.69-7.46,8.4-14.84,17.08-23.47,24.16-13.75,11.28-29.55,19.31-46.68,24.54-3.76,1.15-7.35,2.82-12.07,4.67,3.09-4.65,5.51-8.28,7.92-11.91,2.12-2.29,4.34-4.49,6.33-6.88,15.8-19.04,31.25-38.38,47.43-57.09,9.1-10.52,19.22-20.18,29.18-29.93,4.72-4.63,10.14-8.55,15.24-12.79-1.96-.48-3.68-.39-5.09.32-9.36,4.71-18.97,9.04-27.9,14.48-17.28,10.51-34.19,21.61-51.19,32.58-6.02,3.88-11.84,8.08-17.74,12.13,1.86-4.39,3.73-8.79,5.59-13.18.65-.66,1.34-1.29,1.95-1.99,7.94-9.02,15.3-18.64,23.97-26.9,8.57-8.16,18.41-15,27.8-22.27,2.67-2.07,5.73-3.64,8.61-5.44-1.47-.6-2.51-.43-3.53-.17-12.73,3.19-23.52,10.15-34.12,17.5-2.22,1.54-4.52,2.95-6.78,4.42,11.66-16,23.32-32.01,34.98-48.01-.84,1.36-2.13,2.46-3.32,3.67-7.1,7.25-14.18,14.53-21.26,21.79-2.39,1.98-5.28,3.59-7.1,6.01-9.76,12.99-18.99,26.37-28.92,39.22-5.82,7.53-12.56,14.34-18.99,21.39-.42.46-1.67.16-2.53.21Z"/>
      <path class="cls-2" d="M244.65,548.85c-15.86-9.94-17.69-25.73-16.91-42.61-.57.04-1.14.08-1.71.12-.4,2.89-.95,5.76-1.14,8.67-.2,2.97-.22,5.97,0,8.93.22,3.11.72,6.2,1.26,9.27.49,2.77,1.21,5.5,2,8.99-26.93-12.32-35.44-34.07-16.86-57.38,3.98-4.99,8.4-9.75,11.56-15.22,1.91-3.3,1.8-7.77,2.8-12.7-1.69.88-2.15.98-2.18,1.15-1.54,10.48-8.49,17.46-15.45,24.58-3.02,3.09-5.14,7.06-7.66,10.63-1.28.83-2.66,1.55-3.82,2.52-6.69,5.56-10.71,13-13.86,20.85-5.71,14.19-6.32,28.53.37,42.63,1.59,3.36,4.02,6.33,6.07,9.47-11.24-1.95-16.2-10.14-19.94-19.74-7.89-20.22,3.65-40.64,16.77-49.1,21.43-13.83,26.56-33.59,22.89-56.17-.47-2.91-.58-5.88-.85-8.83.98-2.62,1.5-5.57,3.04-7.81,5.72-8.36,11.13-17.06,17.86-24.55,7.38-8.22,11.73-17.59,14.59-27.91.52-1.89.07-4.05.07-6.08-1.64.56-2.4,1.19-2.6,1.97-2.03,8.03-8.08,13.19-13.4,18.85-.62.66-1.75.85-2.64,1.26,7.74-14.74,14.38-29.9,15.65-46.76.45-6,.07-12.06.07-18.09-.5-.06-.99-.13-1.49-.19-1.28,7.62-2.42,15.27-3.88,22.85-1.49,7.78-3.3,15.49-5.69,23.24-1.59-14.01-8.78-25.63-14.13-38.01-7.99-18.5-2.69-35.33,8.48-50.76,5.68-7.86,12.06-15.21,18.07-22.83.76-.96,1.24-2.13,1.85-3.21,1.13-1.43,2.21-2.9,3.41-4.28,2.89-3.33,5.84-6.6,8.76-9.9-6.13,19.66-9.99,39.71-10.43,60.37-.11,5.15-.52,10.3-.83,15.44-.56,9.47-.18,18.62,8.35,25.06,1.51,7.44,1.32,14.79-.76,22.14-1.18,4.17-1.98,8.45-2.96,12.68-.63,1.56-1.26,3.13-1.89,4.69-1.3,5.27-2.7,10.52-3.85,15.83-.76,3.49-1.17,7.06-1.73,10.6-.15,8.25-.69,16.52-.36,24.75.47,11.63,1.56,23.13-5.62,33.55-2.99,4.34-4.92,9.41-7.33,14.15-4.05,6.7-3.91,12.49.59,16.57,1.18-2.93,1.77-6.2,3.57-8.54,6.26-8.14,12.93-15.95,19.45-23.89,3.08,8.54,9.24,13.28,18.19,14.03,3.94.33,4.88,1.78,3.81,5.43-2.55,8.65-7.62,14.81-16.5,17.32-2.93.83-3.29,2.5-1.35,4.35,2.27,2.16,1.62,3.96.85,6.61-3.23,11.2-1.37,22.59,8.19,29.68,5.39,4,9.84,3.29,14.25-2.06,1.1-3.99,2.19-7.97,3.29-11.96-.62-.2-1.23-.41-1.85-.61-.65,1.29-1.18,2.66-1.99,3.85-.9,1.32-2.05,2.47-3.1,3.69-.99-1.61-2.68-3.14-2.86-4.83-.78-7.09,2.09-12.73,7.66-17.14,1.4-1.11,2.4-2.71,3.59-4.08,6.88-5.84,11.35-12.9,11.27-22.27-.04-4.49-.38-9.01.06-13.45.35-3.48,1.49-6.93,2.73-10.22.29-.77,2.58-1.48,3.64-1.16,8.71,2.61,8.99,4.29,2.79,10.96-2.49,2.68-5.84,5.81-6.14,8.98-.49,5.27.9,10.81,2.11,16.1.37,1.64,2.49,3.59,4.2,4.09,5.18,1.53,7.13,5.89,9.61,9.81.61.97.88,2.48.64,3.6-2.16,10.16-4.49,20.29-6.7,30.44-.52,2.4-.81,4.84-1.28,7.72-6.6-5-11.55-11.04-14.43-18.34-3.03-7.66-.83-15.27,2.86-22.51-.39-.18-.79-.37-1.18-.55-1.4,1.52-3.02,2.89-4.17,4.58-4.75,6.96-4.67,18,.03,24.94,8.66,12.8,7.08,23.12-5.6,33.61.15-1.34.27-2.27.36-3.21.9-9.73-5.16-16.87-14.92-18.08-4.17-.52-8.25-1.77-12.37-2.69-6.47-4.84-8.03-12.11-9.35-19.39-1.29-7.1-2.24-14.27-3.45-22.13-.86,1.14-1.22,1.46-1.37,1.86-.56,1.47-1.16,2.93-1.54,4.45-2.69,10.73-1.16,21.13,2.49,31.36Z"/>
      <path class="cls-2" d="M542.44,552.71c-3.66.84-7.3,1.8-10.99,2.5-13.02,2.45-17.47,8.26-16.01,21.04-11.88-7.76-14.59-21.24-5.99-32.41,6.6-8.58,4.51-25.82-5.28-30.51,10.06,18.03,1.9,30.34-11.01,41.79-1.88-8.96-3.66-17.45-5.43-25.94-.21-3.01.6-6.74-.88-8.86-2.14-3.06-2.19-5.41-.42-8.07,1.71-2.57,3.35-5.64,5.83-7.15,8.59-5.21,8.73-4.99,7.69-14.56,3.13-4.82,2.9-8.58-.84-12.7-1.16-1.27-2.41-2.46-3.62-3.69-6.34-6.47-5.94-8.26,2.75-10.88,1.06-.32,3.38.4,3.63,1.14,1.21,3.61,3.02,7.52,2.61,11.1-1.53,13.3.73,25.14,10.69,34.76,1.77,1.73,3.43,3.59,5.34,5.15,5.61,4.6,7.62,10.55,6.5,17.53-.2,1.26-1.74,2.32-2.66,3.47-.91-.93-1.98-1.77-2.71-2.83-1.01-1.48-1.76-3.13-2.62-4.71-.6.25-1.2.5-1.8.75,1.19,4.23,2.37,8.45,3.56,12.68,6.22,5.07,10.59,4.83,16.4-.78,8.24-7.96,8.49-17.73,6.02-27.87-.63-2.6-1.45-4.36.84-6.54,2-1.9,1.31-3.47-1.51-4.27-8.88-2.51-13.88-8.74-16.42-17.35-1.1-3.71,0-5.04,3.87-5.38,8.93-.77,15.07-5.5,18.14-14.03,6.1,12.07,19.73,18.61,23.12,32.99,4.35-5.66,4.32-10.78.48-17.13-1.76-3.66-3-7.72-5.38-10.92-8.68-11.63-8.62-24.59-7.35-38.16.72-7.7-.34-15.57-.6-23.36-1.85-8.81-3.71-17.62-5.56-26.43-.63-1.56-1.26-3.13-1.89-4.69-.25-1.53-.34-3.1-.78-4.57-2.94-9.9-5.21-19.84-2.94-30.24,5.77-4.42,8.39-10.43,8.38-17.53,0-4.52-.9-9.04-.8-13.55.51-23.88-3.38-47.07-10.48-69.78.68.4,1.54.64,2,1.21,3.43,4.29,6.78,8.64,10.16,12.97,5.17,6.85,10,13.99,15.58,20.48,10.17,11.82,17.1,25.01,16.24,40.84-.36,6.65-2.79,13.46-5.51,19.65-4.79,10.89-10.55,21.36-11.74,33.68-5.57-14.9-7.02-30.72-9.83-46.22-.59.06-1.19.12-1.78.18,0,5.52-.72,11.15.16,16.52,1.58,9.71,3.5,19.45,6.44,28.81,2.17,6.91,6.2,13.23,9.4,19.82-.43.01-1.05.22-1.26,0-5.75-5.7-11.98-11.03-14.47-19.22-.34-1.11-1.17-2.06-1.77-3.09l-1.22.42c0,1.81-.45,3.76.08,5.39,1.88,5.77,3.38,11.83,6.37,17.02,3.31,5.74,8.13,10.6,12.2,15.92,6.63,8.64,14.3,16.66,16.88,27.77-1.91,14.93-3.81,29.86,2.88,44.23,4.04,8.68,10.77,14.86,18.46,20.23,12.78,8.93,20.06,21.11,20.07,36.82,0,9.3-3.12,18.19-9.34,25.07-3.22,3.56-8.66,5.1-13.1,7.55.41-.89.78-1.79,1.24-2.66,2.74-5.17,6.74-10.04,8.01-15.55,4.17-18.1-.44-34.66-11.51-49.35-2.36-3.13-5.97-5.31-9-7.93-4.73-5.8-9.8-11.37-14.09-17.48-3.27-4.65-5.58-9.98-8.25-15.04-.53-1-.75-2.16-1.49-3.09-2.04,9.5,3.08,16.15,8.56,22.92,4.28,5.28,8.94,10.7,11.49,16.85,6.48,15.62,2.43,25.13-10.36,36.58-3.56,3.18-7.79,5.61-12.58,8.08,1.57-12.06,4.16-23.86.23-35.9-.37,16.66-1.76,32.78-17.8,42.66,4.32-12.27,5.89-24.54-.02-36.82-1.61,6.96-2.59,13.97-3.81,20.93-1.3,7.42-2.84,14.79-9.39,19.74Z"/>
      <path class="cls-30" d="M397.5,174.98c-.62-2.02-1.23-4.04-2.18-7.15-7.42,4.05-14.59,7.97-22.68,12.39,1.15-2.3,1.69-4.26,2.9-5.61,4.69-5.26,9.46-10.47,14.47-15.42,2.44-2.41,4.02-4.61,2.7-8.16-1.14-3.06-1.9-6.25-3.01-9.32-1.23-3.4-3.86-4.8-7.39-4.55-4.02.28-8.03.61-12.16.92,2.26-4.68,7.18-5.81,11.71-7.41,3.02-1.06,6.83-.94,6.99-5.55.13-3.61-4-10.51-7.15-11.4-10.06-2.83-20.03-3.51-29.66,1.73-3.76,2.05-7.6,3.96-11.96,6.23,1.67-7.18,6.67-11,12.2-14.22,9.1-5.3,19.04-7.87,29.5-8.62,3.26-.23,6.39-1.04,7-4.95.67-4.26-3.18-4.33-5.6-5.69,6.6.92,13.2,1.84,19.8,2.76-.81,1.26-1.63,2.51-2.92,4.51,7.82-.14,15.08-2.28,22.01,1.8-2.52.42-5.26.35-7.52,1.35-5.62,2.48-11.34,5-16.42,8.39-3.19,2.13-2.19,5.15,1.8,5.67,7.42.95,14.91,1.43,22.39,1.8,10.99.55,21.23,3.62,31,8.5.97.49,1.85,1.17,2.72,1.84.33.26.5.73,1.1,1.66-3.27-.27-6.09-.43-8.89-.75-13.44-1.53-26.85-1.54-40.16,1.1-2.43.48-4.86,1.31-7.07,2.42-6.81,3.41-8.09,11.29-1.74,15.62,7.01,4.77,15.06,8.03,22.66,11.92,1.22.62,2.5,1.13,3.75,1.7-.03.42-.05.83-.08,1.25-2.34,0-4.68,0-7.01,0-7.68-.02-14.07,4.41-17.11,11.54-.61,1.44-2.2,2.47-3.34,3.68-.21.04-.41.04-.62,0Z"/>
      <path class="cls-30" d="M255.99,242.7c-2.92,3.3-5.87,6.58-8.76,9.9-1.2,1.37-2.28,2.85-3.41,4.28-3.95,3.5-8.02,6.88-11.81,10.56-2.65,2.58-4.9,5.56-7.91,9.03-2.2-9.05-2.98-17.27.84-25.15,2.22-4.59,5.14-8.87,8.01-13.1,3.11-4.58,6.53-8.95,9.81-13.41.86-.05,2.11.25,2.53-.21,6.42-7.05,13.17-13.86,18.99-21.39,9.93-12.85,19.17-26.23,28.92-39.22,1.82-2.42,4.71-4.03,7.1-6.01-.41.83-.67,1.77-1.24,2.47-14.69,18.16-25.98,38.31-34.77,59.88-3,7.37-5.55,14.92-8.3,22.39Z"/>
      <path class="cls-30" d="M556.49,256.88c-3.38-4.33-6.73-8.68-10.16-12.97-.46-.57-1.32-.81-2-1.21-.77-1.86-1.7-3.68-2.29-5.6-6.97-22.64-17.43-43.56-30.88-63.02-3.71-5.38-7.43-10.75-11.15-16.12,9.59,6.47,15.64,16.09,21.99,25.31,9.86,14.31,19.28,28.92,32.34,40.66.74.66,2.12.6,3.21.87,5.83,8.54,12.1,16.83,17.37,25.71,4.6,7.77,3.51,16.43,1.45,25.76-5.71-6.08-10.91-11.72-16.24-17.23-.95-.98-2.41-1.46-3.63-2.16Z"/>
      <path class="cls-30" d="M599.98,493.28c3.03,2.62,6.64,4.8,9,7.93,11.07,14.69,15.67,31.25,11.51,49.35-1.27,5.51-5.27,10.38-8.01,15.55-.46.86-.83,1.77-1.24,2.66-3.11-.07-6.23-.22-9.34-.15-.96.02-1.91.65-2.86,1-.69.02-1.38.04-2.07.05-6.56-7.21-13.12-14.41-19.67-21.62,9.42,5.61,17.78,3.32,26.4-5.95,7.89-8.49,6.52-27.84.57-34.63-.5,3.23-.99,6.35-1.47,9.47-.94-7.88-1.87-15.77-2.81-23.65Z"/>
      <path class="cls-30" d="M189.09,568.76c-2.04-3.15-4.47-6.11-6.07-9.47-6.68-14.1-6.07-28.43-.37-42.63,3.16-7.85,7.17-15.29,13.86-20.85,1.17-.97,2.54-1.69,3.82-2.52-.94,7.88-1.87,15.77-2.81,23.65-.48-3.37-.95-6.73-1.56-11.08-4.43,9.46-6.77,18.4-3.85,27.62,4.84,15.3,18.82,21.91,30.91,14.58-4.3,5.06-8.53,10.18-12.94,15.14-2.06,2.32-4.48,4.32-6.73,6.46-.69-.02-1.38-.04-2.08-.07-2.32-.18-4.64-.38-6.97-.54-1.74-.12-3.48-.2-5.23-.29Z"/>
      <path class="cls-30" d="M592.25,434.86c-2.58-11.11-10.25-19.13-16.88-27.77-4.08-5.31-8.9-10.17-12.2-15.92-2.98-5.18-4.49-11.25-6.37-17.02-.53-1.63-.08-3.59-.08-5.39l1.22-.42c.6,1.02,1.43,1.98,1.77,3.09,2.49,8.18,8.72,13.52,14.47,19.22.21.21.83,0,1.26,0,6.83,8.68,14.99,16.33,19.57,26.74,3.61,8.19,4.05,16.11-.43,24.33-.11-1.58,0-3.21-.4-4.71-.22-.82-1.26-1.43-1.94-2.13Z"/>
      <path class="cls-30" d="M224.87,390.63c.89-.41,2.02-.6,2.64-1.26,5.32-5.66,11.37-10.82,13.4-18.85.2-.78.96-1.41,2.6-1.97,0,2.03.45,4.19-.07,6.08-2.86,10.32-7.21,19.69-14.59,27.91-6.73,7.49-12.15,16.19-17.86,24.55-1.54,2.25-2.05,5.19-3.04,7.81-.63.56-1.71,1.05-1.81,1.69-.26,1.62-.09,3.31-.66,4.96-4.29-8.08-3.8-16-.16-24.24,4.59-10.39,12.72-18.03,19.55-26.7Z"/>
      <path class="cls-50" d="M206.04,343.5c-.65,2.71-1,5.54-2.03,8.11-1.6,3.99-3.66,7.8-5.53,11.68-4.5,6.15-9.57,12.03-9.58,20.33-.51-.05-1.02-.1-1.53-.14.2-3.84-.14-7.8.69-11.49,2.13-9.55,7.7-17.26,14.25-24.32,1.27-1.37,2.49-2.78,3.74-4.17Z"/>
      <path class="cls-50" d="M601.83,363.29c-1.87-3.89-3.93-7.7-5.53-11.69-1.03-2.56-1.37-5.4-2.02-8.11,4.82,6.29,10.16,12.25,14.3,18.96,3.91,6.34,5.96,13.56,3.35,21.28-.58-8.24-5.47-14.27-10.1-20.44Z"/>
      <path class="cls-2" d="M223.03,548.05c-12.09,7.33-26.07.72-30.91-14.58-2.92-9.22-.58-18.16,3.85-27.62.61,4.34,1.09,7.71,1.56,11.08,3.59,12.14,12.18,19.89,22.68,26.04,1.73,1.01,3.07,2.67,4.59,4.03-.59.35-1.19.7-1.78,1.04Z"/>
      <path class="cls-2" d="M602.78,516.93c.48-3.12.97-6.24,1.47-9.47,5.95,6.78,7.32,26.14-.57,34.63-8.62,9.27-16.98,11.56-26.4,5.95-.59-.34-1.18-.69-1.77-1.03,1.94-1.57,3.74-3.35,5.83-4.69,9.78-6.26,18.13-13.68,21.44-25.38Z"/>
      <path class="cls-4" d="M302.24,397.16c-.03-.29-.11-.57-.23-.84-2.79-9.43-5.58-18.87-8.36-28.3-.37-1.2-.74-2.41-1.11-3.61-1.46-3.34-2.93-6.68-4.13-9.43h-10.82c-.62-.35-1.24-.71-1.86-1.06-2.8-3.47-5.61-6.94-8.41-10.41-.82-1.86-1.59-3.75-2.48-5.57-6.27-12.81-8.49-26.39-7.73-40.54,1.83-1.23,3.67-2.45,5.5-3.68-.32,2.78-.64,5.56-.96,8.34-.38,15.44,4,29.6,12,42.61,1.57,2.56,4.74,4.31,7.47,5.9.95.55,3.01-.2,4.2-.94.47-.29.14-2.24-.17-3.33-1.18-4.03-2.5-8.02-3.77-12.03-.61-3.97-1.74-7.94-1.73-11.91.03-11.17.52-22.33.84-33.5-.32-.64-.64-1.27-.95-1.91,5.04-1.86,10.07-3.72,15.11-5.58-1.98,1.49-4.14,2.79-5.87,4.53-1.19,1.2-2.49,2.99-2.51,4.54-.17,12.18-.24,24.38.12,36.55.11,3.64,1.67,7.24,2.57,10.87.66,1.92,1.27,3.85,1.97,5.75,5.18,13.9,11.55,27.48,15.27,41.75,4.81,18.49,15.96,31.39,30.87,41.97,38.63,32.16,87.62,32.14,126.2,0,1.39-1.01,2.82-1.96,4.16-3.02,12.25-9.69,21.91-20.95,25.9-36.76,2.65-10.54,7.17-20.61,10.92-30.87,2.3-6.3,4.74-12.56,7.11-18.83.32-.88.89-1.75.92-2.65.65-15.64,1.29-31.27,1.72-46.91.03-1.17-1.34-2.94-2.5-3.47-5.69-2.59-11.52-4.86-17.3-7.24-1.23-.86-2.46-1.73-3.68-2.59.31-.36.61-.73.92-1.09,1.22.59,2.43,1.23,3.67,1.78,5.72,2.53,11.39,5.18,17.19,7.53,8.52,3.46,17.18,6.58,25.68,10.1,1.99.83,3.56,2.67,5.33,4.05,1.05,16.37-2.85,31.64-10.29,46.12-2.8,3.47-5.61,6.94-8.41,10.41-.62.36-1.24.71-1.86,1.07-1.52.25-3.28,1.11-4.53.63-6.06-2.3-7.79,1.53-9.29,6.03-.39,1.17-1,2.26-1.52,3.38-.24,1-.48,2-.71,3-2.79,9.43-5.57,18.87-8.36,28.3-.12.28-.2.56-.23.86-2.29,7.17-6.03,13.36-12.09,18-5.4,4.98-10.8,9.95-16.19,14.93h.03c-4.11,3.13-8.22,6.27-12.32,9.41-2.79,2.09-7.66,3.91-7.98,6.33-1.05,7.94-.44,16.1-.47,24.17.55,2.91.67,6,1.73,8.71,2.69,6.84,5.81,13.52,8.76,20.26-1.3,1.26-2.61,2.53-3.91,3.79-3.79-8.72-8.82-17.14-11.02-26.24-2.17-8.96-1.49-18.61-1.99-26.71-11,2.28-21.97,4.56-32.94,6.83-18.05,2.18-35.15-1.77-52.85-8.6v21.77c-.6,12.26-6.08,22.72-12.18,32.95-1.3-1.26-2.61-2.53-3.91-3.79.81-1.69,1.79-3.33,2.4-5.09,2.76-7.92,5.41-15.87,8.11-23.82.17-6.06.15-12.14.57-18.19.47-6.81-3.14-10.35-9.03-12.37-4.03-3.14-8.07-6.27-12.1-9.41-5.46-4.98-10.92-9.95-16.39-14.93-6.03-4.66-9.85-10.8-12.07-18.02ZM531.98,292.6c-2.78-1.06-5.56-2.13-8.35-3.18-2.26-.86-3.78-.37-3.77,2.32.02,6.59.29,13.18.14,19.76-.17,7.59-.7,15.18-1.07,22.77-1.26,3.86-2.59,7.71-3.73,11.61-.36,1.24-.66,3.52-.16,3.79,1.35.73,3.53,1.34,4.68.71,2.52-1.36,5.32-3.08,6.77-5.42,7.48-12.05,11.56-25.19,12.27-39.48.3-6.05-1.04-10.41-6.79-12.87Z"/>
      <path class="cls-23" d="M455.65,502.78c1.3-1.26,2.61-2.53,3.91-3.79,1.86.34,3.72.68,5.59,1.02.93.62,1.87,1.24,2.8,1.86,2.16,1.99,4.32,3.98,6.48,5.97,1.01,1.45,2.03,2.89,3.04,4.34,1.14,1.64,2.28,3.29,3.43,4.93,3.75,5.34,4.92,11.28,4.1,17.67-.48-.59-.96-1.19-1.3-1.62-6.83,6.38-13.33,13.18-20.58,19.04-11.64,9.4-24.45,16.87-39.13,20.71-3.35.88-4.58.3-5.15-3.5-.68-4.53-2.13-9.15-4.28-13.18-2.47-4.64-6.1-8.65-9.18-12.97-1.05-1.47-3.76-3.37.69-3.92,10.43,7.49,15.21,18.22,17.16,30.46.7,0,1.17.07,1.62-.01.77-.14,1.55-.29,2.28-.56,21.27-7.85,38.57-21.25,53.37-38.14,2.09-2.39,2.14-4.88.23-7.24-4.88-6.03-9.84-12-14.86-17.91-2.45-2.89-4.66-2.41-7.49.11-7.36,6.56-14.73,13.2-22.74,18.91-8.12,5.79-16.58,11.41-26.91,12.78-3.72.35-7.44.69-10.62.98-1.89,2.42-3.48,4.49-5.11,6.54-5.52,6.92-10.38,14.15-11.62,23.22-.74,5.42-1.3,5.77-6.46,4.21-12.44-3.78-23.89-9.66-34.02-17.7-8.51-6.76-16.35-14.37-24.45-21.57-.32,1.21-.72,2.72-1.11,4.23-.27,0-.53-.02-.8-.06.91-7-.08-14.45,4.85-20.5,1.15-1.63,2.3-3.26,3.45-4.9.94-1.3,1.87-2.61,2.81-3.91,2.24-2.14,4.47-4.27,6.7-6.41.93-.62,1.87-1.24,2.8-1.86,1.86-.34,3.72-.68,5.59-1.03,1.3,1.26,2.61,2.53,3.91,3.79,10.29,8.13,20.21,16.8,30.97,24.25,14.95,10.35,31.02,12,46.56,1.32,11.55-7.94,22.33-17,33.45-25.57ZM393.46,539.13c-4.91-1.88-9.97-3.43-14.69-5.69-14.04-6.7-25.58-16.88-36.83-27.36-2.79-2.6-5.06-3-7.49-.15-5.03,5.9-9.97,11.89-14.86,17.91-2.1,2.59-1.69,5.15.5,7.62,14.59,16.41,31.44,29.66,52.22,37.41,1.52.57,3.16.79,4.76,1.18,2.57-13.79,6.76-21.61,16.4-30.93Z"/>
      <path class="cls-30" d="M241.9,409.49c.56-3.54.97-7.11,1.73-10.6,1.15-5.3,2.55-10.55,3.85-15.83-1.4,10.88,2.75,19.1,12.09,24.66,2.07,1.23,4.52,1.81,6.79,2.69-3.6,4.49-1.95,9.33-.95,14.13-3.65,5.02-7.53,9.9-10.89,15.1-5.37,8.32-5.32,17.29-2.33,26.44-6.52,7.94-13.19,15.75-19.45,23.89-1.8,2.34-2.39,5.61-3.57,8.54-4.5-4.08-4.63-9.87-.58-16.57,0,2.62,0,5.23,0,8.64,3.58-7.07,6.25-13.53,9.93-19.36,5.98-9.48,9-19.54,8.03-30.7-.86-9.93-1.85-19.85-2.89-29.77-.05-.48-1.15-.84-1.76-1.26Z"/>
      <path class="cls-2" d="M290.86,422.67c1.4-3.14,2.8-6.27,4.2-9.41,11.43,2.65,16.08,12.27,10.71,22.41-.54,1.02-1.64,1.85-2.65,2.49-8.05,5.16-9.96,10.81-6.88,20.01.34,1,.04,2.34-.28,3.42-1.65,5.55-3.41,11.07-5.25,16.99-2.15-1.3-5.22-3.17-8.3-5.04-.95-13.47,1.36-26.39,6.12-39.01,1.4-3.72,1.59-7.9,2.33-11.86Z"/>
      <path class="cls-2" d="M280.13,424.04c-2.12-9.96-9.36-15.11-17.83-19.49-6.94-3.58-11.23-9.37-11.08-17.7.11-6.73,1.45-8.19,8.91-9.08,4.03,11.03,12.98,16.9,23.3,21.44,6.9,3.04,8,5.26,7.32,11.89-.64,6.21-4.82,11.39-10.62,12.93Z"/>
      <path class="cls-30" d="M340.75,498.98c-1.86.34-3.72.68-5.59,1.03-.11-4.81-.16-8.97,4.18-13.02,5.62-5.25,6.07-12.58,2.13-19.49-2.7-4.75-5.76-9.31-8.83-13.84-3.95-5.84-6.44-11.79-3.21-18.89.4-.89-.56-2.4-.89-3.62.72-.34,1.44-.69,2.15-1.03,4.03,3.14,8.07,6.27,12.1,9.41,0,0-.27.27-.27.27-3.61,2.86-4.89,7.21-2.44,11.41,3.33,5.72,7.29,11.07,10.98,16.57.06.77.12,1.54.18,2.3-2.69,7.94-5.35,15.9-8.11,23.82-.61,1.76-1.59,3.4-2.4,5.09Z"/>
      <path class="cls-2" d="M263.02,436.77c-4.69,16.34,5.51,27.15,14.22,38.51-7.91,3.08-19.14-1.7-22.42-9.44-5.39-12.72-2.23-24.15,8.19-29.07Z"/>
      <path class="cls-30" d="M325.63,438.52c-.41,9.96,4.62,16.3,9.07,23.15,2.93,4.52,4.85,10.03,5.86,15.36.81,4.25-2.14,7.79-5.68,9.92-2.06-4.45-2.97-9.75-6.12-12.44-5.36-4.57-5.28-9.66-5.09-15.61.1-3.04-1.21-6.19-2.2-9.18-1.41-4.27.79-7.16,4.15-11.19Z"/>
      <path class="cls-30" d="M249.37,378.38c.97-4.23,1.78-8.51,2.96-12.68,2.07-7.34,2.27-14.7.76-22.14,4.12.93,8.23,1.87,12.35,2.8.32,2.94.6,5.89.96,8.83.59,4.9,1.23,9.8,1.84,14.7-6.29,2.83-12.57,5.66-18.86,8.49Z"/>
      <path class="cls-2" d="M316.9,473.9c-2.46-6.75-7.22-10.83-13.82-13.19-3.41-1.22-5.6-4.02-5.59-7.97.01-4.68,1.64-8.68,5.6-11.28.68-.45,2.75.33,3.57,1.15,3.92,3.91,7.72,7.96,11.37,12.12,1.26,1.44,2.87,3.41,2.77,5.04-.29,4.71-1.37,9.37-2.14,14.05l-1.76.08Z"/>
      <path class="cls-2" d="M293.65,368.02c2.79,9.43,5.58,18.87,8.36,28.3-.8-1.76-1.6-3.52-2.85-6.27-2.36,3.37-4.62,6.62-6.91,9.89-7.06-3.61-12.26-15.53-9.57-23.02.49-1.36,2.33-2.28,3.62-3.3,2.42-1.91,4.89-3.74,7.35-5.6Z"/>
      <path class="cls-30" d="M330.7,430.11c-.72.34-1.44.69-2.15,1.03-2.01,2.17-4.39,4.11-5.94,6.56-2.39,3.77-4.22,7.89-6.36,12-7.04-2.64-9.42-9.7-5.35-17.29,2.07-3.86,3.08-8.31,4.38-12.55.24-.8-.43-1.87-.96-3.86-.77,3.29-1.27,5.45-1.78,7.62.59-2.81,1.19-5.63,1.78-8.44,5.46,4.98,10.92,9.95,16.39,14.93Z"/>
      <path class="cls-30" d="M321.95,500.83c-4.32-3-9.25-6.42-13.29-9.23,4.58-6.01,9.18-12.06,13.94-18.31,5.03,2.79,7.36,7.96,8.5,13.75.22,1.1-.7,2.63-1.46,3.69-2.39,3.33-4.95,6.53-7.69,10.09Z"/>
      <path class="cls-2" d="M283.57,428.89c-3.51,10.88-6.96,21.61-10.35,32.1-6.04-4.86-8.71-18.32-4.31-25,.87-1.32,2.5-2.35,4-3.01,3.4-1.5,6.94-2.69,10.66-4.09Z"/>
      <path class="cls-35" d="M244.65,548.85c-3.65-10.23-5.18-20.64-2.49-31.36.38-1.52.98-2.98,1.54-4.45.15-.4.52-.72,1.37-1.86,1.21,7.86,2.16,15.03,3.45,22.13,1.32,7.28,2.89,14.55,9.35,19.39-4.9.4-9.46-.37-13.22-3.86Z"/>
      <path class="cls-35" d="M284.36,510.37c-1.18,1.37-2.19,2.97-3.59,4.08-5.57,4.41-8.44,10.05-7.66,17.14.19,1.7,1.87,3.23,2.86,4.83,1.04-1.22,2.2-2.37,3.1-3.69.81-1.18,1.34-2.56,1.99-3.85.62.2,1.23.41,1.85.61-1.1,3.99-2.19,7.97-3.29,11.96-1.12-.12-2.24-.36-3.36-.35-2.05.03-4.1.21-6.14.32-3.29-8.24-4.37-16.35.96-24.3.36-.54-.63-1.98-.99-3.01,4.76-1.25,9.51-2.5,14.27-3.75Z"/>
      <path class="cls-15" d="M314.32,415.18c-.59,2.81-1.19,5.63-1.78,8.44-.28.65-.56,1.3-1.33,3.1-.89-7.38-4.68-11.44-9.76-14.61-8.28-5.18-8.76-7.37-3.94-15.46,1.67.18,3.2.35,4.73.52,2.23,7.21,6.04,13.36,12.07,18.02Z"/>
      <path class="cls-2" d="M277.59,354.97h10.82c1.21,2.75,2.67,6.09,4.13,9.43-5.71,6.24-11.92,9.19-19.24,8.78,5.43-5.35,6.72-11.41,4.29-18.21Z"/>
      <path class="cls-50" d="M286.77,482.65c4.92,4.31,5.04,10.82,1.06,17.58-4.85,8.23-12.76,11.47-21.42,8.67,10.47-5.66,19.29-12.58,20.36-26.25Z"/>
      <path class="cls-2" d="M270.08,514.12c.36,1.02,1.35,2.47.99,3.01-5.33,7.95-4.25,16.06-.96,24.3-10.12-4.67-11.74-17.77-9.6-26.32.58-2.33,1.83-2.95,4.12-2.19,1.75.59,3.63.81,5.45,1.2Z"/>
      <path class="cls-6" d="M290.86,422.67c-.74,3.97-.93,8.14-2.33,11.86-4.76,12.62-7.07,25.54-6.12,39.01-4.98-4.3-6.81-9.7-4.69-15.92,2.57-7.52,5.69-14.84,8.41-22.31.9-2.46,1.11-5.16,1.98-7.64.62-1.77,1.82-3.34,2.76-5.01Z"/>
      <path class="cls-50" d="M322.85,512.19c-1.15,1.63-2.3,3.26-3.45,4.9-1.57-2.69-2.79-5.69-4.8-7.99-2.37-2.72-5.19-5.23-8.26-7.12-3.38-2.08-5.04-4.28-3.53-8.71,9.73,3.51,17.84,8.02,20.04,18.93Z"/>
      <path class="cls-30" d="M239.12,567.6c-7.15-4.82-10.31-13.9-7.57-23.37,2.1,1.94,3.92,3.73,5.86,5.38,1.89,1.6,3.91,3.06,4.93,3.85-1.17,5.13-2.17,9.53-3.22,14.15Z"/>
      <path class="cls-30" d="M280.5,393.26c-6.98-3.85-12.73-8.39-16.15-16.7,4.81,0,8.8-.16,12.75.13.86.06,2.18,1.68,2.31,2.71.55,4.4.73,8.85,1.09,13.86Z"/>
      <path class="cls-54" d="M312.08,470.38c5.26,6.92,1.94,16.25-6.26,18.06-3.26.72-5.06-.74-4.5-3.95.35-2.01,1.49-4.09,2.81-5.7,2.44-2.97,5.26-5.62,7.95-8.42Z"/>
      <path class="cls-2" d="M268.23,369.89c-.62-4.9-1.25-9.8-1.84-14.7-.35-2.94-.64-5.88-.96-8.83.6-.63,1.2-1.26,1.8-1.89.03-.32.06-.65.09-.97,2.8,3.47,5.61,6.94,8.41,10.41-.34.86-.99,1.72-.96,2.56.21,5.67-1.61,10.28-6.53,13.41Z"/>
      <path class="cls-6" d="M277.74,481.45c5.76,1.91,7.32,5.84,4.01,9.8-3.53,4.22-7.73,7.88-12.33,11.26,4.27-6.41,8.84-12.48,8.32-21.07Z"/>
      <path class="cls-50" d="M265.41,424.55c-1-4.8-2.65-9.64.95-14.13,2.46,2.16,4.92,4.32,7.5,6.58-3.24,2.9-5.84,5.22-8.45,7.55Z"/>
      <path class="cls-5" d="M332.37,501.87c-2.23,2.14-4.47,4.27-6.7,6.41,1.55-4.45-.16-10.08,4.92-13.78.66,2.74,1.23,5.05,1.79,7.37Z"/>
      <path class="cls-12" d="M315.35,537.65c.4-1.51.79-3.01,1.11-4.23,8.1,7.2,15.94,14.8,24.45,21.57,10.13,8.05,21.58,13.93,34.02,17.7,5.16,1.57,5.72,1.22,6.46-4.21,1.24-9.07,6.1-16.3,11.62-23.22,1.63-2.04,3.22-4.12,5.11-6.54,3.17-.29,6.9-.64,10.62-.99-.89.54-1.77,1.07-2.66,1.61-4.46.55-1.74,2.45-.69,3.92,3.08,4.32,6.7,8.33,9.18,12.97,2.15,4.03,3.6,8.66,4.28,13.18.57,3.8,1.81,4.38,5.15,3.5,14.68-3.84,27.49-11.31,39.13-20.71,7.25-5.86,13.75-12.66,20.58-19.04.35.43.82,1.02,1.3,1.62.26.44.52.87.78,1.31-.03.46-.06.93-.1,1.39-2.06,2.63-4.12,5.25-6.19,7.87-.67.07-1.52-.09-1.99.26-5.38,4.03-10.62,8.25-16.05,12.22-10.93,7.99-22.22,15.28-35.89,17.74-7.81,1.41-10.24.06-11.12-7.71-.91-8.08-3.82-14.99-9.09-21.17-4.52-5.3-6.4-5.32-10.82.26-4.9,6.18-7.8,12.97-8.69,20.89-.88,7.8-3.32,9.22-11.09,7.72-2.3-.44-4.59-.97-6.82-1.69-16.8-5.38-29.99-16.64-43.76-26.94-.97-.72-2.23-1.06-3.36-1.57-1.83-2.57-3.66-5.14-5.48-7.71Z"/>
      <path class="cls-35" d="M542.44,552.71c6.56-4.95,8.09-12.32,9.39-19.74,1.22-6.97,2.2-13.98,3.81-20.93,5.91,12.28,4.34,24.55.02,36.82-3.77,3.49-8.33,4.26-13.23,3.85Z"/>
      <path class="cls-30" d="M569.37,543.74c1.53,10.01-.55,18.01-8.1,24.34-1.07-4.76-2.08-9.25-3.26-14.51,3.01-2.61,6.96-6.02,11.36-9.83Z"/>
      <path class="cls-8" d="M485.78,536.1c-.26-.44-.52-.87-.78-1.31.82-6.4-.35-12.33-4.1-17.67.95-1.77,1.65-3.75,2.9-5.28,2.68-3.27,5.12-7.25,8.62-9.18,4.14-2.27,6.45-4.5,5.64-9.26.63-.96,1.26-1.91,1.88-2.87,1.04,9.57.9,9.35-7.69,14.56-2.49,1.51-4.12,4.58-5.83,7.15-1.77,2.66-1.72,5.02.42,8.07,1.48,2.12.67,5.85.88,8.86-.65,2.31-1.3,4.61-1.95,6.92Z"/>
      <path class="cls-14" d="M320.83,545.36c1.13.51,2.39.85,3.36,1.57,13.78,10.3,26.96,21.56,43.76,26.94,2.23.71,4.52,1.24,6.82,1.69,7.77,1.5,10.21.08,11.09-7.72.89-7.91,3.79-14.7,8.69-20.89,4.42-5.57,6.3-5.56,10.82-.26,5.27,6.18,8.17,13.09,9.09,21.17.88,7.77,3.31,9.12,11.12,7.71,13.68-2.46,24.97-9.76,35.89-17.74,5.43-3.97,10.67-8.18,16.05-12.22.46-.35,1.31-.18,1.99-.26-12.17,15.2-24.45,30.36-41.57,40.36-11.94,6.98-25.24,11.65-38.93,10.92-16.9-.9-33.4-5.83-46.19-17.65-11.35-10.47-21.37-22.37-31.98-33.64Z"/>
      <path class="cls-30" d="M530.17,275.72c-7.42-8.65-14.92-17.23-22.25-25.96-12.17-14.48-23.77-29.47-36.49-43.45-10.28-11.31-21.81-21.5-32.89-32.07-1.96-1.86-4.46-3.15-6.71-4.71.17-.43.33-.85.5-1.28,1.65.38,3.45.45,4.92,1.18,9.35,4.7,18.97,8.98,27.85,14.46,18.51,11.43,36.62,23.5,54.88,35.33,4.68,3.04,9.29,6.19,13.93,9.3.34.52.82,1,.99,1.56,4.11,14.44,8.44,28.83,12.17,43.37,1.78,6.93,2.43,14.16,3.79,22.47-9.03-12.78-16.79-24.63-25.44-35.8-12.89-16.64-25.18-27.86-30.05-28.84,5.48,6.29,11.3,12.41,16.46,19.05,6.4,8.23,12.26,16.88,18.35,25.36Z"/>
      <path class="cls-44" d="M530.17,275.72c-6.09-8.47-11.95-17.13-18.35-25.36-5.16-6.64-10.99-12.76-16.46-19.05,4.87.97,17.16,12.2,30.05,28.84,8.65,11.16,16.41,23.02,25.44,35.8-1.36-8.32-2.01-15.54-3.79-22.47-3.73-14.54-8.06-28.93-12.17-43.37-.16-.57-.65-1.04-.99-1.56-8.15-21.34-18.25-41.69-31.62-60.25-8.68-12.05-18.13-23.55-27.99-34.69,8.57,8.12,17.14,16.24,25.71,24.35,3.72,5.38,7.43,10.75,11.15,16.13,13.44,19.46,23.91,40.38,30.88,63.02.59,1.92,1.52,3.74,2.29,5.6,7.1,22.72,10.99,45.91,10.48,69.78-.1,4.51.8,9.03.8,13.55.01,7.1-2.61,13.11-8.38,17.53-4.12.93-8.24,1.87-12.36,2.81-.6-.63-1.19-1.25-1.79-1.88,1.44-.61,2.82-1.56,4.32-1.77,6.72-.93,11.31-4.84,12.46-11.15,2.19-12.07,2.04-24.04-6.57-34.2-1.77-1.38-3.34-3.22-5.33-4.05-8.49-3.52-17.15-6.65-25.68-10.1-5.79-2.35-11.47-5-17.19-7.53-1.24-.55-2.45-1.18-3.67-1.78-.31.36-.61.73-.92,1.09,1.23.86,2.46,1.73,3.68,2.59.59,1.99,1.17,3.97,1.7,5.77-7.19-1.84-13.39-4.41-19.73-4.82-7.89-.51-15.92.53-23.85,1.32-8.54.85-17.04,2.12-25.54,3.32-3.66.52-4.96-.86-5.27-4.55-.42-4.95,1.69-8.15,6.06-9.22,6.15-1.51,12.51-2.21,18.77-3.26h32.44c-2.39-2.64-3.8-4.27-5.27-5.82-8.72-9.19-18.02-17.91-26.06-27.66-10.33-12.54-19.65-25.9-29.41-38.91.32-.64.64-1.28.96-1.93,15.46,18.08,30.42,36.63,46.61,54.03,7.57,8.14,16.9,15.15,26.56,20.71,13.39,7.72,27.84,13.61,41.85,20.24.91.43,1.99.51,4.16,1.04-3.09-4.68-5.55-8.41-8.02-12.14ZM489.03,278.2c-2.68-5.15-7.08-7.64-11.86-7.89-12.78-.67-25.6-.9-38.39-.57-4.15.11-8.37,2.24-12.28,4.05-1.06.49-1.53,3.19-1.4,4.82.05.64,2.51,1.71,3.75,1.56,7.9-.91,15.75-2.41,23.66-3.14,12.07-1.12,24.21-3.14,36.52,1.18Z"/>
      <path class="cls-46" d="M418.03,193.75c9.76,13.01,19.08,26.37,29.41,38.91,8.04,9.75,17.33,18.47,26.06,27.66,1.48,1.56,2.88,3.18,5.27,5.82-11.62,0-22.03,0-32.44,0,2.6-.32,5.2-.86,7.81-.91,6.17-.14,12.34-.04,17.22-.04-5.82-6.36-12.3-12.73-17.94-19.77-12.62-15.75-25.01-31.68-37.1-47.84-4.99-6.67-9.79-13.32-18.16-18.49-.75,1.18-1.51,2.55-2.44,3.79-6.19,8.26-12.49,16.43-18.61,24.73-14.24,19.31-29.43,37.78-47.14,54.06-1.33,1.22-2.19,2.94-3.27,4.43-2.23.06-4.45.12-6.68.18.74-.77,1.44-1.58,2.22-2.3,6.63-6.14,14.13-11.59,19.77-18.54,15.46-19.05,30.15-38.74,45.14-58.17,3.45-4.09,6.9-8.19,10.35-12.28.21.04.41.03.62,0,4.46,3.7,8.92,7.41,13.38,11.11,2.18,2.55,4.36,5.11,6.54,7.66Z"/>
      <path class="cls-18" d="M418.03,193.75c-2.18-2.55-4.36-5.11-6.54-7.66-.33-1.01-.66-2.01-.99-3.02.25-.22.49-.43.74-.65,2.58,3.13,5.17,6.26,7.75,9.4-.32.64-.64,1.28-.96,1.93Z"/>
      <path class="cls-30" d="M266.41,228.54c5.91-4.05,11.73-8.24,17.74-12.13,17-10.97,33.91-22.07,51.19-32.58,8.93-5.43,18.54-9.76,27.9-14.48,1.41-.71,3.13-.8,5.09-.32-5.1,4.24-10.52,8.16-15.24,12.79-9.96,9.75-20.08,19.41-29.18,29.93-16.18,18.71-31.64,38.04-47.43,57.09-1.99,2.4-4.21,4.59-6.33,6.88.1-.46.07-1.02.33-1.36,8.13-10.52,16.23-21.07,24.49-31.49,3.2-4.04,6.78-7.78,10.19-11.66-23.81,16.79-40.05,40.01-55.15,64.32,1.01-9.43,1.96-18.65,4.3-27.52,3.52-13.3,8.01-26.33,12.09-39.48Z"/>
      <path class="cls-44" d="M266.41,228.54c-4.08,13.15-8.57,26.18-12.09,39.48-2.34,8.86-3.3,18.09-4.3,27.52,15.1-24.31,31.34-47.54,55.15-64.32-3.41,3.88-6.99,7.62-10.19,11.66-8.26,10.42-16.35,20.97-24.49,31.49-.26.34-.23.9-.33,1.36-2.41,3.63-4.83,7.26-7.92,11.92,4.72-1.84,8.31-3.52,12.07-4.67,17.13-5.23,32.93-13.25,46.68-24.54,8.63-7.08,16.01-15.76,23.47-24.16,13.09-14.74,25.78-29.83,38.73-44.69.95-1.1,2.63-1.56,3.97-2.32-14.99,19.43-29.68,39.12-45.14,58.17-5.64,6.95-13.13,12.39-19.77,18.54-.78.72-1.48,1.53-2.22,2.3-4.06,2.79-8.11,5.58-12.17,8.37l-13.22,6.74c-5.04,1.86-10.07,3.72-15.11,5.58-5.64,2.25-11.28,4.5-16.93,6.75-1.83,1.23-3.67,2.45-5.5,3.68-1.19,1.63-2.56,3.16-3.55,4.9-4.21,7.4-4.21,15.59-4.14,23.75.08,9.04,4.67,14.57,13.49,16.64,1.5.35,2.89,1.17,4.33,1.78-.6.63-1.2,1.26-1.8,1.89-4.12-.93-8.23-1.87-12.35-2.8-8.53-6.44-8.91-15.59-8.35-25.06.31-5.15.72-10.29.83-15.44.44-20.65,4.3-40.7,10.43-60.37,2.75-7.47,5.3-15.02,8.3-22.39,8.79-21.57,20.08-41.72,34.77-59.88.57-.7.83-1.64,1.24-2.47,7.08-7.27,14.16-14.54,21.26-21.79,1.18-1.21,2.48-2.31,3.32-3.67-11.66,16-23.32,32.01-34.98,48.01-5.97,11.62-11.94,23.23-17.91,34.85-1.86,4.39-3.73,8.79-5.59,13.18Z"/>
      <path class="cls-30" d="M272,215.36c5.97-11.62,11.94-23.23,17.91-34.85,2.26-1.47,4.57-2.88,6.78-4.42,10.6-7.35,21.39-14.31,34.12-17.5,1.02-.26,2.06-.43,3.53.17-2.88,1.8-5.93,3.37-8.61,5.44-9.39,7.28-19.23,14.11-27.8,22.27-8.67,8.25-16.03,17.88-23.97,26.9-.61.69-1.3,1.32-1.95,1.99Z"/>
      <path class="cls-48" d="M241.9,409.49c.61.42,1.71.78,1.76,1.26,1.04,9.91,2.03,19.84,2.89,29.77.97,11.17-2.06,21.22-8.03,30.7-3.67,5.83-6.35,12.29-9.93,19.36,0-3.41,0-6.02,0-8.64,2.41-4.74,4.34-9.81,7.33-14.15,7.18-10.42,6.09-21.92,5.62-33.55-.33-8.23.21-16.5.36-24.75Z"/>
      <path class="cls-31" d="M499.95,490.53c-.63.96-1.26,1.91-1.88,2.87-10.03,2.79-18.18,7.64-20.59,18.78-1.01-1.45-2.03-2.89-3.04-4.34-1.11-4.68.04-10.2-5.19-14.04-.12,1.77-.11,2.97-.31,4.14-.23,1.32-.64,2.61-.97,3.92-.93-.62-1.87-1.24-2.8-1.86-.67-3.5-.16-8.1-2.22-10.31-6.42-6.88-8.38-14.15-3.91-22.53,2.49-4.66,5.54-9.04,8.55-13.4,4.34-6.29,6.58-12.72,2.7-20.1-.52-.99-.3-2.37-.43-3.56,0,0-.03,0-.03,0,6.03,5.69,13.73,10.29,12.94,20.39,9.8-4.81,10.76-12.71,6.15-18.75-1.4-1.83-2.5-4.07-3.06-6.29-.67-2.65-.62-5.49-.88-8.25.43-.03.87-.06,1.3-.09.5,2.16,1,4.33,1.5,6.49.28.65.56,1.3.98,2.29,2.54-7.88,4.32-10.22,10.48-14.05,7.9-4.91,8.53-8.18,3.39-15.16-1.67.17-3.1.32-4.54.47.03-.3.11-.59.23-.86.83-1.88,1.66-3.75,2.87-6.51,2.49,3.71,4.76,7.08,7.07,10.52,6.86-4.68,9.75-11.11,9.79-19.22.02-3.92-1.01-6.39-4.81-8.04-2.46-1.07-4.39-3.33-6.56-5.05.24-1,.48-2,.71-3,1.05.88,2.11,1.75,3.16,2.63,4.61,3.83,9.93,5.43,15.87,5.48-5.09-5.51-5.95-11.51-3.7-18.16.62-.36,1.24-.71,1.86-1.07.34.86.99,1.72.96,2.56-.21,5.67,1.61,10.28,6.54,13.42,6.29,2.83,12.58,5.66,18.87,8.49.63,1.56,1.26,3.13,1.89,4.69-.42,4.28.05,8.9-1.44,12.76-3.01,7.8-9.37,12.42-17.44,14.59-2.46,2.16-4.93,4.31-7.51,6.58,3.25,2.89,5.86,5.2,8.47,7.52.89,1.07,1.81,2.12,2.68,3.21,9.09,11.25,16.18,23.06,10.53,38.36-3.07,8.53-9.21,13.26-18.14,14.03-3.86.33-4.96,1.67-3.87,5.38,2.55,8.62,7.55,14.84,16.42,17.35,2.83.8,3.51,2.37,1.51,4.27-2.29,2.18-1.47,3.94-.84,6.54,2.48,10.14,2.22,19.91-6.02,27.87-5.81,5.61-10.18,5.86-16.4.78.01-1.98.43-2.65,2.71-1.74,2.03.8,4.45.62,6.7.87,8.63-4.58,10.6-12.35,10.33-21.28-.22-7.47-.99-8.14-8-6.4-.75.19-1.53.25-2.3.37-5.02-1.28-10.04-2.57-15.06-3.85-9.97-9.63-12.22-21.46-10.69-34.76.41-3.57-1.39-7.48-2.61-11.1-.25-.74-2.58-1.46-3.63-1.14-8.69,2.62-9.1,4.41-2.75,10.88,1.2,1.23,2.46,2.41,3.62,3.69,3.74,4.12,3.97,7.88.84,12.7ZM516.96,475.42c6.74-6.42,7.09-14.11,4.36-22.36-3.07-9.25-6.17-18.5-9.39-27.7-.37-1.05-1.62-1.79-2.47-2.68-1.46-3.23-2.92-6.46-4.65-10.27-3.23,2.13-6.45,3.79-9.11,6.11-4.99,4.34-3.94,16.24,1.47,19.67,8.14,5.15,10.09,10.84,6.9,19.94-.28.81-.58,2.03-.2,2.6,3.69,5.44,4.71,11.56,4.39,17.99,3.2-1.21,5.95-2.25,8.7-3.29ZM520.04,423.95c1.01-2.57,1.35-5.85,3.16-7.59,4.34-4.17,9.39-7.61,14.12-11.38,2.79-2.23,5.91-4.21,8.18-6.9,3.64-4.31,4.4-9.63,3.27-15.12-.7-3.4-3.24-5.25-6.42-5.1-1.34.06-2.64,2.29-3.83,3.66-2.94,3.4-5.33,7.5-8.82,10.17-4.43,3.38-9.79,5.51-14.61,8.41-1.95,1.17-4.26,2.63-5.12,4.54-3.14,6.97,2.56,17.47,10.08,19.3ZM522.88,475.44c10.48,2.85,20.75-2.75,23.84-12.53,3.85-12.2-1.49-23.89-9.08-25.57,3.8,15.96-5.93,26.84-14.76,38.1ZM466.62,487.44c.27-7.81,3.53-13.33,9.18-17.66.89-.68.93-2.72,1.01-4.14.25-4.63-.7-9.61.73-13.81,2.01-5.91,2.47-7.25-2.7-12.48.02,7.11-2.57,12.89-6.42,18.34-3.04,4.3-5.91,8.83-8.08,13.61-2.7,5.95-.24,12.04,6.28,16.14ZM483,474.63c3.01-6.49,6.79-10.86,12.93-13.3,8.39-3.33,9.31-13.63,2.14-19.39-2.1-1.69-3.05-1.31-4.75.92-3.16,4.15-7.06,7.74-10.64,11.58-.82.88-2.19,1.81-2.23,2.76-.24,5.56-1.27,11.29,2.55,17.41ZM492.98,490.66c-7.94-3.68-10.39-11.51-15.56-18.9-1.79,2.32-3.2,4.19-4.65,6.04-3.19,4.06-4.24,10.34-2.25,12.88,2.59,3.31,5.07,6.72,7.75,10.29,4.31-3.02,9.25-6.48,14.71-10.3ZM527.23,461.67c3.8-5.63,7.16-11.64,6.36-18.75-.36-3.15-1.96-7.12-4.35-8.87-3.55-2.6-8.3-3.55-12.44-5.16,3.5,10.99,6.91,21.73,10.43,32.78ZM513.49,483.1c-4.8,3.19-5.16,9.01-1.37,16.44,4.39,8.59,13.31,12.42,21.65,9.25-10.54-5.53-19.06-12.68-20.28-25.68ZM519.83,393.12c7-3.51,12.58-8.27,16.23-16.55-4.94,0-8.93-.16-12.89.13-.85.06-2.13,1.71-2.26,2.75-.54,4.4-.73,8.85-1.07,13.67ZM487.98,470.09c-2.15,3.41-4.36,6.98-1.88,10.4,2.33,3.21,5.77,5.87,9.23,7.92,2.02,1.2,4.05-.79,3.67-3.27-.31-2.04-1.12-4.26-2.39-5.85-2.5-3.14-5.48-5.9-8.63-9.2ZM522.48,481.64c-5.34,1.41-7.03,4.63-4.5,8.67,3.21,5.13,7.39,9.39,13.34,11.74-4.93-5.98-9.22-12.19-8.84-20.42Z"/>
      <path class="cls-30" d="M533.96,410.42c8.07-2.18,14.43-6.79,17.44-14.59,1.49-3.86,1.02-8.48,1.44-12.76,1.85,8.81,3.71,17.62,5.56,26.43-.61.89-1.66,1.73-1.76,2.68-.82,7.9-1.06,15.89-2.27,23.72-1.91,12.3.29,23.49,6.66,34.16,3.32,5.57,5.73,11.69,8.6,17.54.41.83,1.02,1.56,2.12,3.2v-8.85c3.83,6.36,3.86,11.47-.48,17.13-3.39-14.39-17.02-20.92-23.12-32.99,5.65-15.3-1.44-27.1-10.53-38.35-.88-1.08-1.79-2.14-2.68-3.21.31-2.85.91-5.72.81-8.55-.06-1.87-1.14-3.7-1.77-5.55Z"/>
      <path class="cls-30" d="M550.95,378.37c-6.29-2.83-12.58-5.66-18.87-8.49.93-7.84,1.86-15.68,2.79-23.52,4.12-.94,8.24-1.87,12.36-2.81-2.27,10.4,0,20.34,2.94,30.24.44,1.47.53,3.04.78,4.57Z"/>
      <path class="cls-48" d="M571.73,481.94v8.85c-1.1-1.64-1.71-2.37-2.12-3.2-2.86-5.85-5.27-11.97-8.6-17.54-6.37-10.68-8.56-21.87-6.66-34.16,1.22-7.84,1.45-15.82,2.27-23.72.1-.94,1.15-1.79,1.76-2.68.26,7.79,1.33,15.66.6,23.36-1.27,13.58-1.34,26.53,7.35,38.16,2.39,3.2,3.62,7.26,5.38,10.92Z"/>
      <path class="cls-35" d="M530.2,541.43c-2.25-.25-4.67-.06-6.7-.87-2.28-.9-2.7-.23-2.71,1.74-1.19-4.23-2.37-8.45-3.56-12.68.6-.25,1.2-.5,1.8-.75.86,1.58,1.61,3.23,2.62,4.71.72,1.06,1.79,1.89,2.71,2.83.92-1.15,2.46-2.2,2.66-3.47,1.12-6.98-.89-12.93-6.5-17.53-1.91-1.56-3.57-3.43-5.34-5.15,5.02,1.28,10.04,2.57,15.06,3.85-.11,1.42-.5,2.88-.26,4.24.84,4.81,2.4,9.56,2.68,14.39.17,2.84-1.57,5.79-2.44,8.68Z"/>
      <path class="cls-21" d="M294.64,281.38l13.22-6.74c-.84,1.66-1.85,3.26-2.46,5-.41,1.16-.25,2.51-.35,3.78,1.14-.21,2.31-.32,3.42-.64,5.22-1.46,10.38-3.98,15.66-4.24,7.92-.39,15.95.56,23.89,1.34,8.55.85,17.07,2.11,25.58,3.3,3.37.47,4.94-.62,5.09-4.2.24-5.93-1.31-8.88-7.79-10.28-7.13-1.55-14.46-2.44-21.75-2.84-7.45-.41-14.95.11-22.44.22,1.08-1.49,1.94-3.21,3.27-4.43,17.71-16.28,32.9-34.75,47.14-54.06,6.12-8.3,12.42-16.48,18.61-24.73.93-1.24,1.69-2.61,2.44-3.79,8.38,5.17,13.17,11.82,18.16,18.49,12.09,16.16,24.48,32.1,37.1,47.84,5.64,7.04,12.13,13.41,17.94,19.77-4.88,0-11.05-.09-17.22.04-2.61.06-5.21.59-7.81.91-6.27,1.05-12.62,1.75-18.77,3.26-4.37,1.08-6.48,4.28-6.06,9.22.31,3.69,1.62,5.07,5.27,4.55,8.5-1.2,17-2.47,25.54-3.32,7.93-.79,15.96-1.83,23.85-1.32,6.34.41,12.54,2.97,19.73,4.82-.53-1.8-1.12-3.78-1.7-5.77,5.78,2.38,11.62,4.65,17.3,7.24,1.16.53,2.53,2.31,2.5,3.47-.43,15.64-1.07,31.28-1.72,46.91-.04.89-.6,1.76-.92,2.65-2.85.54-6.24.28-8.46,1.77-11.89,7.98-20.56,18.96-27.41,31.4-8.6,15.62-11.46,32.9-13.92,50.23-.27,1.91,1.1,4.05,1.7,6.08-38.59,32.14-87.57,32.16-126.2,0,.61-2.03,2.02-4.21,1.69-6.08-1.96-10.88-3.9-21.8-6.67-32.49-4.1-15.78-12.86-29.17-24.17-40.61-5.03-5.09-10.14-11.51-18.95-10.3-.9-3.62-2.46-7.22-2.57-10.87-.36-12.18-.29-24.37-.12-36.55.02-1.55,1.32-3.34,2.51-4.54,1.72-1.74,3.89-3.04,5.87-4.53ZM451.05,305.13c.36.29.73.58,1.09.87-5.03.45-10.06.91-15.09,1.36.02.45.04.89.05,1.34h28.98c5.64.78,11.29,2.15,16.92,2.09,2.93-.03,6.21-2.09,8.67-4.06,5.1-4.08,4.89-8.97,0-13.21-6.37-3.16-12.44-7.81-19.17-9.13-10.52-2.07-21.23.18-31.43,3.74-1.17.41-2.06,1.62-3.07,2.46-3.48,1.94-5.66,10.96-3.27,13.96.51.64,1.59,1.19,2.39,1.18,4.65-.1,9.29-.38,13.94-.6ZM349.27,305.11c4.64.22,9.28.51,13.93.61.8.02,1.88-.54,2.39-1.18,2.38-2.99.2-12.01-3.28-13.95-1.17-.87-2.22-2.18-3.53-2.54-5.12-1.42-10.27-2.95-15.52-3.68-12.74-1.77-24.68.06-34.62,9.16-4.02,3.51-4.81,6.5-2.63,9.99,5.14,8.23,20.24,11.01,28.23,5.19h29.22c-.01-.47-.02-.93-.04-1.4-5.08-.44-10.16-.88-15.23-1.32.36-.29.72-.59,1.08-.88ZM418.03,398.1c6.52-3.49,13.05-6.99,19.57-10.48l-.66-1.69c-2.2.63-4.39,1.27-6.59,1.9-3.17.68-6.33,1.44-9.53,2-3.87.68-7.77,1.6-11.66,1.64-3.45.04-7.32-2.25-10.29-1.3-7.19,2.31-13.82,2.16-20.72-.63-2.54-1.03-5.44-1.17-8.17-1.72-2.26-.56-4.52-1.12-6.78-1.69-.15.51-.3,1.02-.46,1.52,6.51,3.49,13.02,6.97,19.53,10.46,8.59,5.9,27.25,5.89,35.76-.02ZM413.52,363.34c-1.49-5.62-2.22-11.6-4.68-16.76-2.66-5.59-10.68-6.79-14.99-2.66-5.7,5.44-7.66,12.52-6.88,20.34,1.46.41,2.92,1.15,4.4,1.19,5.85.13,11.72-.31,17.53.18,2.48.21,3.9.19,4.63-2.28ZM393.83,408.02c.16.47.32.95.48,1.42h11.93c-1.33-6.57-6.05-2.75-8.9-4-.66-.29-2.32,1.66-3.51,2.58Z"/>
      <path class="cls-21" d="M455.65,502.78c-11.12,8.56-21.9,17.62-33.45,25.57-15.54,10.68-31.61,9.03-46.56-1.32-10.76-7.45-20.68-16.12-30.97-24.25,6.1-10.23,11.58-20.69,12.18-32.95.52-1.37,1.05-2.73,1.4-3.65,3.87.3,7.34,1.14,10.66.72,8.96-1.13,17.94-2.4,26.72-4.42,4.88-1.12,9.39-3.83,14.06-5.82,10.97-2.28,21.94-4.55,32.94-6.83.5,8.11-.19,17.76,1.99,26.71,2.21,9.1,7.23,17.52,11.02,26.24ZM409.15,483.25h-18.13c.29,5.07,4.58,5.49,8.29,5.94,5.35.65,8.8-1.76,9.84-5.94Z"/>
      <path class="cls-10" d="M288.95,337.87c8.81-1.21,13.92,5.21,18.95,10.3,11.31,11.45,20.07,24.83,24.17,40.61,2.77,10.69,4.71,21.61,6.67,32.49.34,1.86-1.08,4.04-1.69,6.08-14.91-10.59-26.05-23.48-30.86-41.97-3.72-14.28-10.09-27.86-15.27-41.75-.71-1.9-1.32-3.83-1.97-5.75Z"/>
      <path class="cls-10" d="M463.26,427.35c-.61-2.03-1.98-4.17-1.7-6.08,2.47-17.33,5.32-34.61,13.92-50.23,6.85-12.44,15.51-23.42,27.41-31.4,2.22-1.49,5.61-1.22,8.46-1.77-2.37,6.28-4.81,12.53-7.11,18.83-3.75,10.26-8.27,20.33-10.92,30.87-3.98,15.81-13.64,27.07-25.9,36.76-1.34,1.06-2.77,2.02-4.16,3.02Z"/>
      <path class="cls-30" d="M469.84,430.11c.12,1.2-.09,2.57.43,3.56,3.88,7.39,1.65,13.82-2.7,20.1-3.01,4.36-6.06,8.74-8.55,13.4-4.48,8.38-2.52,15.65,3.91,22.53,2.06,2.2,1.55,6.8,2.22,10.31-1.86-.34-3.72-.68-5.59-1.02-2.95-6.74-6.07-13.41-8.76-20.26-1.07-2.71-1.18-5.8-1.73-8.71.06-.75.12-1.51.18-2.26,1.76-2.53,3.59-5.01,5.27-7.6,2.18-3.36,4.76-6.59,6.23-10.25,1.48-3.71.89-7.59-2.96-10.13l-.27-.27c4.11-3.14,8.22-6.27,12.32-9.41Z"/>
      <path class="cls-20" d="M409.7,456.66c-4.68,1.99-9.19,4.7-14.06,5.82-8.79,2.01-17.77,3.28-26.72,4.42-3.32.42-6.79-.42-10.66-.72-.35.92-.88,2.29-1.4,3.65,0-7.08,0-14.17,0-21.77,17.71,6.82,34.8,10.77,52.85,8.6Z"/>
      <path class="cls-21" d="M531.98,292.6c5.75,2.46,7.1,6.82,6.79,12.87-.71,14.29-4.79,27.43-12.27,39.48-1.45,2.34-4.25,4.06-6.77,5.42-1.16.62-3.34.02-4.68-.71-.5-.27-.2-2.55.16-3.79,1.13-3.9,2.47-7.74,3.73-11.61,4.72.32,7.09-2.28,8.53-6.45,3.95-11.44,4.83-23.25,4.51-35.22Z"/>
      <path class="cls-21" d="M281.38,334.27c1.27,4.01,2.59,8,3.77,12.03.32,1.09.64,3.04.17,3.33-1.19.74-3.25,1.49-4.2.94-2.74-1.59-5.9-3.34-7.47-5.9-8-13.01-12.38-27.18-12-42.61,1.76-2.66,3.51-5.31,5.27-7.97.3.19.6.39.91.58.43,4.36.87,8.72,1.3,13.08,1.26,6.7,2.35,13.44,3.83,20.09.95,4.29,3.75,6.74,8.43,6.43Z"/>
      <path class="cls-22" d="M531.98,292.6c.32,11.97-.56,23.78-4.51,35.22-1.44,4.18-3.81,6.78-8.53,6.45.37-7.59.89-15.17,1.07-22.77.15-6.58-.12-13.17-.14-19.76,0-2.69,1.51-3.18,3.77-2.32,2.78,1.06,5.56,2.12,8.35,3.18Z"/>
      <path class="cls-20" d="M281.38,334.27c-4.68.31-7.48-2.14-8.43-6.43-1.47-6.65-2.57-13.39-3.83-20.09.01-.31.09-.64.03-.94-1.77-9.49,1.21-15.97,11.33-17.94-.31,11.17-.81,22.33-.84,33.5,0,3.97,1.12,7.94,1.73,11.91Z"/>
      <path class="cls-2" d="M506.68,368.02c2.17,1.73,4.11,3.99,6.56,5.05,3.8,1.65,4.83,4.12,4.81,8.04-.04,8.12-2.93,14.54-9.79,19.22-2.31-3.44-4.57-6.81-7.07-10.52-1.22,2.76-2.04,4.63-2.87,6.51,2.79-9.43,5.57-18.87,8.36-28.3Z"/>
      <path class="cls-35" d="M267.23,344.47c-1.44-.6-2.83-1.42-4.33-1.78-8.82-2.07-13.41-7.61-13.49-16.64-.07-8.16-.07-16.35,4.14-23.75.99-1.74,2.36-3.27,3.55-4.9-.76,14.15,1.46,27.73,7.73,40.54.89,1.82,1.66,3.71,2.48,5.57-.03.32-.06.65-.09.97Z"/>
      <path class="cls-30" d="M543.29,297.38c8.61,10.16,8.76,22.13,6.57,34.2-1.14,6.31-5.73,10.22-12.46,11.15-1.49.21-2.88,1.16-4.32,1.77-.03-.33-.06-.66-.08-.99,7.44-14.48,11.33-29.75,10.29-46.12Z"/>
      <path class="cls-30" d="M487.78,423.62c-.5-2.16-1-4.33-1.5-6.49-.43.03-.87.06-1.3.09.26,2.76.21,5.59.88,8.25.56,2.22,1.66,4.46,3.06,6.29,4.61,6.03,3.65,13.93-6.15,18.75.79-10.1-6.92-14.7-12.94-20.39,5.4-4.98,10.8-9.95,16.19-14.93.59,2.81,1.18,5.63,1.77,8.44Z"/>
      <path class="cls-15" d="M487.78,423.62c-.59-2.81-1.18-5.63-1.77-8.44,6.06-4.64,9.8-10.83,12.09-18,1.43-.15,2.87-.3,4.54-.47,5.14,6.98,4.51,10.25-3.39,15.16-6.16,3.83-7.94,6.17-10.48,14.05-.42-.99-.7-1.64-.98-2.29Z"/>
      <path class="cls-2" d="M522.73,354.98c-2.25,6.65-1.39,12.64,3.7,18.16-5.94-.06-11.26-1.65-15.87-5.48-1.05-.88-2.11-1.75-3.16-2.63.51-1.13,1.13-2.22,1.52-3.38,1.49-4.5,3.22-8.33,9.29-6.03,1.25.47,3.01-.39,4.53-.63Z"/>
      <path class="cls-2" d="M533,343.5c.03.33.06.66.08.99.6.63,1.19,1.25,1.79,1.88-.93,7.84-1.86,15.68-2.79,23.52-4.92-3.14-6.75-7.75-6.54-13.42.03-.84-.62-1.71-.96-2.56,2.8-3.47,5.61-6.94,8.41-10.41Z"/>
      <path class="cls-24" d="M351.26,470.08c-.06-.77-.12-1.54-.18-2.3-.28-2.9.46-6.58-1.04-8.54-4.11-5.39-7.3-10.77-6.7-17.8.04-.52-.52-1.1-.81-1.65,0,0,.27-.27.27-.27,5.88,2.02,9.5,5.56,9.03,12.37-.42,6.05-.4,12.13-.57,18.19Z"/>
      <path class="cls-24" d="M449.25,467.76c-.06.75-.12,1.5-.18,2.26.03-8.07-.58-16.23.47-24.17.32-2.42,5.19-4.24,7.98-6.33,0,0,.27.27.27.27-.36,1.79-.58,3.62-1.11,5.36-.97,3.19-1.43,6.85-3.35,9.35-3.13,4.09-4.9,8.16-4.07,13.27Z"/>
      <path class="cls-43" d="M280.48,288.87c-10.12,1.97-13.1,8.45-11.33,17.94.06.3-.02.63-.03.94-.43-4.36-.87-8.72-1.3-13.08-.3-.19-.6-.39-.91-.58-1.76,2.66-3.51,5.31-5.27,7.97.32-2.78.64-5.56.96-8.34,5.64-2.25,11.28-4.5,16.93-6.75.32.64.64,1.27.95,1.91Z"/>
      <path class="cls-14" d="M393.46,539.13c-9.63,9.32-13.83,17.14-16.4,30.93-1.6-.39-3.24-.62-4.76-1.18-20.78-7.76-37.63-21.01-52.22-37.41-2.19-2.46-2.6-5.03-.5-7.62,4.89-6.03,9.82-12.01,14.86-17.91,2.43-2.85,4.7-2.45,7.49.15,11.25,10.48,22.79,20.66,36.83,27.36,4.72,2.26,9.78,3.81,14.69,5.69Z"/>
      <path class="cls-14" d="M406.07,539.36c.89-.54,1.77-1.08,2.66-1.61,10.34-1.37,18.8-6.99,26.91-12.78,8-5.72,15.37-12.35,22.74-18.91,2.83-2.52,5.04-3,7.49-.11,5.02,5.92,9.98,11.88,14.86,17.91,1.91,2.36,1.86,4.85-.23,7.24-14.81,16.9-32.11,30.29-53.37,38.14-.73.27-1.51.43-2.28.56-.45.08-.93.01-1.62.01-1.96-12.24-6.73-22.97-17.16-30.46Z"/>
      <path class="cls-50" d="M477.47,512.18c2.41-11.14,10.56-16,20.59-18.78.81,4.76-1.5,6.99-5.64,9.26-3.51,1.93-5.94,5.91-8.62,9.18-1.25,1.53-1.95,3.5-2.9,5.28-1.14-1.64-2.29-3.29-3.43-4.93Z"/>
      <path class="cls-5" d="M467.95,501.87c.33-1.31.75-2.6.97-3.92.2-1.17.19-2.38.31-4.14,5.23,3.84,4.09,9.35,5.19,14.04-2.16-1.99-4.32-3.98-6.48-5.97Z"/>
      <path class="cls-48" d="M342.53,439.79c.28.55.85,1.13.81,1.65-.59,7.03,2.6,12.41,6.7,17.8,1.5,1.97.76,5.65,1.04,8.54-3.69-5.51-7.65-10.86-10.98-16.58-2.45-4.2-1.18-8.55,2.44-11.41Z"/>
      <path class="cls-2" d="M489.03,278.2c-12.31-4.32-24.46-2.29-36.52-1.18-7.92.73-15.76,2.23-23.66,3.14-1.24.14-3.7-.92-3.75-1.56-.12-1.62.35-4.33,1.4-4.82,3.91-1.8,8.13-3.94,12.28-4.05,12.79-.34,25.61-.1,38.39.57,4.78.25,9.18,2.74,11.86,7.89Z"/>
      <path class="cls-13" d="M326.7,266.09c7.48-.11,14.98-.63,22.44-.22,7.29.4,14.62,1.29,21.75,2.84,6.49,1.41,8.03,4.36,7.79,10.28-.15,3.58-1.72,4.67-5.09,4.2-8.52-1.19-17.03-2.45-25.58-3.3-7.94-.79-15.96-1.74-23.89-1.34-5.28.26-10.44,2.78-15.66,4.24-1.11.31-2.28.43-3.42.64.1-1.27-.06-2.62.35-3.78.61-1.74,1.62-3.34,2.46-5,4.06-2.79,8.11-5.58,12.17-8.37,2.23-.06,4.45-.12,6.68-.18ZM311.8,277.16c6.19-.48,12.69-1.76,19.09-1.33,13.05.87,26.03,2.73,39.06,3.95,1.79.17,3.7-.95,5.55-1.47-1.03-1.87-1.73-4.06-3.18-5.5-1.1-1.09-3.12-1.33-4.78-1.75-13.41-3.45-27.08-2.06-40.62-1.58-5.96.21-11.93,2.45-15.12,7.68Z"/>
      <path class="cls-2" d="M516.96,475.42c-2.75,1.04-5.5,2.08-8.7,3.29.32-6.43-.7-12.55-4.39-17.99-.39-.57-.09-1.79.2-2.6,3.18-9.09,1.23-14.79-6.9-19.94-5.41-3.43-6.45-15.33-1.47-19.67,2.66-2.31,5.88-3.98,9.11-6.11,1.73,3.82,3.19,7.05,4.65,10.27,1.04,4.86,1.69,9.85,3.21,14.56,4.02,12.47,6.97,24.99,4.29,38.19Z"/>
      <path class="cls-2" d="M520.04,423.96c-7.52-1.83-13.22-12.33-10.08-19.3.86-1.91,3.18-3.37,5.12-4.54,4.82-2.9,10.19-5.03,14.61-8.41,3.49-2.67,5.88-6.76,8.82-10.17,1.18-1.37,2.49-3.59,3.83-3.66,3.18-.15,5.72,1.7,6.42,5.1,1.13,5.49.37,10.81-3.27,15.12-2.27,2.69-5.39,4.67-8.18,6.9-4.73,3.78-9.78,7.21-14.12,11.38-1.81,1.74-2.15,5.01-3.16,7.59Z"/>
      <path class="cls-2" d="M522.88,475.44c8.83-11.27,18.56-22.14,14.76-38.1,7.6,1.68,12.93,13.37,9.08,25.57-3.09,9.79-13.36,15.38-23.84,12.53Z"/>
      <path class="cls-30" d="M466.62,487.44c-6.52-4.09-8.98-10.18-6.28-16.14,2.17-4.78,5.04-9.31,8.08-13.61,3.85-5.45,6.44-11.24,6.42-18.34,5.17,5.23,4.71,6.57,2.7,12.48-1.43,4.2-.48,9.18-.73,13.81-.08,1.43-.12,3.46-1.01,4.14-5.65,4.33-8.91,9.85-9.18,17.66Z"/>
      <path class="cls-2" d="M483,474.63c-3.82-6.12-2.79-11.85-2.55-17.41.04-.95,1.41-1.88,2.23-2.76,3.57-3.84,7.48-7.43,10.64-11.58,1.7-2.24,2.65-2.61,4.75-.92,7.17,5.76,6.26,16.06-2.14,19.39-6.14,2.43-9.92,6.81-12.93,13.3Z"/>
      <path class="cls-30" d="M492.98,490.66c-5.46,3.82-10.4,7.29-14.71,10.3-2.68-3.57-5.16-6.97-7.75-10.29-1.99-2.54-.94-8.82,2.25-12.88,1.45-1.84,2.87-3.72,4.65-6.04,5.17,7.39,7.61,15.23,15.56,18.9Z"/>
      <path class="cls-2" d="M527.23,461.67c-3.52-11.05-6.93-21.79-10.43-32.78,4.14,1.62,8.89,2.57,12.44,5.16,2.39,1.75,3.99,5.72,4.35,8.87.8,7.11-2.56,13.12-6.36,18.75Z"/>
      <path class="cls-50" d="M513.49,483.1c1.22,13,9.75,20.15,20.28,25.68-8.34,3.17-17.26-.66-21.65-9.25-3.79-7.42-3.44-13.24,1.37-16.44Z"/>
      <path class="cls-2" d="M530.2,541.43c.88-2.9,2.61-5.85,2.44-8.68-.28-4.83-1.84-9.57-2.68-14.39-.24-1.36.16-2.82.26-4.24.77-.12,1.55-.18,2.3-.37,7.01-1.74,7.78-1.07,8,6.4.27,8.93-1.7,16.7-10.33,21.28Z"/>
      <path class="cls-30" d="M516.96,475.42c2.68-13.19-.27-25.71-4.29-38.19-1.52-4.71-2.16-9.7-3.21-14.56.84.89,2.1,1.63,2.47,2.68,3.22,9.2,6.33,18.45,9.39,27.7,2.73,8.25,2.38,15.94-4.36,22.36Z"/>
      <path class="cls-16" d="M519.83,393.12c.34-4.83.53-9.27,1.07-13.67.13-1.04,1.41-2.69,2.26-2.75,3.96-.29,7.95-.13,12.89-.13-3.65,8.28-9.22,13.04-16.23,16.55Z"/>
      <path class="cls-54" d="M487.98,470.09c3.15,3.3,6.13,6.06,8.63,9.2,1.27,1.59,2.08,3.81,2.39,5.85.37,2.47-1.65,4.47-3.67,3.27-3.46-2.05-6.9-4.71-9.23-7.92-2.48-3.42-.27-6.98,1.88-10.4Z"/>
      <path class="cls-47" d="M522.48,481.64c-.38,8.23,3.9,14.44,8.84,20.42-5.95-2.35-10.14-6.62-13.34-11.74-2.53-4.05-.84-7.26,4.5-8.67Z"/>
      <path class="cls-50" d="M533.96,410.42c.62,1.85,1.7,3.68,1.77,5.55.1,2.84-.51,5.7-.81,8.55-2.61-2.32-5.22-4.64-8.47-7.52,2.58-2.26,5.05-4.42,7.51-6.58Z"/>
      <path class="cls-3" d="M386.96,364.25c-.77-7.82,1.18-14.9,6.88-20.34,4.32-4.12,12.33-2.93,14.99,2.66,2.46,5.16,3.19,11.14,4.68,16.76-1.37-.89-2.71-2.47-4.12-2.54-6.09-.28-12.22-.34-18.3.04-1.44.09-2.76,2.22-4.13,3.41Z"/>
      <path class="cls-41" d="M438,290.59c1.02-.84,1.91-2.05,3.07-2.46,10.2-3.55,20.91-5.81,31.43-3.74,6.73,1.32,12.8,5.97,19.17,9.13-.7,6.63-6.64,13.58-12.14,14.1-4.47.42-8.96.72-13.44,1.08h-28.98c-.02-.45-.04-.89-.05-1.34,5.03-.45,10.06-.91,15.08-1.36,4.36.19,8.73.39,13.09.58,1.57-.27,3.14-.54,4.71-.81,5.8.58,11.28.21,14.66-5.5.5-.85.74-2.7.23-3.18-2.66-2.56-5.48-5.01-8.52-7.1-.79-.54-2.54.31-3.85.52-2.71-.53-5.43-1.06-8.14-1.58-2.89.06-5.79.12-8.68.19-3.42-.34-6.34.18-7.22,4.21.37-3.26-1.29-3.86-4.11-3.34-2.07.38-4.21.42-6.32.61Z"/>
      <path class="cls-41" d="M308.63,293.52c9.94-9.1,21.89-10.93,34.62-9.16,5.25.73,10.4,2.27,15.52,3.68,1.31.36,2.36,1.67,3.53,2.54-2.11-.19-4.24-.24-6.32-.61-2.8-.5-4.5.05-4.1,3.34-.74-4.27-3.75-4.64-7.22-4.2-2.89-.06-5.79-.12-8.68-.18-2.72.53-5.43,1.06-8.15,1.59-.26-.37-.49-1.02-.8-1.07-2.13-.3-11.99,6.53-12.18,8.53-.08.81.48,1.76.95,2.52,3.47,5.52,8.85,5.82,14.54,5.26,5.93.79,11.84,3,17.82.23,5.08.44,10.16.88,15.23,1.32.01.47.02.93.04,1.4-9.74,0-19.48,0-29.22,0-3.7-.31-7.4-.68-11.11-.93-7.58-.51-13.63-6.43-14.48-14.25Z"/>
      <path class="cls-9" d="M369.98,387.82c2.73.55,5.63.69,8.17,1.72,6.9,2.79,13.53,2.94,20.72.63,2.97-.95,6.84,1.33,10.29,1.3,3.89-.04,7.79-.96,11.66-1.64,3.19-.56,6.35-1.33,9.53-2-8.09,5.4-16.75,9.4-26.91,9.71.16.63.33,1.27.49,1.9,4.7-.45,9.4-.9,14.1-1.35-8.5,5.91-27.17,5.91-35.76.02,2.49.3,4.97.73,7.47.88,2.47.15,4.95.03,7.42.03.08-.55.17-1.1.25-1.65-10.4.1-19.17-4.09-27.43-9.56Z"/>
      <path class="cls-37" d="M351.89,293.32c-.4-3.29,1.3-3.84,4.1-3.34,2.08.37,4.21.42,6.32.61,3.48,1.94,5.66,10.96,3.28,13.95-.51.64-1.58,1.2-2.39,1.18-4.65-.1-9.29-.39-13.93-.61.87-3.93,1.75-7.86,2.62-11.79Z"/>
      <path class="cls-37" d="M438,290.59c2.11-.19,4.25-.23,6.32-.61,2.82-.52,4.48.08,4.11,3.35.88,3.94,1.75,7.87,2.63,11.8-4.65.22-9.29.5-13.94.6-.8.02-1.88-.54-2.39-1.18-2.39-3-.21-12.01,3.27-13.96Z"/>
      <path class="cls-45" d="M351.89,293.32c-.87,3.93-1.75,7.86-2.62,11.79-.36.29-.72.59-1.09.88-5.98,2.78-11.89.56-17.82-.23-.83-3.43-1.66-6.86-2.49-10.3,0,0,.3,0,.3,0,2.09.68,4.17,1.36,6.26,2.04.27,3.06,1.37,5.84,4.81,5.83,3.58-.01,5.72-2.64,6.06-6.02.27-2.68-.39-5.46-.64-8.2,3.48-.44,6.48-.07,7.22,4.2Z"/>
      <path class="cls-45" d="M451.05,305.13c-.88-3.93-1.75-7.86-2.63-11.8.88-4.03,3.8-4.55,7.22-4.21-.03,3.45-.77,7.12.18,10.27.53,1.75,3.9,3.7,5.97,3.68,2.8-.03,4.41-2.54,3.51-5.75,1.84.08,3.68.16,5.51.24-1.86,3.01-3.73,6.02-5.59,9.03-4.37-.19-8.73-.39-13.09-.58-.36-.29-.73-.58-1.09-.87Z"/>
      <path class="cls-22" d="M466.09,308.7c4.48-.35,8.97-.66,13.44-1.08,5.5-.52,11.44-7.47,12.14-14.1,4.9,4.24,5.11,9.13,0,13.21-2.46,1.97-5.74,4.03-8.67,4.06-5.63.05-11.28-1.32-16.92-2.09Z"/>
      <path class="cls-22" d="M308.63,293.52c.86,7.82,6.9,13.73,14.48,14.25,3.71.25,7.41.62,11.11.93-7.99,5.82-23.09,3.04-28.23-5.19-2.18-3.49-1.39-6.48,2.63-9.99Z"/>
      <path class="cls-32" d="M386.96,364.25c1.37-1.19,2.69-3.32,4.13-3.41,6.08-.38,12.21-.32,18.3-.04,1.41.07,2.75,1.65,4.12,2.54-.73,2.47-2.15,2.49-4.63,2.28-5.81-.49-11.69-.06-17.53-.18-1.47-.03-2.93-.77-4.4-1.19Z"/>
      <path class="cls-27" d="M369.98,387.82c8.27,5.47,17.03,9.66,27.43,9.56-.08.55-.17,1.1-.25,1.65-2.47,0-4.96.12-7.42-.03-2.5-.15-4.98-.58-7.47-.88-6.51-3.49-13.02-6.97-19.53-10.46.15-.51.3-1.02.46-1.52,2.26.56,4.52,1.12,6.78,1.69Z"/>
      <path class="cls-28" d="M418.03,398.1c-4.7.45-9.4.9-14.1,1.35-.16-.63-.33-1.27-.49-1.9,10.16-.31,18.82-4.32,26.91-9.71,2.2-.63,4.39-1.27,6.59-1.9l.66,1.69c-6.52,3.49-13.05,6.99-19.57,10.48Z"/>
      <path class="cls-25" d="M393.83,408.02c1.2-.92,2.85-2.87,3.51-2.58,2.85,1.25,7.57-2.57,8.9,4h-11.93c-.16-.47-.32-.95-.48-1.42Z"/>
      <path class="cls-34" d="M409.15,483.25c-1.04,4.18-4.49,6.59-9.84,5.94-3.71-.45-8-.88-8.29-5.94h18.13Z"/>
      <path class="cls-31" d="M449.25,467.76c-.83-5.1.94-9.18,4.07-13.27,1.92-2.51,2.38-6.17,3.35-9.35.53-1.74.75-3.57,1.11-5.36,3.85,2.54,4.44,6.42,2.96,10.13-1.47,3.66-4.04,6.9-6.23,10.25-1.68,2.58-3.51,5.07-5.27,7.6Z"/>
      <path class="cls-2" d="M311.8,277.16c3.19-5.23,9.16-7.47,15.12-7.68,13.54-.49,27.21-1.87,40.62,1.58,1.66.43,3.68.67,4.78,1.75,1.45,1.44,2.16,3.63,3.18,5.5-1.85.52-3.76,1.64-5.55,1.47-13.03-1.23-26.01-3.09-39.06-3.95-6.39-.42-12.89.85-19.09,1.33Z"/>
      <path class="cls-42" d="M472.46,290.51c1.31-.21,3.07-1.07,3.85-.52,3.03,2.09,5.86,4.54,8.52,7.1.51.49.28,2.33-.23,3.18-3.37,5.71-8.86,6.08-14.66,5.5.62-2.84,1.23-5.68,1.85-8.51.3-.77.61-1.54.91-2.31-.08-1.48-.16-2.96-.25-4.44Z"/>
      <path class="cls-17" d="M465.31,297.32c.9,3.21-.71,5.73-3.51,5.75-2.07.02-5.44-1.93-5.97-3.68-.96-3.15-.21-6.82-.18-10.27,2.89-.06,5.78-.12,8.67-.18.28,1.77.56,3.54.85,5.32.05,1.02.1,2.04.15,3.07Z"/>
      <path class="cls-33" d="M465.17,294.25c-.28-1.77-.56-3.55-.85-5.32,2.71.53,5.43,1.06,8.14,1.59.08,1.48.16,2.95.25,4.43-2.51-.23-5.03-.47-7.54-.7Z"/>
      <path class="cls-33" d="M471.79,297.26c-.62,2.84-1.23,5.68-1.85,8.51-1.57.27-3.14.54-4.71.81,1.86-3.01,3.73-6.02,5.59-9.03.32-.1.64-.19.97-.29Z"/>
      <path class="cls-36" d="M327.87,295.47c.83,3.43,1.66,6.86,2.49,10.3-5.69.56-11.07.26-14.54-5.26-.48-.76-1.03-1.71-.95-2.52.19-2.01,10.05-8.84,12.18-8.53.31.04.53.7.8,1.07,0,1.65.02,3.3.03,4.94Z"/>
      <path class="cls-17" d="M344.67,289.12c.25,2.74.91,5.51.64,8.2-.34,3.37-2.49,6-6.06,6.02-3.44.01-4.55-2.77-4.81-5.83.24-1.08.48-2.15.72-3.23.28-1.78.56-3.56.84-5.34,2.89.06,5.79.12,8.68.18Z"/>
      <path class="cls-11" d="M335.99,288.93c-.28,1.78-.56,3.56-.83,5.34-2.33.4-4.66.79-6.98,1.19,0,0-.3,0-.3,0,0-1.65-.02-3.29-.03-4.94,2.72-.53,5.43-1.06,8.15-1.59Z"/>
      <path class="cls-52" d="M328.17,295.46c2.33-.4,4.66-.79,6.98-1.19-.24,1.08-.48,2.15-.72,3.23-2.09-.68-4.17-1.36-6.26-2.04Z"/>
      <path class="cls-38" d="M471.79,297.26c-.32.1-.64.19-.97.29-1.84-.08-3.68-.16-5.51-.24-.05-1.02-.1-2.04-.15-3.07,2.51.23,5.03.47,7.54.7-.3.77-.61,1.54-.91,2.31Z"/>
    </g>
  </g>
</svg>