<?xml version="1.0" encoding="UTF-8"?>
<svg xmlns="http://www.w3.org/2000/svg" version="1.1" viewBox="0 0 800 800">
  <defs>
    <style>
      .cls-1 {
        fill: #41bbc8;
      }

      .cls-2 {
        fill: #dcdbdb;
      }

      .cls-3 {
        fill: #aeadae;
      }

      .cls-4 {
        fill: #f9f9f9;
      }

      .cls-5 {
        fill: #dadad9;
      }

      .cls-6 {
        fill: none;
        stroke: #646363;
        stroke-miterlimit: 10;
        stroke-width: 6px;
      }

      .cls-7 {
        fill: #dbdbdb;
      }

      .cls-8 {
        fill: #acabab;
      }

      .cls-9 {
        fill: #b0afb0;
      }

      .cls-10 {
        fill: #ddd;
      }

      .cls-11 {
        fill: #abaaaa;
      }

      .cls-12 {
        fill: #ababab;
      }

      .cls-13 {
        fill: #fdfcfd;
      }

      .cls-14 {
        fill: #dadada;
      }

      .cls-15 {
        fill: #dbdada;
      }

      .cls-16 {
        fill: #fdfdfd;
      }
    </style>
  </defs>
  <!-- Generator: Adobe Illustrator 28.6.0, SVG Export Plug-In . SVG Version: 1.2.0 Build 709)  -->
  <g>
    <g id="Warstwa_1">
      <g id="Warstwa_1-2" data-name="Warstwa_1">
        <path class="cls-1" d="M355.36,164.13c1.83,1.68,4.03,3.1,5.4,5.09,2.86,4.16,4.08,8.77,1.12,14.22,5.91,4.53,11.69,8.97,16.7,12.81,3.32,0,5.91-.55,8.13.14,3.02.93,5,5.39,3.6,8.86-1.04,2.57-.61,4.59.34,6.61,4.13,8.73,8.44,17.37,12.32,25.31,4.2,1.21,7.5,2.16,11.15,3.22,4.9-3.18,9.97-6.67,15.25-9.84,2.64-1.58,4.22-3.21,4.9-6.55,1.25-6.15,7.67-7.75,12.1-3.42.78.76,1.74,2.03,1.61,2.91-.99,6.66,3.96,10.25,7.56,14.24,6.15,6.82,12.87,13.12,18.59,18.88,4.25.54,7.67.6,10.82,1.55,1.56.46,3.15,2.35,3.82,3.98,2.13,5.13.11,9.27-6.42,14.03v51.66c1.16.43,2.37.89,3.79,1.42,3.53-3.02,7.26-6.09,10.82-9.31,5.92-5.35,11.8-10.74,17.55-16.26,1.02-.97,1.45-2.64,1.98-4.04,1.22-3.29,3.56-5.19,7.01-5.09,3.18.09,5.38,1.96,6.43,5.04,1.09,3.2.13,5.71-2.51,7.69-.91.69-1.84,1.36-2.72,2.02-2,21.59-8,41.86-22.2,63.2,4.16,6.2,4.43,13.22.69,17.72-4.85,5.84-9.99,6.79-18.32,3.31-19.49,18.59-42.79,29.87-69,34.97-4.18,13.84-8.92,17.79-19.76,17.47-9.19-.27-13.67-4.09-17.93-16.4-38.89-5.09-70-23.84-93.46-55.89-4.55,1.19-9.35,1.34-12.22-3.29-2.97-4.81-2.12-9.66,2.18-13.85-5.78-12.22-10.23-24.86-11.78-38-1.53-13-.96-26.25-1.33-40.27-.38-.32-1.61-1.56-3.02-2.51-6.64-4.48-5.37-17.76,2.28-21.19,1.03-.46,2.16-1.25,3.15-1.13,4.36.54,6.39-1.2,8.01-5.41,7.14-18.59,18.72-34.39,33.63-47.34,9.25-8.03,19.97-14.37,30.8-22.01-1.46-6.23,3.02-10.63,8.38-14.56h10.56v.02ZM283.01,355.3l1.38.11c5.02-16.49,10.03-32.98,14.97-49.2-7.05-5.11-9.41-12.87-6.27-18.74,3.75-6.99,10.8-8.9,19.72-5.19,7.42-8.32,14.88-16.69,22.38-25.09-.14-3.8-2.64-4.36-5.64-3.71-4.11.88-8.16,2.1-12.26,3.05-10.83,2.5-21.66,5.03-32.53,7.32-2.41.51-2.96,1.74-3.56,3.82-1.07,3.69-2.13,7.9-5.85,9.66-4.19,1.99-3.5,5.05-3.03,8.32.62,4.36,1.38,8.71,2.03,13.07.94,6.27,1.82,12.55,2.76,18.81,1.02,6.83,2.06,13.67,3.12,20.49.9,5.76,1.86,11.51,2.79,17.26h0ZM347.43,191.22c-4.89-2.9-5.17-2.94-6.91-.93-6.95,8.05-13.78,16.21-20.84,24.15-7.99,9-16.19,17.8-24.29,26.7-3.79,4.16-7.63,8.27-11.3,12.54-1.75,2.03-3.15,4.38-4.65,6.49.63.56.81.82.91.8,16.63-3.71,33.25-7.46,49.88-11.14,2.53-.56,2.63-2.28,2.87-4.35.57-4.85,3.44-8.01,7.93-9.78,1.23-.48,2.4-1.09,3.92-1.78.84-14.41,1.66-28.69,2.48-42.69h0ZM401.5,324.39c-1.15.14-1.43.1-1.51.21-10.63,14.86-21.27,29.71-31.79,44.65-.78,1.11-.91,2.88-.87,4.33.12,4.12.5,8.23.88,13.91,5.67,7.42,12.44,16.26,19.18,25.08,3.02-.85,5.92-1.65,8.97-2.51.43-9.84.83-19.51,1.28-29.19.36-7.74.78-15.48,1.18-23.22,0-.2.04-.39.05-.59.87-10.77,1.74-21.55,2.64-32.67h0ZM433.27,346.75c-1.2,10.94-1.65,11.49-10.58,12.79-5.37,16.16-10.73,32.4-16.18,48.61-.88,2.63-1.28,4.84,2.55,6.27,5.32-5.87,10.62-11.81,16.02-17.66,10.15-11,20.35-21.96,30.55-32.91,5.96-6.41,11.97-12.77,18.07-19.28-1.05-1.47-2.02-2.83-2.83-3.97-12.52,2.04-24.83,4.05-37.6,6.14h0ZM411.83,417.95c.25.39.5.78.75,1.17,22.66-10.45,45.32-20.91,67.88-31.31-2.28-7.66-.83-13.82,7.07-18.25-3.73-7.5-2.99-16.61-9.45-24.02-4.97,5.59-9.27,10.6-13.74,15.44-10.56,11.44-21.18,22.81-31.82,34.19-6.65,7.11-13.36,14.18-20.01,21.29-.36.38-.46,1-.69,1.51v-.02ZM396.6,322.57c-.3-.34-.59-.69-.88-1.02-1.18.48-2.44.83-3.53,1.45-13.21,7.57-26.32,15.3-39.63,22.69-3.4,1.88-5.94,3.69-6.86,7.8-.85,3.74-3.82,5.34-7.82,5.64-4.62.34-7.56-2.36-10.63-4.87-12.13,3.26-24.04,6.47-37.11,9.99,20.78,3.8,40.2,7.36,59.96,10.97,2.22-6.44,8.07-5.74,13.18-5.7,11.33-15.96,22.33-31.45,33.33-46.94h0ZM319.37,293.03c7.54.77,14.39,1.47,21.25,2.16,7.15-14.76,15.63-17,29.71-11.27,4.23-4.76,8.58-9.67,13.09-14.76-9-4.49-17.74-8.86-26.41-13.19-5.61,5.59-11.7,6.87-18.27,3.32-6.63,7.27-12.87,14.4-19.46,21.19-2.57,2.64-3.36,4.97-1.59,8.2.72,1.32,1.1,2.82,1.68,4.33h0ZM438.61,231.66l-1.28-1.21c-7.38,4.62-14.77,9.24-22.09,13.82,0,1.47.02,2.44,0,3.4-.19,6.83-2.43,9.36-9.08,9.1-4.08-.16-7.18.87-9.63,4.11-1.84,2.43-3.85,4.73-6.12,7.47,13.22,6.92,26.01,13.63,38.45,20.14,4.06-.97,5.32-3.08,5.28-6.85-.05-5.59.53-11.2,1.12-16.77.57-5.35,1.68-10.63,2.22-15.98.58-5.73.77-11.49,1.13-17.25v.02ZM376.69,302.14c7.34,3.28,14.37,6.42,20.7,9.25,2.38-.67,4.14-1.48,5.95-1.58,1.84-.11,3.71.46,5.16.67,6.63-4.52,12.99-8.84,19.4-13.2.5-2.81.62-5.08-2.72-6.7-12.66-6.17-25.17-12.64-38.18-19.24-4.58,5.13-9.33,10.47-14.26,15.99,3.76,4.28,4.97,9.08,3.96,14.82h0ZM288.6,360.57c13.44-3.56,25.97-6.87,38.13-10.08,1.01-3.1,1.84-5.64,2.76-8.43-6.47-11.85-12.99-23.82-19.43-35.61-2.57.5-4.81.93-7.18,1.39-1.49,4.94-2.96,9.89-4.48,14.82-3.31,10.8-6.71,21.58-9.9,32.42-.45,1.53.04,3.34.11,5.5ZM381.16,419.47c1.39-2.11,2.29-3.48,3.05-4.62-7.11-9.26-14.02-18.27-20.83-27.16-7.93,1.61-11.06.35-13.69-6.36-1-2.55-2.58-3.09-4.68-3.48-12.64-2.34-25.29-4.71-37.95-6.95-5.51-.98-11.08-1.72-16.61-2.57-.06.28-.13.57-.19.85,30.17,16.7,60.33,33.39,90.9,50.31h0ZM484.43,345.93c2.18,7.58,4.24,14.76,6.32,21.99,2.94.78,5.82,1.55,8.77,2.33,1.45-2.57,2.66-4.99,4.14-7.24,9.96-15.16,14.24-32.28,17.2-49.84.46-2.71.11-5.39-3.29-6.53-9.3,8.23-18.59,16.45-28.22,24.98-.82,4.81,1.84,11.27-4.92,14.3h0ZM441.27,293.96c11.07,11.52,21.18,22.05,31.3,32.58.4.42.8.88,1.28,1.2,2.21,1.45,4.23.63,4.71-2.01.24-1.33.08-2.73.08-4.1,0-13.49,0-26.99,0-40.48,0-1.71-.14-3.43-.21-4.94-2.08-1.06-3.8-1.94-5.71-2.91-10.25,6.73-20.51,13.46-31.45,20.65h0ZM440.59,289.51c9.81-6.35,19.77-12.81,29.38-19.04.53-3.69.98-6.92,1.64-11.55-2.77-2.51-6.4-5.49-9.67-8.83-4.9-5-9.48-10.3-14.33-15.34-1.18-1.22-2.91-1.91-4.67-3.02-.72,4.33-1.5,7.72-1.82,11.14-.56,5.97-.69,11.99-1.27,17.96-.58,5.93-1.81,11.82-2.14,17.76-.2,3.63-1.82,7.97,2.88,10.91h0ZM439.89,298.15c-1.12,2.26-1.93,3.37-2.24,4.6-2.92,11.52-5.53,23.13-8.77,34.55-.93,3.27-.11,4.69,2.13,5.95,11.23-1.81,22.17-3.91,33.2-5.19,4.48-.52,6.57-2.25,7.24-6.68-10.18-10.72-20.48-21.58-31.55-33.25v.02ZM384.89,209.15c-2.21.96-4.6,1.26-5.77,2.62-7.66,8.93-15.06,18.09-22.46,27.07,1.11,2.56,2.15,4.94,3.16,7.27h36.65c1.22-2.41,2.42-4.78,3.48-6.88-4.97-9.93-9.73-19.44-15.06-30.08h0ZM339.61,340.08c3.58-8.43,7.16-16.86,10.83-25.51-6.41-3.12-8.45-8.83-9.75-15.61-7.39-.75-14.79-1.5-21.5-2.18-2.21,3.08-3.95,5.5-5.71,7.94,6.53,11.87,13.03,23.67,19.46,35.36h6.66ZM277.06,255.84c4.9-5.29,9.74-10.34,14.37-15.57,7.7-8.7,15.2-17.56,22.9-26.26,4.9-5.52,10.08-10.8,15.02-16.29,3.56-3.95,6.92-8.07,10.53-12.29-3.5-2.29-5.74.46-7.95,1.67-27.64,15.01-46.63,37.67-58.56,66.82,1.29.67,2.45,1.27,3.69,1.92h0ZM380.01,424.47c-.07-.44-.13-.88-.2-1.32-9.82-5.35-19.67-10.64-29.44-16.07-9.61-5.34-19.02-11.06-28.75-16.18-9.68-5.09-18.96-11.04-29.34-14.92.15,1.32.6,2.14,1.24,2.79,5.44,5.48,10.54,11.37,16.46,16.28,6.8,5.64,14,10.96,21.6,15.43,13.91,8.19,29.21,12.73,45.17,15.01,1.02.14,2.17-.66,3.26-1.02h0ZM348.73,233.93c4.52,2.33,5.35,2.02,8.52-1.88,5.72-7.04,11.48-14.05,17.47-20.86,4.62-5.25,4.27-10-1.45-14.11-4.68-3.36-9.29-6.82-13.55-9.96-3.12,1.37-6.03,2.66-8.71,3.83-.76,14.24-1.51,28.34-2.29,42.97h0ZM376.3,306.16c-6.31,8.81-8.56,9.88-22.68,10.92-3.02,7.11-5.99,14.37-9.17,21.53-1.07,2.41-1.41,4.41,1.41,6.47,16.66-9.5,33.49-19.09,51.37-29.27-7.69-3.54-14.12-6.5-20.94-9.65h0ZM418.79,358.43c-6.28-4.89-5.64-10.66-2.16-16.52-3.92-6.44-7.64-12.58-11.82-19.45-.46,11.32-.89,21.62-1.31,31.91-.02.39,0,.78-.02,1.17-.78,11.01-1.53,22.01-2.35,33.02-.3,4.04-.85,8.07-1.07,12.11-.18,3.11-.04,6.24-.04,9.36.48.06.96.11,1.45.18,5.71-17.05,11.41-34.12,17.32-51.77h0ZM424.2,340.58c3.4-13.51,6.66-26.45,10.02-39.81-1.36-.18-2.54-.72-3.15-.34-6.82,4.27-13.57,8.69-19.58,12.59-2.48,6.25-1.96,11.09,2,15.74,3.31,3.89,3.72,10.42,10.72,11.81ZM386.46,266.8c3.24-3.85,6.19-7.16,8.9-10.65.97-1.26,1.4-2.93,2.09-4.42-1.7-.63-3.38-1.77-5.09-1.81-10.11-.17-20.22-.1-30.34-.05-1,0-1.99.43-2.99.66-.11.42-.21.85-.31,1.26,9.01,4.87,18.03,9.75,27.75,15.01h0ZM278.85,354.89c-3.47-24.28-6.94-48.55-10.43-72.83-.08-.55-.37-1.07-.6-1.59-.08-.17-.25-.3-.41-.4-.16-.1-.36-.17-.55-.19-.13-.02-.27.08-.4.11-4.08,26.31.66,51.17,12.39,74.9h0ZM414,422.85c.23.63.46,1.26.69,1.89,23.46-4.23,44.29-13.99,62.35-29.58l-.6-1.27c-20.81,9.66-41.62,19.32-62.43,28.97Z"/>
        <path class="cls-7" d="M92.36,501.1c1.11-2.2,2.29-4.38,3.34-6.61,4.44-9.45,12.63-13.25,22.27-13.12,8.65.11,16.31,3.62,20.79,11.78.97,1.77,1.36,3.85,2.22,6.4h-10.08c-7.5-9.03-16.42-10.53-23.17-3.89-6.98,6.87-4.77,17.93.33,22.5,5.61,5.03,17.89,4.21,22-3.92-2.76-.08-5.13-.21-7.5-.23-6.9-.06-7.14-.34-6.08-7.85h24.45c1.58,2.83.52,5.54-.37,8.3-3.14,9.81-9.77,15.81-19.95,17.07-10.92,1.36-19.38-3.08-24.97-12.6-1.33-2.27-2.19-4.82-3.28-7.24v-10.59Z"/>
        <path class="cls-2" d="M701.72,530.46h-10.18v-37.57h10.18v37.57Z"/>
        <path class="cls-12" d="M326,595.04c-1.86-1.29-3.89-2.39-5.55-3.91-4.24-3.89-5.18-10.16-2.48-14.92,2.74-4.82,8.78-7.14,14.76-5.64,4.86,1.21,8.42,5.89,8.54,11.23.14,6.09-2.92,10.28-8.74,12.13-.66.21-1.23.74-1.84,1.12h-4.7,0ZM335.59,582.32c-.05-4.17-2.88-7.24-6.67-7.21-3.77.02-6.57,3.13-6.59,7.31-.02,4.54,2.18,6.77,6.74,6.85,4.4.08,6.57-2.23,6.52-6.95Z"/>
        <path class="cls-8" d="M220.34,595.04c-2.79-2.27-7.31-3.09-6.89-8.08,4.53-4.15,6.94,5.39,11.48,1.35.84-2.3-.59-3.16-2.71-3.85-2.17-.72-4.52-1.39-6.29-2.74-3.37-2.58-3.19-6.82.02-9.54,5.3-4.47,13.15-1.48,14.45,5.67-2.08.66-3.94,1.2-5.61-1.11-1.83-2.53-3.79-2.16-6.06.94,2.02.79,3.68,1.51,5.39,2.11,3.36,1.18,6.75,2.22,6.88,6.76.13,4.55-2.32,6.74-6.44,7.65-.28.06-.46.56-.69.85h-3.52Z"/>
        <path class="cls-10" d="M701.72,489.36h-10.18v-10.56h10.18v10.56Z"/>
        <path class="cls-15" d="M418.76,507.49c.37,11.49-10.18,25.08-26.54,24.11-15.66-.93-25.02-11.61-24.79-25.43.24-14.58,11.46-25.22,26.75-24.87,13.12.3,25.15,10.32,24.59,26.2h0ZM392.55,521.1c10.38,1.09,15.61-7.32,15.64-14.69.02-7.79-6.61-14.3-14.2-14.79-8.81-.57-15.52,6.54-15.27,14.55.31,9.77,4.7,14.89,13.82,14.94h0Z"/>
        <path class="cls-7" d="M594.32,514.67c1.98-5.65,3.61-10.15,5.13-14.69q2.55-7.6,11.82-6.53c-2.83,12.44-7.4,24.21-11.24,36.03-7.89,2.06-8.5,1.7-11.2-4.99-1.57-3.88-3.46-7.63-5.62-12.36-3,6.64-5.58,12.35-8.17,18.09h-8.17c-4.01-11.97-8.1-24.16-12.35-36.87,2.31-.18,3.82-.21,5.32-.44,3.88-.62,5.71,1.39,6.77,4.81,1.6,5.18,3.34,10.31,5.27,16.19.94-1.3,1.82-2.16,2.27-3.18,1.95-4.43,3.68-8.97,5.71-13.37.59-1.26,2.09-3.16,2.88-3.02,1.36.24,2.99,1.58,3.64,2.89,2.66,5.37,5,10.91,7.94,17.47v-.02Z"/>
        <path class="cls-14" d="M207.06,528.74c-3.71.85-6.42,1.45-9.75,2.22v-50.61h8.74v14.92c6.88-2.7,13.08-3.72,19.29-1.05,3.9,1.68,6.73,4.52,8.66,8.34,4.51,8.97,2.02,18.75-3.38,23.61-6.01,5.41-14.7,8.45-23.56,2.56h0ZM206.23,512.01c-.38,5.39,2.51,9.8,10.07,10.16,4.71.22,9.77-5.01,9.87-9.75.14-6.09-3.92-10.11-10.25-10.16-5.93-.05-9.62,3.66-9.7,9.75h0Z"/>
        <path class="cls-7" d="M187.42,530.87c-3.92-.56-6.86-.99-11.24-1.62-10.08,3.78-19.84,2.41-24.98-4.43-6.22-8.27-5.71-17.69-.23-25.26,4.48-6.18,13.8-9.64,25.85-4.67,2.7-.76,4.78-1.61,6.92-1.88,2.32-.3,3.67,1.04,3.67,3.46.02,11.08,0,22.17,0,34.42l.02-.02ZM176.9,512.23c0-6.31-3.79-10.04-10.15-9.97-5.79.07-9.78,4.12-9.8,9.96-.02,4.98,5.23,10.12,10.18,10,5.9-.14,9.76-4.09,9.77-9.99h0Z"/>
        <path class="cls-14" d="M662.94,514.9v15.07h-10.13v-49.51h9.9v27.96c.3.11.59.21.89.31,2.02-2.99,4.04-5.97,6.06-8.96,5.08-7.53,5.15-7.55,15.9-6.31-4.17,6.16-8.1,11.96-12.11,17.87,4.33,6.15,8.53,12.12,13.45,19.12-3.17,0-5.21-.15-7.21.03-3.47.31-5.82-.76-7.64-3.98-2.35-4.16-5.33-7.96-8.04-11.91-.36.11-.72.21-1.08.31h.02Z"/>
        <path class="cls-7" d="M299.27,515.17c2.12,6.71,8.17,9.72,12.64,6.09,4.15-3.37,8.17-2.55,12.64-2.19.4,3.59-1.48,5.84-3.75,7.68-9.01,7.3-20.63,6.2-27.83-1.58-5.87-6.36-5.97-20.36,1.09-27.11,6.12-5.85,12.92-6.31,19.95-4.49,8,2.09,11.45,8.9,13.06,16.49.76,3.6-.56,4.99-4.38,5.07-5.86.11-11.72.03-17.58.03h-5.83ZM315.85,507.9c-1.86-5.16-4.14-6.91-8.81-6.79-3.66.08-5.75,1.93-7.53,6.79h16.34Z"/>
        <path class="cls-15" d="M550.82,515.17h-25.99c.8,6.3,6.49,8.86,12.2,6.04,3.97-1.96,8.18-2.63,12.63-2.01-.38,6.92-9.63,13.17-18.68,12.39-8.91-.78-19.36-8.36-17-23.41,1.54-9.79,8.65-17.12,23.41-15.26,9.34,1.17,15.14,10.47,13.44,22.26ZM524.9,507.84h15.56c-.62-4.53-2.75-6.47-7.11-6.74-4.87-.3-7.02,1.36-8.45,6.74Z"/>
        <path class="cls-14" d="M443.57,518.96h9.24c5.14,5.58,6.78,5.74,12.16.38-1.89-1.07-3.5-2.27-5.29-2.95-2.34-.88-4.84-1.33-7.26-2-4.02-1.1-7.08-3.32-7.8-7.66-.87-5.24.56-9.6,5.42-12.46,6.14-3.62,17.61-1.5,21.77,4.23,1.07,1.47,1.61,3.31,2.71,5.64-4.94.21-9,2.2-12.47-2.19-.84-1.05-3.7-.94-5.51-.62-1.11.19-1.97,1.77-3.84,3.61,3.4,1.04,5.52,1.72,7.66,2.32,1.49.42,3.02.68,4.5,1.1,4.08,1.17,7.98,3.07,8.93,7.46,1.07,4.93.02,9.39-4.46,12.96-8.82,7.03-23.26,2.08-25.75-9.82h0Z"/>
        <path class="cls-14" d="M644.53,504.58c-3.72-.5-7.85,1.83-11.08-2.61-.76-1.04-3.68-.94-5.49-.65-1.1.18-1.98,1.75-3.52,3.24,2.29,1.09,3.59,1.91,5,2.33,2.03.6,4.17.85,6.24,1.36,4.32,1.07,8.44,2.93,9.52,7.55,1.22,5.21-.14,9.83-4.89,13.35-8.85,6.56-22.83,1.46-25.29-9.94h9.41c4.94,5.32,6.54,5.48,11.95.16-1.88-1.09-3.48-2.29-5.28-2.97-2.34-.88-4.84-1.33-7.26-1.99-4.03-1.09-7.09-3.32-7.82-7.65-.88-5.23.53-9.6,5.39-12.48,6.14-3.63,17.6-1.55,21.78,4.2,1.07,1.47,1.63,3.31,2.42,4.99-.37.37-.72.73-1.09,1.1h0Z"/>
        <path class="cls-7" d="M509.66,493.39c-5.41,9.42-10.39,18.11-15.79,27.53h14.84v9.19h-30.86c5.51-9.53,10.58-18.3,16.06-27.79h-13.7v-8.93h29.46Z"/>
        <path class="cls-7" d="M436.34,530.25h-9.48c-1.29-4.08-1.71-39.98-.55-49.85h10.05c0,16.3.02,32.76-.02,49.85h0Z"/>
        <path class="cls-14" d="M253.22,530.15h-10.53v-7.56c0-8.02-.02-16.03,0-24.05,0-2.28-.55-4.97,2.8-5.53,3.15-.52,5.51.31,5.61,4.23,4.63-2.82,9.02-5.26,14.72-3.86.09,1.87.29,3.59.24,5.29-.11,4.15-.46,4.46-4.83,4.75-5.68.38-7.88,2.6-8,8.42-.11,6-.02,12.01-.02,18.32h0Z"/>
        <path class="cls-5" d="M343.15,530.3h-8.49v-49.95h8.49v49.95Z"/>
        <path class="cls-8" d="M535.88,571.03c-2.45,7.85-4.75,15.21-7.08,22.64h-4.87c-1.52-3.56-3.1-7.27-4.91-11.53-1.65,3.92-3.14,7.43-4.84,11.44-1.37.06-3.02.14-4.91.23-2.45-7.67-4.78-15.01-7.26-22.79,1.89-.24,3.34-.43,5.35-.7,1.54,4.69,3.02,9.22,4.73,14.4,2.16-4.97,4.08-9.37,6.21-14.27,4.68,3.5,4.26,9.51,7.75,13.99,1.1-3.47,2.11-6.44,2.99-9.45,1.32-4.48,1.29-4.49,6.83-3.96h0Z"/>
        <path class="cls-8" d="M576.96,593.66h-4.89c-1.52-3.56-3.1-7.27-4.91-11.53-1.65,3.91-3.14,7.42-4.84,11.43-1.37.07-3.02.14-4.9.24-2.45-7.67-4.78-15.01-7.26-22.78,1.88-.25,3.34-.44,5.34-.71,1.54,4.69,3.03,9.23,4.73,14.41,2.16-4.95,4.08-9.36,6.31-14.49,4.35,3.85,4.32,9.62,7.64,14.37,1.17-3.82,2.16-6.98,3.11-10.17,1.17-3.93,1.14-3.94,6.68-3.4-2.35,7.59-4.67,15.08-7.01,22.63h0Z"/>
        <path class="cls-8" d="M480.5,593.61c-1.61.1-2.93.18-4.79.29-1.52-3.46-3.08-6.96-5.23-11.84-1.49,3.58-2.74,6.06-3.53,8.67-1.01,3.31-2.99,3.7-6.28,2.45-2.27-7.1-4.62-14.43-7.14-22.27,2.29-.18,3.76-.3,5.55-.45,1.45,4.59,2.84,9,4.54,14.38,2.32-5.34,4.25-9.76,6.18-14.18.43-.05.85-.11,1.27-.17,1.94,4.24,3.89,8.49,6.38,13.91,1.4-4.24,2.67-7.37,3.45-10.61.83-3.43,2.76-3.75,6.35-2.69-2.28,7.6-4.49,14.96-6.74,22.49v.02Z"/>
        <path class="cls-2" d="M271.31,493.09h9.6v36.99h-9.6v-36.99Z"/>
        <path class="cls-12" d="M359.37,570.69c8.39-.98,7.81,8.76,13.76,11.06v-10.79c1.9-.19,3.35-.34,5.26-.53v23.35c-7.78.1-8.17-8.04-13.53-11.59v11.15c-2.13.23-3.59.38-5.51.59v-23.24h0Z"/>
        <path class="cls-11" d="M281.96,570.49c3.54,0,6.26-.14,8.96.02,7.93.47,11.06,6.82,6.67,13.39-.42.62-.84,1.25-1.31,1.96,1.33,2.51,2.57,4.87,4.07,7.7h-5.3c-2.96-1.84-2.22-7.31-7.43-6.66-.22,2.19-.43,4.27-.67,6.65h-5.23c.02-7.62-.28-15.1.24-23.06h0ZM293.93,580.78c-.15-5.23-.41-5.43-6.34-5.09v5.09h6.34Z"/>
        <path class="cls-9" d="M264.69,570.46c.09,1.93.15,3.24.24,4.91-1.79.37-3.43.69-5.71,1.16v16.92h-5.83v-16.77c-1.42-.26-2.49-.57-3.56-.62-2.09-.11-3.68-1.01-3.07-3.15.3-1.04,2.08-2.27,3.25-2.34,4.65-.27,9.33-.11,14.69-.11h0Z"/>
        <path class="cls-3" d="M416.73,571.13c-2.67,7.43-9.93,13.13-7.1,22.33h-6.24c2.3-8.89-4.01-14.88-7.14-22.29,7.28-2.49,6.66,5.13,10.21,7.23,3.5-1.97,2.84-9.72,10.26-7.27h.02Z"/>
        <path class="cls-1" d="M430.5,203.05c-.06,4.03-3.07,7.05-6.84,6.86-3.94-.19-7.1-3.18-7.23-6.83-.13-3.76,3.68-7.48,7.39-7.24,3.87.26,6.74,3.35,6.68,7.2h0Z"/>
        <path class="cls-1" d="M535.37,247.5c3.88-.11,7.59,2.86,7.79,6.22.2,3.39-3.77,7.84-6.99,7.85-3.8,0-6.98-3.08-7.04-6.83-.08-4.64,2.06-7.11,6.24-7.23h0Z"/>
        <path class="cls-10" d="M271.35,479.01h9.52v9.91h-9.52v-9.91Z"/>
        <path class="cls-1" d="M471.58,192.21c-.05,2.7-2.32,4.87-4.86,4.78-2.3-.09-4.58-2.35-4.45-4.4.13-2.02,3.28-5.31,4.9-4.71,2.02.75,4.68,1.3,4.41,4.33h0Z"/>
        <path class="cls-1" d="M484.42,216.22c7.26-.52,8.39.88,6.48,8.23-2.37-.66-5.31-.74-6.92-2.23-.94-.88.24-4.03.44-6Z"/>
        <path class="cls-1" d="M417.17,169.01c6.69-.08,8.28,2.06,5.71,7.8h-5.58c-2.5-2.33-2.54-4.84-.13-7.8Z"/>
        <path class="cls-16" d="M315.85,507.9h-16.34"/>
        <path class="cls-13" d="M540.46,507.84h-15.56"/>
        <path class="cls-4" d="M293.93,580.78h-6.34"/>
      </g>
      <path class="cls-6" d="M791.2,400.36c1.28,216.08-175.17,391.25-391.25,391.25S8.7,616.44,8.7,400.36,184.32-4.84,399.95,9.11c214.74,13.9,390.04,187.65,391.25,391.25Z"/>
    </g>
  </g>
</svg>