<?xml version="1.0" encoding="UTF-8"?>
<svg xmlns="http://www.w3.org/2000/svg" version="1.1" viewBox="0 0 966 269">
  <defs>
    <style>
      .cls-1 {
        fill: #aaa;
      }

      .cls-2 {
        fill: #dadada;
      }

      .cls-3 {
        fill: #a7a7a7;
      }

      .cls-4 {
        fill: #a9a9a9;
      }

      .cls-5 {
        fill: #aaa9a9;
      }

      .cls-6 {
        fill: #43bbc8;
      }

      .cls-7 {
        fill: #a8a8a8;
      }

      .cls-8 {
        fill: #dbdbdb;
      }

      .cls-9 {
        fill: #dbdada;
      }

      .cls-10 {
        fill: #a8a7a7;
      }
    </style>
  </defs>
  <!-- Generator: Adobe Illustrator 28.6.0, SVG Export Plug-In . SVG Version: 1.2.0 Build 709)  -->
  <g>
    <g id="Warstwa_1">
      <path class="cls-6" d="M261.74,129.22c-.72-2.56-2.82-4.11-6.01-4.15-3.32-.04-5.94,1.31-6.46,4.13-.52,2.83-2.18,4.34-3.91,6-3.82,3.63-7.71,7.18-11.67,10.64-3.7,3.23-7.56,6.26-11.29,9.46-1.49,1.28-3.08,2.49-4.69.74-.93-1.01-1.49-2.74-1.5-4.15-.11-13.72-.02-27.44-.11-41.17-.01-2.45.41-3.82,2.97-5.16,4.57-2.39,5.68-7.09,3.77-11.72-1.57-3.8-5.2-5.22-10.5-4.6-1.38.16-3.32-.55-4.31-1.55-7.55-7.62-15.01-15.33-22.29-23.21-1.05-1.13-1.3-3.24-1.42-4.93-.29-4.07-1.97-6.28-5.61-6.79-2.78-.39-6.7,1.82-6.77,5.11-.08,3.92-2.71,4.85-4.97,6.46-2.79,1.98-5.58,4.04-8.59,5.64-2.82,1.5-5.57,4.25-8.94,2.95-.25-.04-.5-.08-.75-.14-.2-.05-.41-.12-.61-.19-.25-.02-.49-.06-.74-.13-.66-.19-1.34-.26-2-.44-.32-.09-.63-.22-.91-.36-1.79-.21-2.87-1.44-3.76-3.36-3.57-7.71-7.39-15.31-10.97-23.02-.42-.91.19-2.26.15-3.41-.08-2.49.33-5.21-.54-7.41-1.13-2.85-4.33-3.27-6.83-2.3-2.04.79-3,.09-4.32-.94-4.25-3.32-8.45-6.7-12.86-9.8-1.53-1.08-1.76-1.76-1.2-3.53,1.44-4.54.48-8.85-2.71-12.36-1.59-1.75-3.81-2.93-5.75-4.37h-6.97c-1.46.97-3.03,1.81-4.37,2.93-2.87,2.38-5.19,5.11-4.59,9.23.36,2.46-.73,3.68-3.01,4.79-14.48,7.05-26.88,16.97-37.43,28.96-9.39,10.68-16.68,22.82-22.15,36-.3.73-1.05,1.69-1.72,2.1-.54.4-1.22.7-2.07.85-1.28.21-2.49.57-3.65,1.03-1.12.8-2.26,1.57-3.38,2.38-1.34,1.54-2.42,3.31-2.98,5.63-.64,2.65-.45,5.62.48,8.29.56.83,1.11,1.65,1.66,2.48,1.1,1.12,2.19,2.24,3.19,3.44.8.95,1.25,2.51,1.21,3.78-.1,3.42-.86,6.83-.8,10.23.17,8.54-.11,17.19,1.21,25.58,1.61,10.25,4.47,20.32,9.08,29.78,1.14,2.33,1.75,4.4-.23,7.1-2.23,3.03-1.85,6.95.06,10.28,2,3.48,5.54,4.11,9.08,3.47,2.17-.4,2.92.15,4.15,1.9,7.52,10.7,16.7,19.83,27.37,27.42,8.14,5.79,16.56,11.25,26.09,14.41,9.26,3.07,18.69,5.78,28.23,7.75,3.36.7,5.19,1.38,6.24,4.64,2.37,7.39,9.78,13.05,16.49,12.22,9.41-1.17,14.75-6.01,16.44-14.83.39-2.04.92-2.5,2.93-2.88,10.29-1.95,20.16-5.14,29.71-9.61,11.71-5.48,22.06-12.78,31.74-21.16,1.23-1.06,2.06-1.53,3.79-.82,5.13,2.11,10.22,1.52,14.14-2.41,4.23-4.23,4.67-10.39,1.44-15.83-1.21-2.04-.5-3,.39-4.74,4.53-8.85,9.36-17.62,12.93-26.86,3.21-8.3,5.18-17.11,5.65-26.15.12-2.34.36-4.87,3.14-6.09,3.27-1.44,3.3-4.57,2.56-7.18ZM213.13,109.16c.08,7.43.03,14.85.03,22.28,0,6.93.01,13.86,0,20.8,0,1.58.32,3.1-1.75,4.09-2.36,1.13-3.02-.76-4-1.77-9.24-9.42-18.33-18.97-27.61-28.34-2.1-2.12-.9-2.79.8-3.88,8.63-5.57,17.21-11.22,25.85-16.78,2.53-1.63,6.67.57,6.7,3.59ZM120.45,98.89c2.97,1.57,3.12,2.25.86,4.88-2.9,3.37-6.1,6.52-9.43,9.47-.75.67-2.74.53-3.88.08-8.01-3.17-15.77-1.22-20.7,4.84-1.01,1.24-2.36,2.73-2.4,4.14-.08,3.09-1.84,3-5.08,2.73-4.03-.52-9.22-1.11-14.38-1.87-3.9-.58-6.34-7.15-3.76-10.21,2.85-3.38,5.9-6.6,8.86-9.89,2.85-3.17,5.68-6.36,8.56-9.5,1.21-1.32,2.18-2.47,4.56-1.31,4.76,2.33,9.12.73,13.17-2.36.96-.73,2.84-1.25,3.81-.81,6.69,3.1,13.3,6.37,19.82,9.81ZM100.76,83.57c1.14-.36,2.27-1,3.41-1.02,4.79-.12,9.58-.05,14.37-.05,4.79,0,9.58-.01,14.37,0,1.59,0,3.67-.43,3.87,1.87.1,1.15-.59,2.61-1.37,3.56-2.48,3.03-5.08,5.99-7.84,8.76-.64.64-2.4.94-3.21.54-7.16-3.55-14.24-7.25-21.28-11.03-.96-.52-1.55-1.74-2.31-2.63ZM115.95,136.4c.26-.43,1.44-.76,1.93-.54,5.81,2.63,11.58,5.37,17.35,8.08.29.14.56.33,1.01.59-.49.47-.88,1-1.4,1.3-10.11,5.7-20.24,11.36-30.34,17.06-4.41,2.49-8.72,5.18-13.2,7.54-1.26.66-2.95.49-4.45.71-.06-1.51-.6-3.19-.11-4.49,2.54-6.69,5.27-13.32,8.15-19.87.39-.88,2.12-1.79,3.13-1.68,7.85.82,13.85-1.85,17.93-8.69ZM61.08,128.55c1.24-2.22,4-1.51,6.44-1.45,4.75.35,9.51.61,14.24,1.14.72.08,1.72,1.3,1.88,2.13.98,5,3.12,9.39,7.39,12.22,1.87,1.24.84,2.39.51,3.2-2.72,6.8-5.56,13.56-8.54,20.26-1.14,2.56-5.89,2.63-7.56,0-2.72-4.26-5.2-8.68-7.65-13.1-2.93-5.29-5.65-10.7-8.59-15.98-.95-1.7-1.45-3.19-.35-4.54.25-1.5,1-2.9,2.22-3.89ZM88.68,178.5c.44-1.38,1.21-3.08,2.35-3.74,13.97-8.12,28.04-16.08,42.1-24.06.69-.39,1.52-.55,2.28-.82.5-.2,1.01-.41,1.51-.61-.36.39-.73.78-1.09,1.17-2.6,4.11-5.04,8.32-7.82,12.3-7.09,10.14-14.32,20.18-21.53,30.23-1.13,1.58-2.04,2.75-4.78,1.93-3.23-.96-6.54.8-8.44,3.74-1.26,1.95-2.44,1.94-4.46,1.55-11.99-2.3-24.01-4.39-36.02-6.61-4.96-.91-9.89-1.96-14.83-2.94-.48-.1-.95-.22-1.42-.33.49-.25.95-.61,1.47-.75,8.47-2.3,16.95-4.57,25.43-6.85,1.26-.34,2.59-.5,3.75-1.03,2.54-1.16,4.41-.91,6.47,1.31,5.17,5.58,12.89,2.15,15.03-4.49ZM135.08,139.89c-4.91-2.22-9.74-4.61-14.66-6.8-2.01-.9-2.8-2.03-3-4.37-.26-3.16-.96-6.51-2.43-9.26-.99-1.86-.89-3.02.17-4.22,3.58-4.05,7.27-8.02,11.04-11.9.4-.41,1.82-.25,2.52.11,11.51,5.86,23.01,11.74,34.44,17.74,3.06,1.6,3.34,5.01.5,7.06-5.01,3.62-10.16,7.06-15.39,10.35-1.17.73-2.94.52-4.43.75-.01-.05-.02-.1-.04-.15-.54.1-1.08.18-1.62.24-.21.03-.42.07-.63.12-.58.13-1.16.15-1.72.1-.71.19-1.41.38-2.13.53-.83.17-1.87.06-2.64-.29ZM147.65,149.63c1.78-3.27.77-7.67,5.36-9.92,4.78-2.34,8.86-6.08,13.39-8.99,1.02-.65,2.62-.4,3.95-.56.09,1.12.46,2.3.22,3.35-2.37,10.12-4.8,20.22-7.32,30.3-.38,1.53-1.32,2.93-2.35,5.16-2.01-1.72-3.52-2.52-4.31-3.77-2.88-4.54-5.53-9.22-8.24-13.87-.32-.54-.88-1.36-.69-1.7ZM166.36,165.24c2.89-11.28,5.81-22.56,8.86-33.8.98-3.62,1.27-3.66,3.73-1.15,8.97,9.18,17.88,18.43,26.8,27.67.55.57.98,1.24,1.24,1.58.2,2.7-1.9,4.93-4.33,5.32-10.6,1.69-21.2,3.43-31.79,5.17-3.61.59-5.42-1.21-4.51-4.79ZM178.32,74.84c.21-2.42.65-4.83.97-7.24.36-2.77,1.93-2.45,3.32-1.03,2.76,2.8,5.19,5.92,7.93,8.74,4.49,4.63,9.05,9.2,13.72,13.65,1.98,1.89,2.72,3.82,1.96,6.48-.33,1.15.15,2.54-.22,3.66-.41,1.21-1.15,2.58-2.17,3.28-7.8,5.36-15.68,10.61-23.58,15.83-3.24,2.14-5.75.84-5.94-2.96-.02-.49,0-.99,0-1.95.93-7.62,1.98-15.69,2.86-23.77.53-4.88.71-9.79,1.15-14.67ZM142.03,89.09c7.2,1.99,13.45-3.31,11.84-10.76-.13-.58.61-1.62,1.22-2.03,4.75-3.17,9.53-6.32,14.41-9.3,1.58-.96,3.48-1.41,5.23-2.09.27,1.75.54,3.49.78,5.08-1.05,9.28-2.14,18.35-3.07,27.43-.52,5.05-.86,10.12-1.08,15.18-.24,5.43-2.96,7.14-7.89,4.63-10.52-5.34-21-10.76-31.53-16.09-1.85-.94-2.28-1.59-.54-3.27,2.47-2.38,4.58-5.13,6.88-7.7,1.01-1.13,1.86-1.61,3.76-1.08ZM119.22,46.67c2.42-2.93,5.79-2.73,7.47.64,4.01,8.03,7.9,16.12,11.73,24.23,1.2,2.55-1.95,6.92-4.95,6.97-4.97.08-9.94.02-14.91.02-4.8,0-9.61-.06-14.41.03-1.97.03-2.76-.64-3.96-2.44-2.35-3.5-1.3-5.21,1.2-7.99,6.23-6.9,11.9-14.29,17.82-21.46ZM91.11,64.3c.52-11.91,1.08-23.82,1.51-35.74.07-1.89,1.14-1.96,2.46-2.78,4.92-3.05,8.5-1.61,12.29,2,2.56,2.44,5.8,4.15,8.66,6.28,1.81,1.35,2.56,7.91,1.09,9.65-5.46,6.49-10.99,12.93-16.46,19.42-.94,1.11-1.59,2.5-2.64,3.49-1.39,1.31-2.13,3.34-5.2,2.31-3.08-1.04-1.69-3.02-1.72-4.63ZM82.87,27.17c1.24-1.41,1.83-2.65,4.26-1.66,2.12.86,2.81,1.83,2.56,3.87-.08.65-.01,1.32-.01,1.98-.09,0-.19,0-.28-.01-.57,11.44-1.1,22.88-1.81,34.32-.06,1-1.23,2.61-2.09,2.76-5.94,1.02-8.63,5.07-9.6,10.34-.48,2.62-1.42,3.35-3.96,3.9-14.46,3.13-28.86,6.58-43.28,9.89-.81.19-1.7.07-2.55.1.27-.89.31-1.97.86-2.63,3.75-4.54,7.52-9.07,11.45-13.45,6.57-7.34,13.3-14.53,19.89-21.85,8.23-9.14,16.43-18.3,24.55-27.53ZM20.71,83.88c3.99-9.53,9.12-18.36,15.19-26.68,9.49-13,21.18-23.59,35.02-31.83,2.8-1.67,5.69-3.21,8.6-4.69.57-.29,1.41-.04,2.82-.04-.97,1.58-1.38,2.46-1.97,3.18-3.22,3.91-6.39,7.87-9.76,11.65-6.45,7.23-13.09,14.29-19.53,21.52-8.82,9.91-17.5,19.94-26.32,29.85-.59.66-2.14,1.31-2.68,1-1.36-.78-2.31-1.72-1.38-3.95ZM24.52,181c-.32-.71-.61-1.43-.97-2.12-5.5-10.5-8.54-21.83-10.39-33.4-1.76-11.03-1.61-22.21-.11-33.32.07-.55.52-1.06.79-1.58.38.59,1,1.14,1.1,1.77,2.03,12.67,4.08,25.35,5.95,38.04,1.4,9.49,2.58,19.01,3.96,29.32-.02.08-.18.68-.35,1.28ZM30.89,180.28c-.13.42-.47.78-.72,1.17-.45-.38-1.19-.7-1.29-1.15-.71-3.32-1.42-6.65-1.9-10-1.75-12.08-3.32-24.18-5.13-36.25-1.11-7.38-2.58-14.71-3.72-22.08-.12-.8.58-2.17,1.3-2.6,4.28-2.55,7.65-5.5,7.71-11.08.01-.9,2.06-2.24,3.38-2.6,5.82-1.56,11.7-2.86,17.58-4.2,8.25-1.89,16.52-3.71,24.78-5.59,2.79-.64,5.97.87,5.69,3.01-.42.47-.97,1.07-1.5,1.7-1.69,2-3.31,4.06-5.07,5.99-4.1,4.5-8.29,8.92-12.4,13.42-1.69,1.85-3.27,2.5-6.05,1.73-8.35-2.33-16.12,2.98-16.39,11.43-.13,4.16,1.19,8.62,5.54,10.78,1.93.96,1.69,1.91,1.21,3.45-3.54,11.49-7.04,22.98-10.53,34.48-.85,2.8-1.63,5.61-2.49,8.41ZM33.98,181.87c3.51-11.47,7.1-22.92,10.64-34.38.72-2.32,1.58-4.63,1.99-7.01.57-3.27,2.06-4.78,5.58-4.54,1.47.1,2.49-.26,3.39,1.41,5.46,10.2,11.07,20.32,16.62,30.48.3.56.45,1.19.62,1.66-.82,2.66-1.27,5.29-2.48,7.52-.5.92-2.58,1.05-3.98,1.41-9.44,2.45-18.88,4.91-28.34,7.27-3.92.98-5.16-.21-4.05-3.84ZM116.9,248.05c-8.23-1.89-16.6-3.45-24.59-6.11-13.93-4.65-26.41-12.11-37.31-21.95-5.34-4.81-10.28-10.07-15.29-15.22-.97-1-1.46-2.47-2.17-3.73-.36-.39-.73-.78-1.09-1.17.51.2,1.01.41,1.52.61,9.62,5.18,19.27,10.3,28.84,15.55,7.16,3.93,14.17,8.11,21.32,12.06,10.01,5.53,20.09,10.93,30.09,16.47.69.38.97,1.49,1.44,2.25-.93.44-1.98,1.42-2.76,1.24ZM119.18,241.11c-7.49-4.03-14.95-8.11-22.39-12.23-7.57-4.19-15.09-8.49-22.65-12.69-12.43-6.9-24.89-13.74-37.32-20.66-.56-.31-.85-1.1-1.27-1.66.64-.02,1.31-.16,1.93-.04,12.16,2.23,24.31,4.49,36.46,6.74,5.28.98,10.57,1.93,15.83,3.03.71.15,1.57.98,1.83,1.69,2.32,6.24,3.4,7.21,9.95,7.09,2.44-.04,3.83.77,5.23,2.64,5.48,7.3,11.13,14.48,16.71,21.71.38.5.73,1.02.92,1.29-.16,2.49-3.22,4.16-5.22,3.09ZM137.47,206.84c-.65,8.46-1.29,16.92-2.08,25.36-.07.74-1.17,1.67-1.99,2.02-4.35,1.83-7.34,1.09-10.17-3.43-4.04-6.45-9.35-12.11-13.89-18.27-.77-1.04-.54-2.89-.59-4.37-.1-2.82.32-5.73-.25-8.44-.36-1.73-.53-2.74.6-4.3,9.81-13.59,19.45-27.3,29.18-40.95.51-.71,1.25-1.25,1.88-1.87.1.78.22,1.56.3,2.34.03.33,0,.66,0,.99-.15,0-.31-.01-.46-.02-.51,12.26-.99,24.52-1.56,36.77-.22,4.73-.61,9.45-.97,14.17ZM139.86,233.66c-.13-.76-.35-1.51-.37-2.28-.06-1.65-.02-3.31-.02-4.96-.07,0-.14,0-.2-.01.72-9.13,1.44-18.27,2.15-27.4.03-.33.02-.66.04-.99.33-8.87.63-17.73,1.01-26.6.26-6.06.64-12.11,1-18.17.03-.52.34-1.03.52-1.54.29.35.62.68.86,1.06,2.75,4.43,5.35,8.97,8.28,13.28,1.71,2.52,2.09,4.44.24,7.22-2.32,3.48-1.11,7.05,1.9,9.67,1.72,1.49,1.66,2.9,1.05,4.71-4.96,14.64-9.88,29.29-14.88,43.92-.27.78-1.05,1.39-1.59,2.08ZM145.68,236.32c-2.91-1.95-.64-4.27-.05-6.08,4.38-13.44,9.09-26.78,13.51-40.21.83-2.51,1.5-4.08,4.57-4.7,4.45-.9,6.68-3.89,6.51-8.39-.14-3.57,2.43-3.57,4.37-4.02,4.12-.95,8.35-1.43,12.53-2.11,5.46-.89,10.92-1.78,16.37-2.7,2.19-.37,4.31,1.14,4.56,3.69-.14.25-.37.85-.77,1.32-2.23,2.61-4.43,5.27-6.78,7.77-6.32,6.72-12.8,13.29-19.06,20.06-10.03,10.85-19.88,21.87-29.97,32.65-1.38,1.47-2.43,4.97-5.79,2.72ZM209.62,221.42c-14.24,11.25-29.86,19.74-47.71,23.81-2.37.54-4.68,1.36-7.06,1.86-.66.14-1.45-.39-2.19-.62.39-.66.61-1.65,1.18-1.92,9.15-4.32,18.34-8.57,27.52-12.81,8.59-3.96,17.2-7.9,25.8-11.85,1.04-.48,2.05-1.03,3.12-1.39.4-.14.94.16,2.67.51-1.72,1.24-2.56,1.78-3.34,2.4ZM219.34,196.72c-4.9,3.32-5.99,8.13-5.03,13.35.46,2.49-.46,3.15-2.22,3.94-15.19,6.87-30.38,13.76-45.55,20.67-4.61,2.1-9.18,4.3-13.77,6.44-.45.21-.93.34-1.83.67-.14-.39-.56-.95-.42-1.26.39-.86.92-1.71,1.56-2.41,3.29-3.67,6.58-7.34,9.96-10.92,6.57-6.95,13.3-13.74,19.78-20.77,8.9-9.66,17.61-19.49,26.42-29.23.89-.98,1.78-2.01,2.85-2.75,2.11-1.47,4.21-.85,4.98,1.67,1.76,5.73,3.4,11.51,4.82,17.34.23.94-.66,2.66-1.55,3.26ZM249.93,158.21c-3.15,12.04-7.96,23.42-14.67,33.96-1.17,1.84-2.08,4.12-4.78,3.11-2.59-.97-6.26-.01-6.98-4.59-.81-5.1-2.67-10.02-3.87-15.07-.25-1.05.08-2.56.72-3.45,2.34-3.23,4.45-6.31,2.94-10.68-.31-.88.83-2.66,1.78-3.51,7.07-6.37,14.22-12.65,21.43-18.85,1.4-1.2,3.18-1.95,4.79-2.91.79,1.82,1.57,3.63,2.15,4.97-1.26,6.22-2.11,11.7-3.5,17.02Z"/>
      <path class="cls-2" d="M325.84,131.12c-12.21.72-23.74-9.58-26.31-21.58-2.23-10.45,4.04-25.27,14.74-30.1,13.57-6.13,29.58-.95,36.37,12.2,1.86,3.6,1.41,6.13-3.43,5.82-3.74-.24-6.63-.49-9.21-4-6.48-8.81-18.41-6.69-23.58-.07-5.97,7.64-4.75,17.7,1.86,23.72,6.1,5.57,17.73,3.81,23.01-3.06.44-.58.56-1.41.83-2.12-.75-.21-1.5-.58-2.26-.6-3.48-.07-6.96.04-10.44-.06-4.37-.12-2.35-3.52-2.62-5.57-.23-1.73.3-3.07,2.78-2.95,6.76.34,13.54.41,20.31.54,4.73.09,5.39.83,4.6,5.57-2.03,12.14-13.28,23.59-26.64,22.26Z"/>
      <path class="cls-2" d="M599.48,103.99c-.7-16.32,12.2-27.47,27.55-27.15,17.89.37,27.82,11.51,27.92,27.73.1,15.31-12.59,26.71-28.45,26.74-14.95.03-28.42-13.18-27.01-27.32ZM626.43,120.22c8.64,1.43,17.2-7.52,16.94-16.04-.29-9.32-7.53-16.97-16.64-16.66-9.02.31-15.9,7.04-16.19,16.08-.26,8.03,6.58,17.51,15.89,16.62Z"/>
      <path class="cls-2" d="M412.32,102.63c0-7.6.12-15.21-.06-22.81-.08-3.1.63-4.46,4.09-4.34,8.21.29,6.77-.57,6.94,6.89.06,2.79.24,5.57.36,8.36,2.47-.57,4.95-1.1,7.41-1.7,8.16-1.97,18.45,3.13,22.34,10.95,6.51,13.07-1.22,27.93-12.97,30.53-5.34,1.18-10.52,1.05-15.41-1.54-1.73-.92-2.72-2.45-4.51.46-.72,1.16-4.66.7-7.01.28-.62-.11-1.1-2.77-1.12-4.27-.11-7.6-.05-15.21-.05-22.81ZM433.97,99.35c-7.09-.05-10.69,3.44-10.74,10.43-.05,7.08,4,11.44,10.56,11.38,5.69-.05,10.33-4.89,10.41-10.86.1-7.15-3.4-10.9-10.22-10.95Z"/>
      <path class="cls-2" d="M809.39,89.48c3.43-.72,5.28,1.06,6.32,4.71,1.58,5.52,3.61,10.91,5.48,16.35.23.67.65,1.29.98,1.93.37-.53.84-1.02,1.1-1.6,2.1-4.65,4.17-9.31,6.25-13.97.6-1.35,1-2.87,1.88-4,.81-1.03,2.09-2.05,3.3-2.25.59-.1,1.71,1.58,2.22,2.63,2.66,5.48,5.17,11.04,7.81,16.53.38.8,1.2,1.39,1.82,2.07.45-.82,1.01-1.59,1.32-2.46,1.78-5.12,3.73-10.21,5.15-15.43.94-3.47,2.53-5.17,6.23-4.55.97.16,1.99.1,2.98.01,2.6-.25,3.1.65,2.27,3.12-3.79,11.37-7.47,22.79-11.09,34.22-.76,2.38-1.98,3.72-4.6,3.31-2.49-.39-5.49,1.3-6.89-2.78-1.65-4.8-4.13-9.32-6.27-13.96-.39-.85-.9-1.66-1.35-2.48-.63.87-1.43,1.66-1.86,2.62-1.88,4.2-3.57,8.49-5.47,12.68-1.57,3.46-7.04,5.46-10.2,3.72-.71-.39-1.16-1.52-1.45-2.39-3.77-11.38-7.53-22.77-11.18-34.19-1.14-3.57-.69-3.86,5.26-3.84Z"/>
      <path class="cls-2" d="M402.33,110.77c0,4.95.02,9.89,0,14.84-.03,4.53-.06,4.64-4.74,4.44-1.47-.06-3.38-.44-4.28-1.42-1.81-1.98-3-.38-4.29.26-8.02,3.94-15.72,3.25-22.8-1.96-7.37-5.42-8.78-13.31-7.43-21.67,1.27-7.9,8.37-14.25,15.75-15.9,6.05-1.35,11.37-.35,16.36,3.06,1.14.78,1.95,1.16,2.52-.61,1.2-3.71,4.37-2.36,6.72-2.12,2.76.28,2.15,2.87,2.17,4.76.04,5.44.02,10.88.02,16.32ZM380.72,99.35c-6.39-.08-11.24,4.44-11.23,10.47,0,6.22,4.57,11.12,10.58,11.35,5.74.22,11.19-4.95,11.31-10.72.13-6.16-4.54-11.03-10.66-11.1Z"/>
      <path class="cls-9" d="M784.78,113.25c-4.15,0-8.3.02-12.44,0-2.37-.01-2.88.97-1.99,3.11,2.03,4.9,9.5,7.16,13.96,3.32,3.92-3.38,8.05-2.15,12.18-2.45,1.97-.14,2.12.87,1.4,2.51-2.68,6.09-7.52,9.78-13.79,11.01-14.71,2.87-26.74-7.16-26.04-21.41.63-12.89,8.6-20.34,20.94-20.6,12.82-.28,21.25,9.98,20.73,21.64-.1,2.13-.87,2.93-2.98,2.89-3.98-.09-7.96-.03-11.94-.03h0ZM778.78,105.34c2.14,0,4.28.04,6.42-.02.93-.03,1.85-.28,2.78-.43-.42-1.02-.64-2.2-1.31-3.03-3.77-4.75-10.65-4.9-14.58-.3-.78.92-1.07,2.26-1.58,3.4,1.11.12,2.22.31,3.34.36,1.64.06,3.29.02,4.93.02Z"/>
      <path class="cls-2" d="M538.96,113.24c-3.98,0-7.96.2-11.92-.06-3.14-.21-2.81,1.39-2.05,3.21,1.93,4.63,9.88,6.93,14.12,3.4,3.42-2.85,6.9-2.65,10.63-2.57,3.13.07,3.77.98,2.08,3.53-2.93,4.42-6.36,8.5-11.94,9.76-12.61,2.85-23.8-2.55-26.52-14.88-3.01-13.62,3.99-25.3,19.29-27.05,10.83-1.24,22.04,9.65,22.09,20.68.02,2.91-.67,4.24-3.86,4.04-3.96-.24-7.95-.06-11.92-.06ZM533.38,105.33c2.32,0,4.64-.02,6.96,0,2.29.03,2.5-.97,1.53-2.77-1.92-3.55-5.07-4.3-8.8-4.25-3.53.04-6.04,1.68-7.8,4.45-.95,1.49-.13,2.52,1.65,2.55,2.15.04,4.31,0,6.46.02Z"/>
      <path class="cls-2" d="M910.2,102.9c0-7.76.09-15.52-.05-23.27-.05-2.78.43-4.24,3.74-4.15,8.71.25,7.15-.57,7.24,7.04.08,6.6,0,13.2.04,19.81,0,1.08.27,2.16.42,3.24.89-.84,1.94-1.57,2.65-2.55,2.52-3.45,4.92-6.99,7.36-10.5,1.79-2.57,9.85-4.46,12.43-2.7.48.33.55,2.13.11,2.8-2.45,3.69-5.04,7.3-7.73,10.83-4.13,5.41-4.22,5.4-.25,11,3.04,4.29,6.21,8.49,9.29,12.76,1.57,2.17,1.1,2.93-1.72,2.98-9.38.19-9.38.3-14.67-7.55-1.84-2.73-3.59-5.52-5.46-8.22-.43-.61-1.22-.97-1.85-1.44-.2.7-.57,1.4-.58,2.11-.06,3.96-.12,7.92,0,11.88.07,2.34-.83,3.09-3.17,3.2-7.82.39-7.82.49-7.82-7.46,0-6.6,0-13.2,0-19.81Z"/>
      <path class="cls-2" d="M698.74,131.09c-8.22.93-15.37-4.58-16.9-10.32-.73-2.74-.4-3.73,2.45-3.58,3.62.19,7.57-1.13,10.02,3.33.61,1.11,3.21,1.37,4.94,1.59,2.44.32,4.24-.89,4.73-3.34.52-2.63-1.37-3.39-3.47-3.84-2.72-.58-5.46-1.12-8.17-1.78-6.27-1.55-9.87-5.29-10.19-10.49-.35-5.75,2.52-10.03,8.55-12.46,6.74-2.72,13.18-2.3,19.14,2.14.26.2.6.29.85.5,2.14,1.84,4.69,8.69,3.46,9.04-1.85.53-3.9.35-5.86.45-2.02.11-3.65-.06-5.07-2.1-1.65-2.38-4.33-3.81-7.34-2.15-1.14.63-2.52,2.01-2.54,3.08-.02.99,1.44,2.56,2.57,2.93,3.1,1.02,6.39,1.46,9.57,2.28,11.64,3,11.67,13.49,6.87,19.6-3.27,4.17-8.36,5.71-13.61,5.13Z"/>
      <path class="cls-2" d="M885.74,131.09c-7.84.94-15.33-4.55-16.76-10.5-.58-2.41-.44-3.49,2.21-3.39,3.79.14,7.85-1.09,10.49,3.43.68,1.17,3.7,1.69,5.42,1.35,1.55-.31,3.43-1.95,4-3.45.8-2.1-1.09-3.1-3.1-3.5-2.89-.58-5.78-1.19-8.64-1.91-5.86-1.48-9.56-5.29-9.98-10.16-.5-5.73,2.32-10.14,8.27-12.64,6.7-2.82,13.38-2.87,19.05,2.01,2.3,1.98,3.44,5.33,4.94,8.15.16.3-.9,1.78-1.34,1.75-3.71-.24-7.73,1.49-10.7-2.83-1.82-2.66-5.19-2.54-7.61-.88-2.42,1.66-2.36,4.3.4,5.26,3.39,1.18,7.02,1.66,10.5,2.61,11.23,3.06,11.5,13.07,6.85,19.33-3.31,4.45-8.55,5.95-13.99,5.37Z"/>
      <path class="cls-8" d="M736.32,130.12c-4.48,0-8.95.08-13.43-.03-3.16-.08-3.47-.73-1.82-3.53,4.34-7.37,8.77-14.7,13.09-22.09.63-1.07.87-2.36,1.29-3.54-1.26-.2-2.51-.53-3.78-.58-2.15-.1-4.31-.12-6.46,0-2.89.15-4.44-.91-4.21-3.98.07-.99.06-1.98,0-2.97-.16-2.68.96-3.96,3.76-3.94,8.29.07,16.58-.03,24.87.05,3.43.03,4.05,1.25,2.29,4.27-4.23,7.25-8.55,14.45-12.79,21.69-.72,1.24-1.23,2.6-1.84,3.9,1.54.27,3.07.71,4.62.79,2.65.13,5.3.1,7.95.02,2.03-.06,3.19.6,3.01,2.81-.04.49,0,.99,0,1.49q.09,5.63-5.62,5.65c-3.65,0-7.29,0-10.94,0Z"/>
      <path class="cls-8" d="M573.58,103.23c0,7.6-.15,15.21.07,22.81.1,3.34-1.08,4.24-4.29,4.14-9.08-.29-7.59.91-7.64-7.65-.08-14.05-.03-28.1-.02-42.16,0-4.79.04-4.84,4.96-4.81,7.95.05,6.84-.84,6.9,6.84.05,6.94.01,13.89.01,20.83Z"/>
      <path class="cls-5" d="M629.25,186.49c-1.33-1.22-2.79-2.01-3.38-3.22-1.58-3.25-2.76-6.68-4.18-10.02-.22-.53-.82-.9-1.24-1.34-.42.44-1.02.81-1.23,1.33-1.31,3.19-2.71,6.37-3.73,9.66-.75,2.43-2.24,2.82-4.46,2.84-2.37.02-3.03-1.27-3.62-3.2-2.25-7.39-4.68-14.73-6.92-22.13-.31-1.03-.38-2.8.22-3.3,1.38-1.14,5.43-.05,5.96,1.47,1.3,3.72,2.36,7.52,3.58,11.27.49,1.49,1.15,2.92,1.74,4.38.71-1.46,1.49-2.89,2.12-4.38,1.52-3.64,2.9-7.35,4.5-10.96.34-.76,1.36-1.66,2.08-1.68.58-.01,1.42,1.11,1.76,1.9,1.84,4.22,3.53,8.51,5.36,12.74.26.61,1,1.01,1.52,1.51.35-.53.84-1.02,1.01-1.6,1.15-3.94,2.19-7.92,3.36-11.86.79-2.67,4.37-4.22,6.62-2.83.46.28.76,1.44.59,2.02-2.51,8.34-5.04,16.68-7.82,24.94-.32.96-2.15,1.41-3.84,2.43Z"/>
      <path class="cls-4" d="M690.04,185.65c-2.26.37-3.27-.76-3.96-2.78-1.17-3.42-2.61-6.75-4-10.1-.23-.56-.77-.98-1.17-1.47-.33.48-.75.91-.96,1.43-1.29,3.21-2.61,6.41-3.77,9.66-.8,2.26-1.95,3.39-4.63,3.4-2.79.02-3.24-1.63-3.82-3.56-2.2-7.24-4.44-14.47-6.63-21.71-.37-1.22-1.98-3.09.55-3.45,1.82-.26,4.5-1.5,5.52,1.51,1.31,3.9,2.4,7.87,3.69,11.77.44,1.34,1.21,2.58,1.82,3.87.54-1.19,1.12-2.37,1.62-3.57,1.58-3.8,3.1-7.63,4.73-11.4.35-.81,1.1-1.46,1.67-2.18.78.73,1.88,1.32,2.28,2.21,1.92,4.37,3.64,8.83,5.47,13.24.24.59.69,1.1,1.04,1.65.36-.61.86-1.18,1.06-1.84,1.27-4.08,2.51-8.18,3.68-12.29.61-2.12,1.55-3.36,4.12-3.22,3.51.2,3.66.14,2.61,3.59-2.25,7.4-4.64,14.75-6.8,22.17-.66,2.28-1.69,3.51-4.13,3.07Z"/>
      <path class="cls-4" d="M732.24,185.62c-2.36.56-3.1-.85-3.7-2.82-2.26-7.4-4.72-14.74-6.92-22.15-.32-1.07,0-3.14.7-3.54,2.06-1.17,4.96.04,5.57,1.98,1.34,4.24,2.55,8.51,3.9,12.75.21.66.85,1.18,1.29,1.77.35-.51.8-.98,1.03-1.55,1.71-4.11,3.33-8.25,5.1-12.33.42-.97,1.32-1.75,2-2.61.85.87,2.01,1.6,2.48,2.63,1.9,4.2,3.57,8.51,5.37,12.76.24.58.73,1.06,1.1,1.58.3-.62.69-1.21.89-1.86,1.28-4.08,2.66-8.14,3.7-12.29.6-2.42,1.85-3.12,4.2-3.11,2.5.01,3.34.88,2.61,3.26-2.39,7.7-4.68,15.44-7.24,23.09-.35,1.05-1.88,2.1-3.05,2.4-1.78.46-3.57.18-4.41-2.07-1.38-3.7-2.93-7.34-4.47-10.98-.21-.49-.77-.82-1.17-1.22-.26.42-.6.8-.77,1.25-1.3,3.38-2.63,6.76-3.82,10.18-.75,2.14-1.88,3.46-4.38,2.89Z"/>
      <path class="cls-8" d="M468.87,130.12c-1,0-1.99-.04-2.99,0-1.82.09-2.77-.59-2.77-2.55.03-11.57-.05-23.15.11-34.72.02-1.11,1.24-2.9,2.23-3.15,1.95-.5,4.54-.99,5.54,1.73,1,2.72,2.27,2.46,4.17.93,2.81-2.27,6.11-3.01,9.72-2.97,2.43.03,3.31,1,3.08,3.27-.03.33,0,.66,0,.99q.12,6.29-6.09,6.68c-4.67.29-6.76,2.4-6.85,7.27-.1,5.45-.01,10.91-.03,16.37-.02,6.72.64,6.11-6.13,6.14Z"/>
      <path class="cls-2" d="M674.17,102.73c0,7.92-.09,15.83.05,23.74.05,2.78-.88,3.75-3.69,3.69-8.81-.18-7.25.57-7.29-6.95-.08-14.35-.04-28.69-.02-43.04,0-4.58.05-4.58,4.63-4.63.99-.01,2,.09,2.98-.02,2.64-.27,3.42.95,3.38,3.45-.11,7.91-.04,15.83-.04,23.74Z"/>
      <path class="cls-5" d="M458.21,171.33c-.01,8.94-6.39,15.29-15.28,15.21-8.55-.08-15.6-7.01-15.58-15.31.02-8.29,7.12-15.18,15.68-15.21,9.14-.03,15.81,7.27,15.18,15.31ZM434.16,171.44c.06,4.93,3.99,9.07,8.61,9.09,4.81.02,9.22-4.32,9.29-9.14.06-4.79-4.23-9.18-9.1-9.31-4.8-.13-8.87,4.2-8.8,9.37Z"/>
      <path class="cls-10" d="M505.68,171.44c0,3.3.14,6.61-.06,9.9-.09,1.44-.52,3.73-1.41,4.09-1.94.77-4.19.51-5.68-1.67-1.95-2.86-4.04-5.63-6.15-8.38-1.56-2.03-3.27-3.95-4.91-5.92-.16,2.55-.36,5.09-.46,7.64-.07,1.81-.12,3.64.01,5.44.17,2.31-.66,3.2-3.08,3.2-2.49,0-3.06-1.04-3.03-3.28.09-7.1-.04-14.2.1-21.29.03-1.41.55-3.67,1.44-4.02,1.93-.75,4.19-.59,5.69,1.63,2.4,3.55,4.96,7,7.45,10.49.57.8,1.09,1.66,1.75,2.39.27.3.82.35,1.25.52.14-.42.4-.85.4-1.27.04-3.63.13-7.27,0-10.89-.09-2.33.73-3.21,3.12-3.19,2.35.02,3.79.34,3.64,3.22-.2,3.79-.05,7.59-.05,11.39Z"/>
      <path class="cls-7" d="M392.3,156.91c1.65,0,3.31-.07,4.96.01,4.03.2,6.86,2.26,8.37,5.92,1.43,3.48,1.15,7.11-1.7,9.56-2.8,2.42-2.09,4.23-.3,6.52.6.77,1.15,1.65,1.46,2.57.44,1.33.64,2.74.94,4.12-2.28-.36-5.04,1.33-6.74-1.53-1.26-2.12-2.35-4.36-3.82-6.33-.65-.87-2.03-1.2-3.08-1.78-.41.96-.97,1.88-1.19,2.88-.2.94-.02,1.97-.05,2.95-.1,3.78-.68,4.4-4.32,3.78-.9-.15-2.27-1.43-2.28-2.21-.17-8.06-.17-16.13,0-24.2.02-.77,1.41-1.99,2.33-2.17,1.75-.35,3.61-.1,5.43-.1h0ZM393.7,162.78c-2.14-.54-3.16.51-3.26,3.42-.11,3.29,1.33,3.92,4.16,3.74,2.45-.16,4.79-.16,4.89-3.47.09-2.71-1.3-3.7-5.8-3.69Z"/>
      <path class="cls-9" d="M962.98,109.79c0,5.43-.12,10.87.05,16.3.09,2.84-.55,4.18-3.79,4.09-8.65-.25-7.13.58-7.2-7.04-.08-9.71-.04-19.43-.01-29.14.01-4.45.05-4.51,4.22-4.51,7.71,0,6.66-.62,6.72,6.48.04,4.61,0,9.22,0,13.83Z"/>
      <path class="cls-2" d="M504.91,110.2c0,5.6-.07,11.2.03,16.79.04,2.34-.85,3.06-3.18,3.18-7.81.38-7.81.48-7.81-7.43,0-9.71.12-19.43-.07-29.14-.06-3.25.94-4.3,4.21-4.19,7.87.26,6.73-.54,6.8,6.46.05,4.77,0,9.55,0,14.32Z"/>
      <path class="cls-5" d="M308.63,186.53c-3.44-.03-7.07-1.42-9.34-5.1-.93-1.51-2.77-3.84-.39-5.08,1.62-.84,4.53-1.6,5.92,1.4,1.39,3,4.1,2.38,6.46,1.89.87-.18,2-1.46,2.09-2.34.08-.77-.94-2.09-1.78-2.45-2.57-1.08-5.36-1.63-7.93-2.7-3.83-1.6-5.9-4.71-5.59-7.86.35-3.55,2.85-6.31,6.84-7.52,5.4-1.64,11.07-.06,13.07,3.95.69,1.38.48,3.21.68,4.83-1.98-.32-4.44-.03-5.81-1.11-1.94-1.52-3.43-3.16-5.99-1.78-.78.42-1.76,1.31-1.79,2.02-.03.68.92,1.71,1.68,2.05,1.79.81,3.73,1.29,5.61,1.92,5.92,1.97,8.71,5.33,8.01,9.66-.75,4.57-5.49,8.12-11.75,8.21Z"/>
      <path class="cls-1" d="M530.94,156.89c2.26-.49,3.26,1.1,4.35,2.92,1.55,2.58,3.38,4.98,5.09,7.46,1.52-2.54,2.9-5.18,4.63-7.58.85-1.18,2.23-2.23,3.59-2.7,1.11-.38,2.55.19,3.85.33-.41,1.19-.71,2.43-1.26,3.55-.72,1.48-1.54,2.92-2.47,4.28-3.48,5.13-6.24,10.44-5.14,16.96.48,2.82-.87,3.65-3.64,3.66-2.84.01-3.55-1.32-3.13-3.61,1.21-6.6-2-11.77-5.26-16.97-1.05-1.67-2.08-3.37-3-5.12-1.67-3.16-1.54-3.31,2.4-3.19Z"/>
      <path class="cls-3" d="M348.45,174.34c0-1.48.05-2.97-.01-4.45-.08-2.12.43-4.68-.6-6.19-.72-1.06-3.56-.77-5.47-.91-2.34-.17-2.45-1.73-2.52-3.47-.08-2.03,1.05-2.47,2.81-2.45,5.79.05,11.58.07,17.37,0,2-.02,2.57.89,2.53,2.7-.04,1.77-.06,3.08-2.51,3.28-5.51.43-5.5.58-5.5,6.1,0,4.61-.07,9.23.03,13.84.05,2.1-.66,2.94-2.84,2.93-2.17-.01-3.47-.42-3.32-2.98.16-2.79.04-5.6.03-8.4Z"/>
      <path class="cls-6" d="M155.4,38.53c-.05-4.17,2.17-6.63,5.99-6.63,4.05,0,6.96,2.5,6.94,5.98-.02,3.15-3.49,6.88-6.41,6.91-3.9.04-6.46-2.43-6.51-6.26Z"/>
      <path class="cls-6" d="M267.25,80.51c3.8-.04,6.46,2.26,6.63,5.72.16,3.33-3.49,7.12-6.89,7.16-3.52.04-6.06-2.89-6.03-6.97.02-3.64,2.39-5.87,6.3-5.91Z"/>
      <path class="cls-2" d="M957.43,84.49q-5.39,0-5.41-4.79-.02-5.14,5.54-5.14t5.41,5.28q-.03,4.66-5.54,4.65Z"/>
      <path class="cls-2" d="M504.91,79.56q0,4.95-5.76,4.93-5.2-.01-5.19-5t5.76-4.93q5.2.02,5.19,5Z"/>
      <path class="cls-6" d="M226.09,54.34c-.05,2.59-1.85,4.45-4.18,4.33-2.31-.12-3.92-2.11-3.77-4.73.14-2.42,1.29-4.07,3.85-4.06,2.42,0,4.15,2.07,4.1,4.46Z"/>
      <path class="cls-6" d="M198.22,28.25c.08-2.62,1.98-4.59,4.31-4.24,2.44.37,3.68,1.9,3.65,4.42-.03,2.36-2.18,4.53-4.32,4.3-2.1-.22-3.71-2.21-3.64-4.48Z"/>
      <path class="cls-6" d="M157.69,14.03c-2.87.26-3.65-1.95-4.04-3.93-.43-2.14,1.99-3.94,4.43-4.03,2.87-.1,3.65,1.98,4.04,3.97.42,2.13-2,4.07-4.43,3.99Z"/>
    </g>
  </g>
</svg>