<?xml version="1.0" encoding="UTF-8"?>
<svg xmlns="http://www.w3.org/2000/svg" version="1.1" viewBox="0 0 800 800">
  <defs>
    <style>
      .cls-1 {
        fill: #fdfcfd;
      }

      .cls-2 {
        fill: #dadada;
      }

      .cls-3 {
        fill: #abaaaa;
      }

      .cls-4 {
        fill: #b0afb0;
      }

      .cls-5 {
        fill: #fdfdfd;
      }

      .cls-6 {
        fill: #aeadae;
      }

      .cls-7 {
        fill: #ddd;
      }

      .cls-8 {
        fill: #ababab;
      }

      .cls-9 {
        fill: #acabab;
      }

      .cls-10 {
        fill: #dadad9;
      }

      .cls-11 {
        fill: #dbdbdb;
      }

      .cls-12 {
        fill: #dbdada;
      }

      .cls-13 {
        fill: #f9f9f9;
      }

      .cls-14 {
        fill: #41bbc8;
      }

      .cls-15 {
        fill: #dcdbdb;
      }
    </style>
  </defs>
  <!-- Generator: Adobe Illustrator 28.6.0, SVG Export Plug-In . SVG Version: 1.2.0 Build 709)  -->
  <g>
    <g id="Warstwa_1">
      <path class="cls-14" d="M345.28,101.72c2.4,2.2,5.29,4.07,7.09,6.68,3.76,5.46,5.35,11.51,1.47,18.67,7.76,5.95,15.35,11.77,21.93,16.82,4.36,0,7.76-.72,10.67.18,3.97,1.22,6.56,7.07,4.73,11.63-1.36,3.38-.8,6.03.45,8.68,5.42,11.46,11.08,22.81,16.18,33.23,5.52,1.59,9.85,2.84,14.64,4.23,6.43-4.18,13.09-8.76,20.02-12.92,3.47-2.08,5.54-4.22,6.43-8.6,1.64-8.07,10.07-10.18,15.88-4.49,1.02,1,2.29,2.66,2.12,3.82-1.3,8.75,5.2,13.46,9.93,18.7,8.08,8.95,16.9,17.23,24.41,24.78,5.58.71,10.07.79,14.2,2.03,2.05.61,4.13,3.09,5.01,5.22,2.79,6.73.15,12.17-8.43,18.42v67.82c1.52.57,3.11,1.17,4.98,1.87,4.64-3.97,9.53-7.99,14.21-12.22,7.77-7.02,15.49-14.1,23.04-21.35,1.34-1.28,1.91-3.46,2.6-5.31,1.6-4.32,4.67-6.81,9.2-6.68,4.18.12,7.06,2.57,8.44,6.62,1.43,4.2.17,7.5-3.29,10.09-1.2.9-2.41,1.79-3.57,2.65-2.63,28.35-10.5,54.95-29.14,82.97,5.46,8.14,5.81,17.35.9,23.27-6.37,7.67-13.12,8.91-24.05,4.35-25.59,24.4-56.17,39.22-90.59,45.91-5.49,18.17-11.71,23.36-25.94,22.93-12.06-.36-17.95-5.37-23.54-21.53-51.06-6.68-91.9-31.3-122.7-73.37-5.97,1.56-12.28,1.76-16.04-4.32-3.9-6.31-2.78-12.68,2.86-18.18-7.59-16.04-13.43-32.64-15.47-49.89-2.01-17.07-1.26-34.46-1.75-52.87-.5-.42-2.11-2.05-3.97-3.3-8.72-5.88-7.05-23.31,2.99-27.82,1.35-.6,2.83-1.64,4.13-1.48,5.72.71,8.39-1.57,10.51-7.1,9.38-24.41,24.57-45.15,44.15-62.15,12.15-10.54,26.22-18.86,40.43-28.89-1.92-8.18,3.96-13.96,11-19.12h13.87ZM250.29,352.7l1.81.15c6.59-21.65,13.17-43.3,19.65-64.59-9.26-6.71-12.36-16.89-8.23-24.6,4.92-9.18,14.18-11.68,25.89-6.81,9.74-10.92,19.54-21.91,29.38-32.94-.18-4.99-3.46-5.72-7.41-4.87-5.4,1.16-10.71,2.76-16.09,4-14.22,3.28-28.43,6.6-42.71,9.61-3.16.67-3.89,2.29-4.68,5.02-1.41,4.85-2.8,10.37-7.68,12.68-5.5,2.61-4.6,6.63-3.98,10.92.82,5.73,1.81,11.44,2.67,17.16,1.23,8.23,2.39,16.47,3.62,24.7,1.34,8.97,2.7,17.94,4.1,26.9,1.18,7.56,2.44,15.11,3.66,22.66ZM334.87,137.28c-6.42-3.81-6.79-3.86-9.07-1.22-9.12,10.57-18.09,21.28-27.36,31.71-10.49,11.81-21.26,23.37-31.89,35.05-4.97,5.46-10.02,10.86-14.84,16.46-2.3,2.67-4.14,5.75-6.1,8.52.83.73,1.06,1.08,1.2,1.05,21.83-4.87,43.65-9.8,65.48-14.63,3.32-.73,3.45-2.99,3.77-5.71.75-6.37,4.51-10.52,10.41-12.84,1.61-.63,3.15-1.43,5.14-2.34,1.1-18.92,2.18-37.67,3.25-56.05ZM405.86,312.12c-1.51.19-1.88.13-1.98.27-13.96,19.51-27.93,39-41.74,58.62-1.03,1.46-1.2,3.78-1.14,5.68.16,5.41.65,10.81,1.15,18.26,7.45,9.74,16.33,21.35,25.18,32.92,3.97-1.11,7.77-2.17,11.78-3.29.56-12.92,1.09-25.62,1.68-38.32.47-10.16,1.03-20.32,1.55-30.48.01-.26.05-.51.07-.77,1.14-14.14,2.28-28.29,3.46-42.89ZM447.57,341.47c-1.57,14.36-2.17,15.09-13.89,16.79-7.05,21.21-14.09,42.53-21.24,63.82-1.16,3.45-1.68,6.36,3.35,8.23,6.98-7.71,13.94-15.5,21.03-23.18,13.33-14.44,26.72-28.83,40.11-43.21,7.83-8.41,15.71-16.76,23.72-25.31-1.38-1.93-2.65-3.71-3.71-5.21-16.44,2.68-32.6,5.32-49.36,8.06ZM419.41,434.95c.33.51.66,1.02.99,1.53,29.75-13.72,59.5-27.45,89.11-41.11-2.99-10.06-1.09-18.14,9.28-23.96-4.9-9.85-3.92-21.81-12.4-31.53-6.52,7.34-12.17,13.91-18.04,20.27-13.86,15.02-27.81,29.95-41.77,44.89-8.73,9.34-17.54,18.61-26.27,27.95-.47.5-.6,1.31-.9,1.98ZM399.42,309.73c-.39-.45-.77-.9-1.16-1.34-1.55.63-3.2,1.09-4.64,1.91-17.34,9.94-34.55,20.09-52.03,29.79-4.46,2.47-7.8,4.85-9.01,10.24-1.11,4.91-5.01,7.01-10.27,7.4-6.06.45-9.93-3.1-13.95-6.39-15.93,4.28-31.56,8.49-48.72,13.11,27.28,4.99,52.77,9.66,78.72,14.4,2.91-8.46,10.6-7.54,17.3-7.48,14.87-20.95,29.32-41.29,43.76-61.63ZM298.03,270.94c9.9,1.01,18.89,1.93,27.9,2.84,9.39-19.38,20.52-22.32,39.01-14.8,5.55-6.25,11.26-12.69,17.19-19.38-11.82-5.9-23.29-11.63-34.67-17.31-7.37,7.34-15.36,9.02-23.99,4.36-8.7,9.55-16.89,18.91-25.55,27.82-3.37,3.47-4.41,6.52-2.09,10.77.94,1.73,1.45,3.7,2.2,5.69ZM454.58,190.38c-.56-.53-1.12-1.06-1.68-1.59-9.69,6.06-19.39,12.13-29,18.14,0,1.93.03,3.2,0,4.47-.25,8.97-3.19,12.29-11.92,11.95-5.36-.21-9.42,1.14-12.64,5.39-2.42,3.19-5.06,6.21-8.03,9.81,17.35,9.09,34.15,17.89,50.48,26.44,5.33-1.27,6.98-4.04,6.93-8.99-.07-7.34.69-14.7,1.47-22.02.75-7.02,2.21-13.96,2.92-20.98.76-7.52,1.01-15.09,1.48-22.64ZM373.28,282.9c9.63,4.3,18.86,8.43,27.18,12.15,3.13-.88,5.44-1.94,7.81-2.08,2.41-.15,4.87.61,6.77.88,8.71-5.93,17.06-11.61,25.47-17.33.66-3.69.81-6.67-3.57-8.8-16.62-8.1-33.04-16.6-50.13-25.26-6.01,6.74-12.25,13.74-18.72,20.99,4.94,5.62,6.53,11.92,5.2,19.45ZM257.64,359.62c17.64-4.67,34.09-9.02,50.06-13.24,1.33-4.07,2.42-7.41,3.62-11.07-8.49-15.56-17.06-31.27-25.51-46.75-3.38.66-6.31,1.22-9.43,1.83-1.96,6.49-3.89,12.98-5.88,19.45-4.35,14.18-8.81,28.33-13,42.56-.59,2.01.05,4.39.14,7.22ZM379.15,436.94c1.82-2.77,3.01-4.57,4-6.07-9.33-12.16-18.4-23.99-27.34-35.66-10.41,2.12-14.52.46-17.97-8.35-1.31-3.35-3.39-4.06-6.15-4.57-16.6-3.07-33.2-6.18-49.82-9.13-7.24-1.29-14.54-2.26-21.81-3.38-.08.37-.17.75-.25,1.12,39.61,21.92,79.21,43.84,119.34,66.05ZM514.73,340.39c2.86,9.95,5.57,19.38,8.3,28.87,3.86,1.02,7.64,2.03,11.51,3.06,1.91-3.37,3.49-6.55,5.43-9.5,13.08-19.9,18.69-42.38,22.58-65.43.6-3.56.15-7.08-4.32-8.57-12.21,10.81-24.4,21.6-37.05,32.79-1.08,6.32,2.42,14.8-6.46,18.78ZM458.06,272.16c14.53,15.12,27.81,28.95,41.09,42.77.53.55,1.05,1.16,1.68,1.58,2.9,1.9,5.55.83,6.18-2.64.32-1.74.11-3.58.11-5.38,0-17.71.01-35.43-.01-53.14,0-2.25-.19-4.5-.28-6.48-2.73-1.39-4.99-2.55-7.49-3.82-13.46,8.84-26.92,17.67-41.29,27.11ZM457.18,266.32c12.88-8.34,25.96-16.82,38.57-25,.69-4.85,1.29-9.09,2.15-15.16-3.64-3.3-8.4-7.21-12.69-11.59-6.43-6.56-12.44-13.52-18.81-20.14-1.55-1.6-3.82-2.51-6.13-3.97-.95,5.68-1.97,10.13-2.39,14.63-.73,7.84-.91,15.74-1.67,23.58-.76,7.79-2.38,15.52-2.81,23.32-.26,4.77-2.39,10.46,3.78,14.32ZM456.26,277.66c-1.47,2.97-2.53,4.43-2.94,6.04-3.84,15.12-7.26,30.36-11.52,45.36-1.22,4.29-.15,6.16,2.8,7.81,14.74-2.37,29.1-5.13,43.58-6.81,5.88-.68,8.63-2.96,9.5-8.77-13.36-14.08-26.89-28.33-41.42-43.65ZM384.05,160.82c-2.9,1.26-6.04,1.65-7.58,3.44-10.06,11.72-19.77,23.75-29.48,35.54,1.46,3.36,2.82,6.48,4.15,9.54h48.11c1.6-3.17,3.18-6.27,4.57-9.03-6.52-13.03-12.78-25.52-19.77-39.49ZM324.6,332.71c4.7-11.07,9.4-22.14,14.22-33.49-8.41-4.09-11.09-11.59-12.8-20.49-9.7-.98-19.42-1.97-28.22-2.86-2.9,4.04-5.19,7.22-7.49,10.42,8.57,15.58,17.11,31.08,25.55,46.42h8.74ZM242.48,222.12c6.43-6.95,12.79-13.57,18.86-20.44,10.11-11.42,19.95-23.06,30.07-34.47,6.43-7.25,13.23-14.18,19.72-21.38,4.67-5.19,9.09-10.6,13.82-16.14-4.6-3-7.54.61-10.44,2.19-36.29,19.71-61.22,49.46-76.88,87.73,1.69.88,3.21,1.67,4.85,2.52ZM377.64,443.5c-.09-.58-.17-1.15-.26-1.73-12.89-7.02-25.82-13.97-38.65-21.1-12.62-7.01-24.97-14.52-37.75-21.24-12.71-6.68-24.89-14.49-38.52-19.59.2,1.73.79,2.81,1.63,3.66,7.14,7.2,13.84,14.93,21.61,21.37,8.93,7.41,18.38,14.39,28.36,20.26,18.26,10.75,38.35,16.71,59.3,19.7,1.34.19,2.85-.86,4.28-1.34ZM336.57,193.35c5.93,3.06,7.03,2.65,11.19-2.47,7.51-9.24,15.07-18.45,22.94-27.38,6.07-6.89,5.61-13.13-1.9-18.52-6.15-4.41-12.2-8.96-17.79-13.08-4.09,1.8-7.92,3.49-11.44,5.03-1,18.7-1.98,37.21-3,56.41ZM372.77,288.18c-8.29,11.57-11.24,12.97-29.77,14.34-3.96,9.34-7.87,18.86-12.04,28.27-1.4,3.16-1.85,5.79,1.85,8.49,21.87-12.47,43.97-25.06,67.44-38.43-10.09-4.65-18.54-8.54-27.49-12.67ZM428.55,356.81c-8.25-6.42-7.41-14-2.83-21.69-5.14-8.45-10.03-16.51-15.52-25.54-.61,14.86-1.17,28.38-1.72,41.89-.02.51.01,1.03-.02,1.54-1.02,14.45-2.01,28.9-3.08,43.35-.39,5.31-1.11,10.59-1.41,15.9-.23,4.08-.05,8.19-.05,12.29.63.08,1.26.15,1.9.23,7.49-22.39,14.98-44.79,22.74-67.96ZM435.66,333.37c4.46-17.73,8.74-34.73,13.15-52.26-1.79-.23-3.34-.94-4.14-.44-8.96,5.61-17.81,11.41-25.71,16.53-3.26,8.2-2.57,14.56,2.63,20.66,4.35,5.11,4.88,13.68,14.07,15.51ZM386.11,236.51c4.26-5.06,8.12-9.4,11.68-13.98,1.28-1.65,1.84-3.85,2.74-5.8-2.23-.83-4.44-2.33-6.68-2.37-13.27-.22-26.55-.13-39.83-.07-1.31,0-2.61.56-3.92.86-.14.55-.27,1.11-.41,1.66,11.83,6.4,23.67,12.8,36.43,19.7ZM244.84,352.16c-4.56-31.87-9.11-63.74-13.69-95.61-.1-.72-.49-1.41-.79-2.09-.1-.22-.33-.4-.54-.53-.21-.13-.47-.22-.72-.25-.17-.02-.36.1-.53.15-5.36,34.54.86,67.18,16.27,98.33ZM422.26,441.38c.3.83.6,1.65.9,2.48,30.8-5.55,58.14-18.37,81.85-38.84l-.79-1.67c-27.32,12.68-54.64,25.36-81.96,38.03Z"/>
      <path class="cls-11" d="M0,544.11c1.46-2.89,3-5.75,4.38-8.68,5.83-12.41,16.58-17.4,29.24-17.23,11.36.15,21.41,4.75,27.29,15.46,1.27,2.32,1.79,5.05,2.92,8.4h-13.23c-9.85-11.86-21.56-13.82-30.42-5.11-9.17,9.02-6.26,23.54.43,29.54,7.36,6.6,23.49,5.53,28.88-5.14-3.63-.11-6.74-.27-9.85-.3-9.06-.08-9.37-.44-7.98-10.31h32.1c2.07,3.71.68,7.27-.49,10.9-4.12,12.88-12.83,20.75-26.19,22.41-14.33,1.78-25.44-4.04-32.78-16.54-1.75-2.98-2.88-6.33-4.3-9.5,0-4.62,0-9.25,0-13.87Z"/>
      <path class="cls-15" d="M800,582.65h-13.37v-49.33h13.37v49.33Z"/>
      <path class="cls-8" d="M306.74,667.43c-2.44-1.69-5.11-3.14-7.28-5.13-5.56-5.11-6.8-13.34-3.25-19.59,3.6-6.33,11.53-9.37,19.38-7.41,6.38,1.59,11.05,7.73,11.21,14.74.18,7.99-3.83,13.5-11.48,15.92-.87.27-1.61.97-2.41,1.47h-6.17ZM319.32,650.73c-.06-5.48-3.78-9.51-8.76-9.47-4.95.03-8.63,4.11-8.65,9.6-.03,5.96,2.86,8.89,8.85,8.99,5.78.1,8.62-2.93,8.56-9.12Z"/>
      <path class="cls-9" d="M168.02,667.43c-3.66-2.98-9.6-4.06-9.04-10.61,5.95-5.45,9.11,7.08,15.07,1.77,1.1-3.02-.78-4.15-3.56-5.06-2.85-.94-5.94-1.83-8.26-3.6-4.43-3.39-4.19-8.96.03-12.52,6.96-5.87,17.26-1.94,18.97,7.44-2.73.86-5.17,1.57-7.37-1.46-2.4-3.32-4.97-2.84-7.96,1.24,2.65,1.04,4.83,1.98,7.07,2.77,4.41,1.55,8.86,2.92,9.03,8.88.17,5.97-3.04,8.85-8.45,10.04-.37.08-.61.73-.91,1.11h-4.62Z"/>
      <path class="cls-7" d="M800,528.7h-13.36v-13.87h13.36v13.87Z"/>
      <path class="cls-12" d="M428.51,552.5c.48,15.08-13.37,32.92-34.84,31.65-20.56-1.22-32.85-15.24-32.55-33.39.32-19.14,15.05-33.11,35.12-32.65,17.22.39,33.02,13.55,32.28,34.39ZM394.1,570.36c13.63,1.43,20.5-9.61,20.53-19.29.03-10.23-8.68-18.78-18.64-19.42-11.56-.75-20.38,8.58-20.05,19.1.41,12.83,6.17,19.55,18.15,19.61Z"/>
      <path class="cls-11" d="M659,561.92c2.6-7.42,4.74-13.33,6.74-19.28,3.35-9.98,3.32-9.99,15.52-8.57-3.71,16.33-9.72,31.79-14.76,47.3-10.36,2.7-11.16,2.23-14.7-6.55-2.06-5.1-4.54-10.02-7.38-16.23-3.94,8.72-7.33,16.22-10.72,23.75h-10.72c-5.26-15.71-10.63-31.72-16.22-48.41,3.03-.24,5.02-.27,6.98-.58,5.09-.82,7.5,1.83,8.89,6.31,2.1,6.8,4.39,13.53,6.92,21.25,1.24-1.71,2.39-2.83,2.98-4.18,2.56-5.82,4.83-11.78,7.49-17.55.77-1.66,2.75-4.15,3.78-3.97,1.79.31,3.93,2.08,4.78,3.8,3.49,7.05,6.56,14.32,10.42,22.93Z"/>
      <path class="cls-2" d="M150.59,580.39c-4.87,1.11-8.43,1.91-12.8,2.91v-66.44h11.47v19.59c9.03-3.54,17.17-4.88,25.33-1.38,5.12,2.2,8.84,5.93,11.37,10.95,5.92,11.78,2.65,24.62-4.44,31-7.89,7.1-19.3,11.09-30.93,3.36ZM149.5,558.43c-.5,7.07,3.29,12.87,13.22,13.34,6.19.29,12.82-6.58,12.96-12.8.18-7.99-5.14-13.27-13.46-13.34-7.78-.07-12.63,4.81-12.73,12.8Z"/>
      <path class="cls-11" d="M124.8,583.19c-5.14-.74-9-1.3-14.76-2.13-13.23,4.96-26.05,3.17-32.8-5.82-8.16-10.86-7.5-23.23-.3-33.16,5.88-8.11,18.12-12.65,33.94-6.13,3.55-1,6.27-2.11,9.08-2.47,3.05-.4,4.82,1.37,4.82,4.54.02,14.55,0,29.1,0,45.19ZM110.99,558.72c0-8.29-4.98-13.18-13.32-13.09-7.6.09-12.84,5.41-12.86,13.07-.02,6.54,6.86,13.29,13.37,13.13,7.75-.19,12.81-5.37,12.82-13.11Z"/>
      <path class="cls-2" d="M749.09,562.23v19.78h-13.3v-65h13v36.71c.39.14.78.27,1.17.41,2.65-3.92,5.3-7.84,7.95-11.76,6.67-9.88,6.76-9.91,20.88-8.29-5.48,8.09-10.64,15.7-15.9,23.46,5.68,8.07,11.2,15.91,17.66,25.1-4.16,0-6.84-.2-9.47.04-4.55.41-7.64-1-10.03-5.23-3.08-5.46-7-10.45-10.56-15.64-.47.14-.95.28-1.42.41Z"/>
      <path class="cls-11" d="M271.64,562.58c2.78,8.81,10.72,12.76,16.59,8,5.45-4.42,10.72-3.35,16.59-2.87.52,4.71-1.94,7.67-4.92,10.08-11.83,9.58-27.09,8.14-36.53-2.08-7.71-8.35-7.84-26.73,1.43-35.59,8.04-7.68,16.96-8.29,26.19-5.89,10.5,2.74,15.03,11.68,17.14,21.65,1,4.72-.74,6.55-5.75,6.65-7.69.15-15.39.04-23.08.04-2.46,0-4.92,0-7.66,0ZM293.41,553.04c-2.44-6.78-5.44-9.07-11.57-8.92-4.8.11-7.55,2.54-9.88,8.92h21.45Z"/>
      <path class="cls-12" d="M601.89,562.58h-34.12c1.05,8.27,8.52,11.63,16.02,7.93q7.82-3.86,16.58-2.64c-.5,9.09-12.64,17.29-24.53,16.26-11.7-1.02-25.42-10.97-22.32-30.73,2.02-12.85,11.36-22.47,30.73-20.04,12.26,1.54,19.88,13.75,17.64,29.22ZM567.86,552.96h20.43c-.82-5.95-3.61-8.5-9.33-8.85-6.39-.39-9.21,1.79-11.1,8.85Z"/>
      <path class="cls-2" d="M461.09,567.56h12.13c6.75,7.32,8.9,7.54,15.96.5-2.48-1.41-4.59-2.98-6.95-3.87-3.07-1.15-6.35-1.75-9.53-2.62-5.28-1.45-9.29-4.36-10.24-10.06-1.14-6.88.74-12.6,7.11-16.36,8.06-4.75,23.12-1.97,28.58,5.55,1.4,1.93,2.12,4.35,3.56,7.4-6.49.27-11.82,2.89-16.37-2.87-1.1-1.38-4.86-1.23-7.23-.82-1.46.25-2.59,2.33-5.04,4.74,4.47,1.36,7.25,2.26,10.06,3.05,1.95.55,3.96.89,5.91,1.45,5.35,1.53,10.47,4.03,11.72,9.79,1.4,6.47.02,12.33-5.85,17.01-11.58,9.23-30.54,2.73-33.81-12.89Z"/>
      <path class="cls-2" d="M724.92,548.67c-4.89-.66-10.31,2.4-14.54-3.42-1-1.37-4.83-1.24-7.21-.85-1.45.24-2.6,2.3-4.62,4.26,3.01,1.43,4.71,2.51,6.56,3.06,2.67.79,5.47,1.11,8.19,1.78,5.67,1.4,11.08,3.85,12.5,9.91,1.6,6.84-.18,12.9-6.42,17.52-11.62,8.61-29.97,1.92-33.2-13.05h12.35c6.49,6.98,8.58,7.2,15.69.21-2.47-1.43-4.57-3.01-6.93-3.9-3.07-1.16-6.35-1.75-9.53-2.61-5.29-1.43-9.31-4.36-10.26-10.04-1.15-6.87.69-12.6,7.07-16.38,8.06-4.77,23.1-2.03,28.59,5.51,1.41,1.93,2.14,4.35,3.18,6.55-.48.48-.95.96-1.43,1.44Z"/>
      <path class="cls-11" d="M547.85,533.99c-7.1,12.37-13.64,23.78-20.73,36.14h19.48v12.06h-40.52c7.23-12.51,13.89-24.03,21.08-36.48h-17.99v-11.72h38.67Z"/>
      <path class="cls-11" d="M451.6,582.38h-12.44c-1.69-5.35-2.24-52.49-.72-65.45h13.2c0,21.4.03,43.01-.03,65.45Z"/>
      <path class="cls-2" d="M211.18,582.24h-13.83v-9.93c0-10.53-.02-21.05.01-31.58.01-2.99-.72-6.53,3.68-7.26,4.13-.68,7.23.41,7.36,5.55,6.08-3.7,11.84-6.91,19.33-5.07.12,2.45.38,4.71.32,6.95-.15,5.45-.61,5.85-6.34,6.23-7.46.5-10.35,3.41-10.5,11.05-.15,7.88-.03,15.77-.03,24.05Z"/>
      <path class="cls-10" d="M329.25,582.44h-11.14v-65.57h11.14v65.57Z"/>
      <path class="cls-9" d="M582.27,635.91c-3.22,10.3-6.24,19.97-9.29,29.72h-6.4c-1.99-4.67-4.07-9.55-6.45-15.14-2.17,5.14-4.12,9.75-6.35,15.02-1.8.08-3.96.18-6.44.3-3.21-10.07-6.28-19.71-9.53-29.92,2.48-.32,4.39-.57,7.02-.92,2.02,6.16,3.97,12.11,6.21,18.91,2.84-6.52,5.35-12.3,8.15-18.74,6.14,4.59,5.59,12.48,10.17,18.37,1.45-4.55,2.77-8.45,3.93-12.4,1.73-5.88,1.69-5.9,8.97-5.2Z"/>
      <path class="cls-9" d="M636.2,665.63h-6.42c-1.99-4.67-4.07-9.54-6.45-15.14-2.17,5.13-4.12,9.74-6.35,15.01-1.8.09-3.96.19-6.43.31-3.21-10.07-6.28-19.7-9.53-29.91,2.47-.33,4.38-.58,7.01-.93,2.02,6.16,3.98,12.12,6.21,18.92,2.83-6.5,5.35-12.29,8.28-19.02,5.71,5.05,5.67,12.63,10.03,18.87,1.53-5.01,2.84-9.17,4.08-13.35,1.53-5.16,1.5-5.17,8.77-4.46-3.09,9.97-6.13,19.8-9.2,29.71Z"/>
      <path class="cls-9" d="M509.57,665.56c-2.11.13-3.85.23-6.29.38-2-4.54-4.04-9.14-6.87-15.54-1.95,4.7-3.6,7.95-4.64,11.38-1.32,4.35-3.93,4.86-8.24,3.22-2.98-9.32-6.07-18.95-9.37-29.24,3-.24,4.94-.4,7.28-.59,1.9,6.03,3.73,11.81,5.96,18.88,3.05-7.01,5.58-12.81,8.11-18.61.56-.07,1.12-.15,1.67-.22,2.55,5.57,5.11,11.15,8.37,18.26,1.84-5.57,3.5-9.67,4.53-13.93,1.09-4.5,3.62-4.92,8.33-3.53-2.99,9.98-5.89,19.64-8.85,29.52Z"/>
      <path class="cls-15" d="M234.94,533.59h12.6v48.56h-12.6v-48.56Z"/>
      <path class="cls-8" d="M350.54,635.47c11.02-1.28,10.25,11.5,18.07,14.52v-14.16c2.49-.25,4.4-.44,6.91-.7v30.66c-10.22.13-10.73-10.55-17.76-15.21v14.64c-2.8.3-4.71.5-7.23.77v-30.51Z"/>
      <path class="cls-3" d="M248.92,635.2c4.65,0,8.22-.18,11.76.03,10.41.62,14.52,8.96,8.76,17.58-.55.82-1.1,1.64-1.72,2.57,1.74,3.3,3.38,6.4,5.34,10.11h-6.96c-3.88-2.41-2.91-9.6-9.75-8.74-.29,2.87-.57,5.61-.88,8.73h-6.87c.02-10-.37-19.82.31-30.27ZM264.63,648.71c-.2-6.87-.54-7.13-8.32-6.68v6.68h8.32Z"/>
      <path class="cls-4" d="M226.24,635.16c.12,2.54.2,4.26.31,6.45-2.35.48-4.5.91-7.49,1.52v22.21h-7.66v-22.01c-1.87-.34-3.27-.75-4.68-.82-2.74-.14-4.83-1.33-4.03-4.13.39-1.36,2.73-2.98,4.27-3.07,6.11-.35,12.25-.14,19.28-.14Z"/>
      <path class="cls-6" d="M425.85,636.04c-3.5,9.76-13.04,17.24-9.32,29.32h-8.19c3.02-11.67-5.27-19.53-9.38-29.26,9.56-3.27,8.74,6.74,13.4,9.49,4.6-2.59,3.73-12.76,13.47-9.55Z"/>
      <path class="cls-14" d="M443.93,152.82c-.08,5.29-4.03,9.25-8.98,9.01-5.17-.25-9.32-4.17-9.49-8.97-.17-4.93,4.83-9.82,9.7-9.5,5.08.34,8.85,4.4,8.77,9.45Z"/>
      <path class="cls-14" d="M581.6,211.17c5.1-.14,9.97,3.75,10.23,8.17.26,4.45-4.95,10.29-9.18,10.3-4.99,0-9.16-4.04-9.24-8.97-.11-6.09,2.7-9.34,8.19-9.49Z"/>
      <path class="cls-7" d="M234.99,515.11h12.5v13.01h-12.5v-13.01Z"/>
      <path class="cls-14" d="M497.86,138.59c-.06,3.54-3.05,6.4-6.38,6.27-3.02-.12-6.01-3.08-5.84-5.78.17-2.65,4.3-6.97,6.43-6.18,2.65.98,6.15,1.71,5.79,5.69Z"/>
      <path class="cls-14" d="M514.72,170.1c9.53-.68,11.01,1.15,8.51,10.81-3.11-.87-6.97-.97-9.09-2.93-1.24-1.15.31-5.29.58-7.88Z"/>
      <path class="cls-14" d="M426.43,108.13c8.78-.11,10.87,2.7,7.5,10.24h-7.33c-3.28-3.06-3.34-6.35-.17-10.24Z"/>
      <path class="cls-5" d="M293.41,553.04h-21.45"/>
      <path class="cls-1" d="M588.29,552.96h-20.43"/>
      <path class="cls-13" d="M264.63,648.71h-8.32"/>
    </g>
  </g>
</svg>