<?xml version="1.0" encoding="UTF-8"?>
<svg xmlns="http://www.w3.org/2000/svg" version="1.1" viewBox="0 0 800 800">
  <defs>
    <style>
      .cls-1 {
        fill: #9c7f79;
      }

      .cls-2 {
        fill: #5c698e;
      }

      .cls-3 {
        fill: #9fb7b7;
      }

      .cls-4 {
        fill: #5c4730;
      }

      .cls-5 {
        fill: #826749;
      }

      .cls-6 {
        fill: #8a6c58;
      }

      .cls-7 {
        fill: #a29390;
      }

      .cls-8 {
        fill: #1b4b4c;
      }

      .cls-9 {
        fill: #c69bb3;
      }

      .cls-10 {
        fill: #174142;
      }

      .cls-11 {
        fill: #6f9092;
      }

      .cls-12 {
        fill: #1d4b4b;
      }

      .cls-13 {
        fill: #9fb7b8;
      }

      .cls-14 {
        fill: #563f27;
      }

      .cls-15 {
        fill: #684f3b;
      }

      .cls-16 {
        fill: #d4d6db;
      }

      .cls-17 {
        fill: #c1a59e;
      }

      .cls-18 {
        fill: #a59592;
      }

      .cls-19 {
        fill: #c4b6b3;
      }

      .cls-20 {
        fill: #71583c;
      }

      .cls-21 {
        fill: #6e9091;
      }

      .cls-22 {
        fill: #553f27;
      }

      .cls-23 {
        fill: #5b452d;
      }

      .cls-24 {
        fill: #679092;
      }

      .cls-25 {
        fill: #113e3e;
      }

      .cls-26 {
        fill: #749193;
      }

      .cls-27 {
        fill: #0f1114;
      }

      .cls-28 {
        fill: #a1b9ba;
      }

      .cls-29 {
        fill: #695138;
      }

      .cls-30 {
        fill: #925c60;
      }

      .cls-31 {
        fill: #efeff2;
      }

      .cls-32 {
        fill: #0f1014;
      }

      .cls-33 {
        fill: #82484f;
      }

      .cls-34 {
        fill: #684f33;
      }

      .cls-35 {
        fill: #a2938f;
      }

      .cls-36 {
        fill: #d18f91;
      }

      .cls-37 {
        fill: #5b442b;
      }

      .cls-38 {
        fill: #5e4730;
      }

      .cls-39 {
        fill: #694f34;
      }

      .cls-40 {
        fill: #684f34;
      }

      .cls-41 {
        fill: #2b5759;
      }

      .cls-42 {
        fill: #5e4830;
      }

      .cls-43 {
        fill: #865257;
      }

      .cls-44 {
        fill: #c3b6b3;
      }

      .cls-45 {
        fill: #1a4b4c;
      }

      .cls-46 {
        fill: #684f3d;
      }

      .cls-47 {
        fill: #405784;
      }

      .cls-48 {
        fill: #d4d7db;
      }

      .cls-49 {
        fill: #ededf1;
      }

      .cls-50 {
        fill: #a2b6ba;
      }

      .cls-51 {
        fill: #8a545a;
      }

      .cls-52 {
        fill: #57412a;
      }

      .cls-53 {
        fill: #d3d6db;
      }

      .cls-54 {
        fill: #194a4b;
      }

      .cls-55 {
        fill: #9e817c;
      }

      .cls-56 {
        fill: #1d4c4d;
      }

      .cls-57 {
        fill: #1d4a4b;
      }

      .cls-58 {
        fill: #5c698f;
      }

      .cls-59 {
        fill: #689091;
      }

      .cls-60 {
        fill: #225253;
      }

      .cls-61 {
        fill: #756663;
      }
    </style>
  </defs>
  <!-- Generator: Adobe Illustrator 28.6.0, SVG Export Plug-In . SVG Version: 1.2.0 Build 709)  -->
  <g>
    <g id="Warstwa_1">
      <path class="cls-9" d="M372.03,0c18.53,0,37.06,0,55.59,0,.67.31,1.31.81,2.01.9,15.09,1.92,30.29,3.22,45.26,5.8,32.35,5.57,63.32,15.81,93.07,29.61,20.66,9.58,40.47,20.74,59.22,33.77,18.6,12.92,36.25,27.03,52.25,42.99,11.58,11.55,22.35,23.97,32.87,36.52,15.94,19.01,29.41,39.78,40.98,61.72,13.19,25.01,24.08,50.97,31.63,78.27,6.22,22.49,11.02,45.23,13.06,68.52.42,4.72,1.22,9.41,1.85,14.11v55.59c-.31.67-.81,1.31-.9,2.01-1.92,15.08-3.22,30.27-5.8,45.24-5.59,32.33-15.75,63.31-29.58,93.04-9.61,20.64-20.73,40.46-33.75,59.2-12.91,18.59-26.84,36.43-43,52.2-14.59,14.24-30.24,27.44-46,40.4-10.07,8.28-20.71,16.05-33.04,20.94-.4-1.51-.77-3.03-1.21-4.53-4.69-16.02-9.4-32.05-14.1-48.07-4.57-15.58-9.25-31.12-13.64-46.75-2.06-7.32-3.56-14.8-5.31-22.21,4.45-4.34,9.2-8.42,13.3-13.07,8.38-9.52,13.7-20.66,16.2-33.12.59.56,1.18,1.11,1.78,1.67,4.08,9.23,6.7,18.88,5.5,28.96-.7,5.83-3.02,11.47-4.61,17.19-1.66,1.46-3.33,2.91-4.99,4.37.42.54.84,1.08,1.26,1.62,2.57-1.63,5.14-3.25,7.7-4.88,1.48-1.09,3.03-2.09,4.43-3.27,5.42-4.56,10.79-9.18,16.17-13.77,10.03-9.28,14.22-21.66,16.62-34.39,3.15-16.76-.48-33.32-4.21-49.67-4.1-17.99-13.83-33.71-20.77-50.55,6.35-.2,12.24,1.34,17.7,4.58,1.14.98,2.18,2.12,3.43,2.92,17.59,11.25,28.92,26.88,33.45,47.36.31,1.39,1.06,2.69,1.61,4.02.45-.12.89-.23,1.34-.35-.38-2.59-.86-5.17-1.13-7.77-1.28-12.47-5.46-24.09-11.26-35.02-8.79-16.56-23.55-26.27-40.17-33.73-10.87-4.88-22.37-8.92-28.82-20.33-1.88-3.33-4.98-6-7.61-8.89-2.63-2.9-3.73-6.1-3.87-10.16-.45-12.82-1.43-25.63-2.24-38.44-.36-5.8-.79-11.6-1.19-17.41,12.1,11.73,19.82,25.74,26.35,40.5,1.33,4.37,2.66,8.74,3.99,13.11.3,2.84.59,5.69.89,8.53l-2.8,10.74c1.27-.98,2.43-2.1,2.89-3.46,5.59-16.53,7.63-33.02.12-49.69-6.6-14.64-17.19-26.43-26.71-39.03-3.9-5.17-8.42-10.6-10.04-16.62-3.44-12.77-4.7-26.1-7.67-39.02-10.54-45.91-28.46-89.07-49.68-130.96-15.27-30.15-40.04-48.92-71.83-58.45-28.29-8.48-57.3-8.61-86.03-2.7-30.15,6.2-56.15,20.58-73.44,46.63-10.22,15.4-18.31,32.41-25.85,49.36-18.38,41.33-32.58,84.05-39.33,128.99-.59,3.95-1.03,8.41-3.15,11.55-5.76,8.56-12.37,16.54-18.67,24.74-11.96,15.56-22.78,31.42-20.81,52.67.75,8.1,2.32,15.77,5.02,23.69,0-5.35,0-10.19,0-15.03.26-.64.52-1.28.78-1.92,1.25-4.1,2.49-8.19,3.74-12.29,6.37-15.42,14.49-29.73,26.43-42.66,0,2.79.09,4.52-.01,6.24-1.12,17.8-2.18,35.61-3.52,53.4-.17,2.29-1.49,4.75-2.93,6.65-4.43,5.85-9.12,11.51-13.81,17.16-1.08,1.3-2.36,2.62-3.84,3.38-7.07,3.62-14.18,7.18-21.38,10.53-15.94,7.41-30.46,16.85-38.24,33.13-5.21,10.9-8.37,22.8-12.11,34.36-.96,2.97-.67,6.35-.95,9.54,4.07-8.14,6.71-16.6,10.73-24.34,7.43-14.3,18.84-24.86,33.34-32.01,4.42-.91,8.84-1.82,13.26-2.72-1.23,3.01-2.38,6.06-3.71,9.04-7.31,16.4-15.74,32.36-18.48,50.45-2.77,18.32-5.44,36.37,2.1,54.53,5.38,12.96,13.81,22.85,24.68,31.14,4.63,3.04,8.62,7.37,15.49,8.15-2.13-2.42-3.51-3.99-4.89-5.55-4.8-14.32-3.68-28.4,1.77-42.29.93-.89,1.86-1.77,2.79-2.66,4.35,18.65,14.53,33.52,29.44,45.31-.65,2.06-1.44,4.08-1.93,6.18-2.31,10.01-4.05,20.19-6.91,30.04-5.1,17.52-11.09,34.78-16.28,52.27-3.41,11.49-6.06,23.21-9.05,34.83-6.71-4.17-13.56-8.13-20.1-12.55-19.66-13.3-37.9-28.41-54.7-45.15-9.16-9.13-17.6-18.99-26.08-28.78-17.38-20.07-32.08-42.04-44.61-65.41-16.32-30.44-29.38-62.25-36.66-96.11-3.77-17.56-6.13-35.43-9.06-53.17-.75-4.52-1.27-9.09-1.89-13.63,0-18.53,0-37.06,0-55.59.31-.67.81-1.31.9-2.01,1.92-15.09,3.21-30.29,5.8-45.26,5.6-32.34,15.76-63.33,29.6-93.07,9.62-20.65,20.75-40.47,33.77-59.22,12.92-18.6,27.03-36.25,42.99-52.25,11.55-11.58,23.97-22.35,36.52-32.87,19.01-15.94,39.78-29.4,61.71-40.98,25-13.21,50.99-24.02,78.27-31.62,22.47-6.26,45.23-11.03,68.51-13.07C362.63,1.43,367.32.63,372.03,0Z"/>
      <path class="cls-41" d="M494.46,788.57c-14.57,4.99-29.55,7.77-44.94,8.7-5.77.35-11.47,1.79-17.2,2.73h-59.36c-7.53-.95-15.12-1.59-22.58-2.92-14.51-2.59-28.94-5.56-43.41-8.38.61-6.97,1.21-13.93,1.82-20.89.17,5.65.33,11.3.5,16.94.81-.03,1.62-.06,2.43-.08v-18.58c.93-1.04,2.6-2.03,2.67-3.12.29-4.82.29-9.68,0-14.5-.07-1.09-1.74-2.08-2.67-3.12,0-2.82,0-5.65,0-8.47,30.79,7.24,61.34,15.27,90.63,27.44,5.19,2.16,10.26,2.4,15.53.47,23.65-8.69,47.31-17.35,70.97-26.02v6.58c-4.1,2.41-4.1,16.45,0,18.86.2,6.86.4,13.73.6,20.59.78,0,1.56,0,2.34-.01v-22.65c.89,8.81,1.78,17.63,2.66,26.44Z"/>
      <path class="cls-22" d="M603.01,573.08c-2.5,12.46-7.82,23.6-16.2,33.12-4.1,4.65-8.85,8.73-13.3,13.07-.8.91-1.6,1.82-2.4,2.73-1.78,1.51-3.33,3.73-5.38,4.4-14.53,4.73-29.01,10.14-44.78,6.73-3.5-1.62-6.99-3.24-10.48-4.85-1.24-.86-2.47-1.72-3.71-2.58,0,0,.1-.12.09-.12,1.41.12,2.85.11,4.24.38,7.45,1.41,14.93,4.17,22.33,3.99,7.46-.18,15.46-2.04,22.13-5.37,8.21-4.09,15.28-10.47,22.84-15.85,14.71-14.06,21.25-32.25,23.23-51.61,1.97-19.3.7-38.89-4.92-57.68-8.25-27.57-17.2-54.93-25.79-82.4-5.46-17.45-10.83-34.92-16.18-52.4-.96-3.15-1.63-6.4-2.43-9.6-1.62,23.4-4.68,46.12-15.69,67.03,3.73-27.21,10.83-54,8.73-81.81-.62-4.45-1.24-8.9-1.86-13.34-1.57-4.02-3.15-8.05-4.72-12.07-3.96-9.88-10.58-17.47-19.71-22.88-1.59-1.18-3.18-2.36-4.77-3.54-12.52-7.02-25.04-14.04-38.01-21.31,1.05,1.97,1.92,3.59,2.79,5.21.09,1.26.17,2.52.37,5.39-12-10.24-25.21-14.24-38.62-17.77-1.21-.46-2.41-.91-4.87-1.84,14.87-.06,26.68,5.26,38.27,11.9-1.38-6.81-5.36-10.53-11.71-11.85,4.06-5.15-2.18-2.32-2.91-3.76.15-.3.17-.6.04-.91-.51-.75-.92-1.6-1.55-2.23-21.23-21.21-38.48-45.19-50.76-72.65-.56-1.24-1.46-2.33-2.21-3.49-1.36-3.7-2.72-7.39-4.08-11.09.94,1.08,2.11,2.03,2.77,3.26,5.59,10.47,10.58,21.29,16.72,31.43,9.93,16.41,23.06,30.29,36.88,43.49.86.82,2.08,1.27,3.13,1.89,3.13,2.8,6.07,5.86,9.44,8.35,18.8,13.94,37.71,27.74,56.58,41.58,13.31,9.38,19.82,22.9,23.28,39.55.8-8.83,1.83-16.37,2.09-23.93.57-16.92.13-33.8-4.65-50.24-5.15-17.7-10.18-35.44-15.68-53.02-1.46-4.65-4.5-8.81-6.81-13.2-1-1.77-1.94-3.57-3.01-5.3-10.08-16.32-23.99-28.68-40.06-38.82-5.59-3.52-11.18-7.04-16.77-10.56.25-.46.5-.92.75-1.37,7.73,3.93,15.45,7.86,23.18,11.79,1.26.92,2.57,1.76,3.76,2.77,7.57,6.41,15.71,12.29,22.47,19.46,6.45,6.85,11.44,15.07,16.7,22.18-3.64-16.36-8.84-32.89-19.36-47.28-8.19-14.67-19.94-25.93-33.99-34.81-23.25-14.69-49-20.51-76.23-20.75-3.17,0-6.34,0-9.51,0-2.94.28-5.88.58-8.82.84-19.5,1.7-38.08,6.49-55.3,16.1-16.83,9.39-30.79,21.73-40.44,38.61-10.43,14.43-15.89,30.85-19.72,49.33,1.07-1.88,1.45-2.72,1.98-3.45,6.57-8.89,12.44-18.44,19.96-26.44,6.09-6.49,14.16-11.11,21.35-16.57,7.7-3.89,15.41-7.77,23.11-11.66.21.43.42.87.64,1.3-7.35,4.72-14.78,9.31-22.03,14.18-15.68,10.53-28.66,23.63-37.62,40.45-.62.68-1.53,1.25-1.82,2.05-4.87,13.32-10.45,26.46-14.27,40.08-4.27,15.26-7.52,30.87-10.1,46.52-2.82,17.12-.87,34.34,1.23,52.2,2.44-14.86,8.17-27.36,18.98-36.86,7.25-6.37,15.34-11.77,22.99-17.69,2.94-2.27,5.69-4.79,8.52-7.19,4.81-3.18,9.61-6.39,14.44-9.54,17.66-11.48,33.66-24.84,47.11-41.14,4.25-5.15,8.58-10.24,12.87-15.35.3.58.6,1.16.89,1.74-2.3,3.83-4.16,8.03-6.98,11.43-9.47,11.44-19.28,22.6-28.96,33.86-.2.35-.4.71-.6,1.06-1.11.39-2.22.78-3.33,1.17.43.87.86,1.75,1.29,2.62-6.59,1.05-9.86,5.67-12.2,11.3-.32,1.57-.64,3.14-.96,4.71-1.05.73-2.1,1.46-4.16,2.89.6-2.32.9-3.52,1.21-4.71.61-1.74,1.23-3.49,1.7-4.84-12.51,7-24.94,13.95-37.36,20.91-1.59,1.18-3.18,2.37-4.77,3.55-9.17,5.38-15.7,13.04-19.72,22.86-1.01,2.8-2.01,5.59-3.02,8.39-.58,1.56-1.39,3.08-1.68,4.69-.75,4.1-1.26,8.24-1.86,12.36-2.16,27.78,5.11,54.55,8.67,81.75-10.92-20.96-14.17-43.61-15-67.08-.64.25-.88.64-1,1.07-3.57,12.12-7.08,24.26-10.72,36.36-3.92,13.02-7.86,26.04-11.98,38.99-4.74,14.91-9.85,29.69-14.47,44.63-5.12,16.57-10.23,33.1-11.48,50.64-1.15,16.19-1.26,32.15,3.18,47.91,3.68,13.08,10.15,24.53,19.76,34.17,5.98,4.72,11.51,10.24,18.08,13.9,5.59,3.12,12.37,4.13,18.63,6.03,8.2,2.49,16.32,2.07,24.44-.54,3.38-1.09,6.92-1.71,10.39-2.54l.09.12c-1.24.87-2.48,1.74-3.72,2.61-2.54,1.29-5.09,2.59-7.63,3.88-5.21.65-10.57,2.39-15.59,1.71-9.63-1.3-19.16-3.67-28.55-6.25-3.22-.88-5.9-3.72-8.83-5.67-.81-.9-1.62-1.81-2.42-2.71-14.91-11.79-25.08-26.66-29.44-45.31-5.47-18.82-4.66-37.89-1.91-56.96,1.22-8.44,3.15-16.77,4.77-25.15,1.41-4.63,2.73-9.29,4.26-13.87,8.39-25.06,16.84-50.11,25.25-75.16,1.19-3.55,2.34-7.12,3.5-10.68-9.94,15.91-19.99,31.52-30.67,46.68-9.8,13.92-17.03,29.12-24.27,44.4-12.4,26.17-21.56,53.03-19.57,82.58.64,9.5,3.24,18.32,7.7,26.78,4.59,8.71,10.81,15.98,17.82,22.7-.69.34-1.37.69-2.06,1.03-10.87-8.29-19.3-18.18-24.68-31.14-7.54-18.15-4.87-36.21-2.1-54.53,2.74-18.09,11.17-34.06,18.48-50.45,1.33-2.97,2.48-6.02,3.71-9.04.06-.15.17-.29.16-.44,0-.13-.14-.35-.23-.36-1.51-.13-3.02-.24-5.29-.41,7.4-1.75,7.33-1.78,10.5-8.05,1.76-3.49,3.77-6.86,5.67-10.28.75-1.34,1.53-2.67,2.76-4.83-6.62,3.54-12.02,6.74-17.67,9.39-11.67,5.49-21.9,12.89-30.28,22.63-3.26,3.79-5.58,8.4-8.32,12.64.49.33.97.67,1.46,1,.82-.94,1.73-1.81,2.43-2.82,5.11-7.36,12.47-11.78,20.41-15.32,1.48-.66,3.42-.31,5.15-.43-14.5,7.15-25.91,17.71-33.34,32.01-4.02,7.74-6.66,16.2-10.73,24.34.28-3.19-.02-6.57.95-9.54,3.74-11.56,6.9-23.46,12.11-34.36,7.78-16.27,22.3-25.72,38.24-33.13,7.2-3.35,14.31-6.9,21.38-10.53,1.47-.76,2.76-2.08,3.84-3.38,4.69-5.65,9.38-11.3,13.81-17.16,1.43-1.9,2.75-4.36,2.93-6.65,1.35-17.79,2.41-35.6,3.52-53.4.11-1.72.01-3.44.01-6.24-11.94,12.93-20.05,27.24-26.43,42.66-.27-.61-.55-1.23-.82-1.84,3.58-8.13,5.96-17.12,11-24.22,9.75-13.73,20.55-26.8,31.75-39.39,10.7-12.03,11.17-11.61,11-27.88-.03-2.87,0-5.74,0-8.6-.46-.04-.91-.08-1.37-.12-.48.91-1.08,1.78-1.42,2.74-5.46,15.3-15.16,28.04-24.82,40.76-9.54,12.57-20.54,24.15-26.6,39.04-4.42,10.86-7.25,21.99-3.24,33.71v15.03c-2.71-7.92-4.27-15.59-5.02-23.69-1.98-21.25,8.84-37.11,20.81-52.67,6.3-8.19,12.9-16.18,18.67-24.74,2.12-3.14,2.55-7.6,3.15-11.55,6.75-44.94,20.95-87.66,39.33-128.99,7.54-16.96,15.63-33.96,25.85-49.36,17.29-26.04,43.29-40.43,73.44-46.63,28.73-5.91,57.74-5.78,86.03,2.7,31.79,9.53,56.56,28.3,71.83,58.45,21.22,41.89,39.13,85.05,49.68,130.96,2.97,12.92,4.23,26.25,7.67,39.02,1.62,6.02,6.13,11.45,10.04,16.62,9.52,12.6,20.11,24.39,26.71,39.03,7.52,16.67,5.48,33.16-.12,49.69-.46,1.36-1.63,2.47-2.89,3.46.93-3.58,1.87-7.16,2.8-10.74.55-4.46,1.39-8.91,1.61-13.39.87-18.39-6.84-33.74-17.46-47.98-9.82-13.17-20.05-26.05-29.38-39.56-4.56-6.6-7.46-14.34-11.48-22.3-.35,2.17-.8,3.75-.83,5.34-.12,5.02-.42,10.07.01,15.05.22,2.54,1.3,5.43,2.93,7.35,10.64,12.51,21.88,24.53,32.26,37.25,8.56,10.49,14.81,22.46,18.5,35.61-.34.32-.68.65-1.03.97-6.53-14.76-14.25-28.77-26.35-40.5.4,5.8.83,11.6,1.19,17.41.8,12.81,1.79,25.61,2.24,38.44.14,4.06,1.24,7.26,3.87,10.16,2.62,2.9,5.72,5.56,7.61,8.89,6.45,11.41,17.94,15.45,28.82,20.33,16.63,7.46,31.39,17.18,40.17,33.73,5.8,10.93,9.98,22.55,11.26,35.02.27,2.6.74,5.18,1.13,7.77-.45.12-.89.23-1.34.35-.55-1.34-1.3-2.63-1.61-4.02-4.53-20.47-15.86-36.11-33.45-47.36-1.25-.8-2.29-1.94-3.43-2.92,10.97,1.78,17.84,9.67,25.22,17.05-1.69-4.19-3.19-8.64-6.2-11.49-7.36-6.97-14.97-13.85-23.32-19.53-7.88-5.36-16.84-9.14-25.58-13.75,4.19,7.96,8.19,15.55,12.18,23.14,6.94,16.84,16.67,32.56,20.77,50.55,3.73,16.35,7.36,32.91,4.21,49.67-2.39,12.73-6.58,25.11-16.62,34.39-.95-.63-1.91-1.26-2.86-1.89,7.5-10.44,13.1-21.79,14.03-34.75,1.6-22.16-1.82-43.71-10.38-64.22-5.35-12.82-10.96-25.61-17.55-37.83-6.5-12.05-14.4-23.35-21.64-35-6.74-10.85-13.4-21.75-20.1-32.63-1.23-2.34-2.47-4.68-3.7-7.02-.76.98-.73,1.58-.55,2.13,8.38,25.21,16.78,50.42,25.17,75.63,1.23,3.69,2.5,7.36,3.62,11.09,2.54,8.5,5,17.03,7.49,25.54.68,6.48,1.44,12.96,2.04,19.45,1.48,16.01,2.17,31.98-2.82,47.62ZM554.88,328.97c-.33,3.26-.7,6.51-.98,9.77-.77,9,4.11,16.54,6.38,24.77,3.97,14.43,10.3,27.81,17.97,40.6,1.06,1.76,1.98,3.6,2.97,5.41.44-.14.87-.28,1.31-.42-1.08-16.69-2.15-33.37-3.23-50.06-.48-3.15.1-7.13-1.61-9.31-6.73-8.57-14.19-16.57-21.48-24.9-.49,1.52-.91,2.83-1.33,4.15ZM245.74,329.83c-.41-1.59-.82-3.19-1.27-4.93-6,6.68-12,13.02-17.55,19.72-2.35,2.84-3.76,6.46-5.6,9.72-1.05,18.31-2.1,36.62-3.14,54.93,1.44-.51,2.05-1.19,2.49-1.95,8.51-14.62,15.53-29.84,20.61-46.07,3.25-10.37,7.02-20.36,4.46-31.43ZM535.55,193.34c-.42.11-.84.22-1.26.33,2.4,7.69,5.04,15.31,7.16,23.07,6.75,24.71,13.36,49.45,19.9,74.21,2.22,8.4,7.63,20.57,10.95,23.73-6.39-42.25-19.66-82.37-36.75-121.34ZM229.03,314.88c.75-1.36,1.5-2.71,2.25-4.07,8.83-16.17,10.96-34.46,16.3-51.72,5.18-16.71,9.79-33.61,14.53-50.45,1.42-5.05,2.46-10.2,3.68-15.31-17.83,38.91-31.13,79.14-36.76,121.55Z"/>
      <path class="cls-5" d="M571.76,398.65c6.7,10.88,13.37,21.77,20.1,32.63,7.24,11.66,15.14,22.95,21.64,35,6.59,12.21,12.2,25,17.55,37.83,8.56,20.51,11.97,42.06,10.38,64.22-.93,12.95-6.53,24.3-14.03,34.75-2.54,2.94-4.87,6.09-7.66,8.76-2.78,2.65-6.02,4.81-10.03,7.95,6.29-13.62,6.06-25.96,1.08-38.19-1.08-2.66-3.95-4.59-6-6.85-.59-.56-1.18-1.11-1.78-1.67,4.99-15.63,4.3-31.61,2.82-47.62-.6-6.49-1.35-12.97-2.04-19.45-.84-5.86-1-11.92-2.67-17.53-4.32-14.51-9.26-28.84-14.03-43.21-2.41-7.26-4.95-14.48-7.54-21.68-2.76-7.66-5.67-15.25-8.42-22.91-.19-.54.4-1.35.63-2.04Z"/>
      <path class="cls-5" d="M610.51,396.67c-3.69-13.16-9.93-25.12-18.5-35.61-10.38-12.72-21.62-24.74-32.26-37.25-1.64-1.92-2.71-4.81-2.93-7.35-.43-4.98-.13-10.03-.01-15.05.04-1.59.48-3.17.83-5.34,4.02,7.95,6.93,15.69,11.48,22.3,9.32,13.51,19.56,26.39,29.38,39.56,10.62,14.24,18.33,29.59,17.46,47.98-.21,4.48-1.05,8.93-1.61,13.39-.3-2.84-.59-5.69-.89-8.53-.99-4.7-1.98-9.39-2.96-14.09Z"/>
      <path class="cls-5" d="M186.4,412.71c-4.01-11.72-1.18-22.85,3.24-33.71,6.06-14.89,17.06-26.48,26.6-39.04,9.66-12.72,19.35-25.46,24.82-40.76.34-.96.94-1.83,1.42-2.74.46.04.91.08,1.37.12,0,2.87-.03,5.74,0,8.6.17,16.27-.3,15.85-11,27.88-11.21,12.59-22,25.66-31.75,39.39-5.04,7.1-7.42,16.09-11,24.22-.97,4.71-1.94,9.42-2.92,14.13-.26.64-.52,1.28-.78,1.92Z"/>
      <path class="cls-5" d="M621.89,470.36c-4-7.59-7.99-15.18-12.18-23.14,8.75,4.61,17.7,8.39,25.58,13.75,8.35,5.68,15.96,12.56,23.32,19.53,3.01,2.85,4.51,7.3,6.2,11.49-7.38-7.38-14.25-15.27-25.22-17.05-5.46-3.24-11.36-4.77-17.7-4.58Z"/>
      <path class="cls-24" d="M227.09,619.28c.81.9,1.62,1.81,2.42,2.71-.5,1.3-1.15,2.56-1.46,3.9-3.44,14.53-6.54,29.15-10.3,43.6-3.92,15.08-8.53,29.97-12.73,44.98-2.86,10.21-5.53,20.46-8.28,30.69-1.28-.86-2.55-1.72-3.83-2.57,2.99-11.62,5.64-23.33,9.05-34.83,5.19-17.5,11.18-34.75,16.28-52.27,2.87-9.85,4.6-20.03,6.91-30.04.48-2.1,1.28-4.12,1.93-6.18Z"/>
      <path class="cls-5" d="M164.64,473.89c-1.73.12-3.66-.23-5.15.43-7.94,3.54-15.29,7.95-20.41,15.32-.7,1.01-1.62,1.88-2.43,2.82-.49-.33-.97-.67-1.46-1,2.75-4.24,5.06-8.85,8.32-12.64,8.38-9.74,18.62-17.14,30.28-22.63,5.65-2.66,11.05-5.85,17.67-9.39-1.24,2.16-2.02,3.49-2.76,4.83-1.91,3.42-3.91,6.79-5.67,10.28-3.17,6.27-3.11,6.3-10.5,8.05,2.27.17,3.78.28,5.29.41.09,0,.22.23.23.36,0,.14-.1.29-.16.44-4.42.91-8.84,1.82-13.26,2.72Z"/>
      <path class="cls-24" d="M571.11,622c.8-.91,1.6-1.82,2.4-2.73,1.75,7.41,3.25,14.89,5.3,22.21,4.39,15.63,9.07,31.17,13.64,46.75,4.7,16.02,9.4,32.04,14.1,48.07.44,1.5.81,3.02,1.21,4.53-1.28.92-2.56,1.84-3.85,2.76-.66-1.71-1.49-3.38-1.97-5.15-3.92-14.6-7.69-29.24-11.67-43.83-4.84-17.73-9.92-35.39-14.72-53.12-1.74-6.42-2.98-12.98-4.45-19.48Z"/>
      <path class="cls-34" d="M200.51,491.86c-1.61,8.38-3.55,16.71-4.77,25.15-2.75,19.07-3.57,38.14,1.91,56.96-.93.89-1.86,1.77-2.79,2.66,0-.6.01-1.2.02-1.81-.94-2.81-2.27-5.55-2.77-8.43-2.74-15.65-3.4-31.48-.36-47.05,1.83-9.37,5.77-18.34,8.76-27.49Z"/>
      <path class="cls-52" d="M604.78,574.75c2.05,2.26,4.92,4.19,6,6.85,4.97,12.23,5.21,24.57-1.08,38.19,4.01-3.14,7.25-5.3,10.03-7.95,2.8-2.67,5.13-5.82,7.66-8.76.95.63,1.91,1.26,2.86,1.89-5.39,4.6-10.76,9.21-16.17,13.77-1.4,1.18-2.95,2.19-4.43,3.27-1.33-.37-2.65-.74-3.97-1.11,1.59-5.72,3.91-11.36,4.61-17.19,1.2-10.08-1.42-19.73-5.5-28.96Z"/>
      <path class="cls-52" d="M194.88,574.82c0,.6-.01,1.2-.02,1.81-5.45,13.89-6.57,27.97-1.77,42.29-.94-.27-1.88-.55-2.82-.82-4.96-8.82-4.73-18.33-3.11-27.8.99-5.78,2.27-11.76,7.72-15.47Z"/>
      <path class="cls-29" d="M190.27,618.1c.94.27,1.88.55,2.82.82,1.38,1.57,2.76,3.13,4.89,5.55-6.87-.78-10.86-5.11-15.49-8.15.69-.34,1.37-.69,2.06-1.03,1.91.94,3.82,1.87,5.72,2.81Z"/>
      <path class="cls-46" d="M610.51,396.67c.99,4.7,1.98,9.39,2.96,14.09-1.33-4.37-2.66-8.74-3.99-13.11.34-.32.68-.65,1.03-.97Z"/>
      <path class="cls-6" d="M605.67,620.9c1.32.37,2.65.74,3.97,1.11-2.57,1.63-5.14,3.25-7.7,4.88-.42-.54-.84-1.08-1.26-1.62,1.66-1.46,3.33-2.91,4.99-4.37Z"/>
      <path class="cls-15" d="M187.19,410.8c.97-4.71,1.94-9.42,2.92-14.13.27.61.55,1.23.82,1.84-1.25,4.1-2.49,8.19-3.74,12.29Z"/>
      <path class="cls-28" d="M196.73,745.17c2.76-10.23,5.43-20.49,8.28-30.69,4.2-15.01,8.8-29.9,12.73-44.98,3.76-14.45,6.86-29.07,10.3-43.6.32-1.34.97-2.6,1.46-3.9,2.93,1.95,5.61,4.79,8.82,5.67,9.39,2.58,18.92,4.95,28.55,6.25,5.03.68,10.39-1.06,15.59-1.71-.16,1.66-.35,3.31-.48,4.97-.73,9.18-2.15,18.37-2.01,27.53.19,12.48,2.26,24.94,2.32,37.42.15,26.65-.47,53.3-.78,79.95-26.75-8.33-52.39-19.27-76.84-32.98-2.58-1.45-5.3-2.62-7.96-3.92Z"/>
      <path class="cls-11" d="M281.53,782.07c.31-26.65.92-53.3.78-79.95-.07-12.48-2.13-24.94-2.32-37.42-.14-9.17,1.28-18.36,2.01-27.53.13-1.66.32-3.31.48-4.97,2.54-1.29,5.09-2.59,7.63-3.88-.15.92-.2,1.87-.46,2.76-4.95,17.17-2.62,33.28,7.05,48.31.6,1.57,1.2,3.14,1.79,4.71.22,1.06.45,2.11.68,3.17,2.92,13.38,6.86,26.63,8.49,40.17,1.6,13.31.85,26.89,1.13,40.36-.61,6.97-1.21,13.93-1.82,20.9-8.48-2.21-16.96-4.42-25.45-6.62Z"/>
      <path class="cls-50" d="M571.11,622c1.47,6.5,2.71,13.06,4.45,19.48,4.8,17.74,9.88,35.4,14.72,53.12,3.98,14.58,7.75,29.23,11.67,43.83.47,1.77,1.3,3.43,1.97,5.15-15.43,7.96-30.74,16.14-46.33,23.77-6.85,3.35-14.25,5.58-21.4,8.32-3.84-11.41-8.43-22.62-11.35-34.26-5.42-21.65-4.6-43.9-3.62-65.94.58-13.04,1.21-25.92-1.44-38.78-.22-1.06.76-2.36,1.18-3.54,15.77,3.4,30.25-2,44.78-6.73,2.05-.67,3.6-2.9,5.38-4.4Z"/>
      <path class="cls-26" d="M520.95,633.14c-.42,1.19-1.4,2.49-1.18,3.54,2.64,12.87,2.02,25.74,1.44,38.78-.98,22.05-1.8,44.29,3.62,65.94,2.91,11.64,7.51,22.85,11.35,34.26-13.9,4.3-27.8,8.6-41.71,12.9-.89-8.81-1.78-17.63-2.67-26.44.28-11.11.44-22.22.89-33.33.19-4.66.61-9.37,1.59-13.92,2.89-13.33,5.16-26.88,11.41-39.24,4.62-8.27,8.62-16.76,7.6-26.58-.72-6.95-1.87-13.86-2.83-20.78,3.5,1.62,6.99,3.24,10.49,4.85Z"/>
      <path class="cls-60" d="M298.5,684.11c-.6-1.57-1.2-3.14-1.79-4.71.8-.74,1.59-1.48,2.47-2.29,14.58,8.05,36.77,9.87,42.19,2.91-1.39-.23-2.56-.39-3.71-.64-10.35-2.18-20.85-3.83-31-6.72-10.73-3.06-15.35-10.26-14.63-21.14.35-5.25,1.77-10.43,2.24-15.68.3-3.34-.25-6.75-.42-10.13,0,0-.09-.12-.09-.12.36-.29.73-.57,1.09-.86.48-1.01,1.32-2,1.37-3.03.26-5.56.32-11.12.46-16.69,5.73-1.85,12.07-2.72,17.07-5.77,9.38-5.74,15.93-14.46,20.64-24.45,4.4-.93,8.76-2.35,13.21-2.69,19.43-1.47,38.88-3.31,58.35-3.66,13.35-.24,26.76,1.49,40.1,2.8,6.78.66,13.46,2.34,20.19,3.55,2.54,4.12,4.71,8.55,7.71,12.31,7.71,9.66,16.68,17.54,30.02,17.91,0,4.34-.19,8.68.09,13,.15,2.27,1.12,4.48,1.72,6.71.37.29.73.57,1.1.86,0,0-.1.12-.1.12.02,3.97-.45,8.02.16,11.9,1.49,9.46,1.65,18.61-3.8,27.02-7.9,12.2-29.42,20.35-45.06,17.24-4.88-.97-9.85-1.49-14.78-2.21-.22.45-.44.9-.66,1.35,2.48,1.91,4.68,4.65,7.48,5.6,18.13,6.13,35.57,6.16,51.02-7.22-1.7,5.9-3.23,11.86-5.14,17.7-4.43,13.55-7.07,27.39-7.12,41.68-23.66,8.67-47.32,17.33-70.97,26.02-5.27,1.94-10.33,1.69-15.53-.47-29.29-12.17-59.85-20.2-90.63-27.44-.12-17.2-4.82-33.46-10.28-49.54-.43-1.26-1.94-2.16-2.95-3.23Z"/>
      <path class="cls-56" d="M488.86,738.76c.05-14.29,2.69-28.12,7.12-41.68,1.91-5.84,3.44-11.79,5.14-17.7,1.52-1.25,3.05-2.5,4.57-3.74-6.26,12.36-8.53,25.9-11.41,39.24-.98,4.54-1.4,9.26-1.59,13.92-.45,11.1-.61,22.22-.89,33.33,0,7.55,0,15.1,0,22.65-.78,0-1.56,0-2.34.01-.2-6.86-.4-13.73-.6-20.59,0-6.29,0-12.57,0-18.86v-6.58Z"/>
      <path class="cls-8" d="M298.5,684.11c1.01,1.07,2.52,1.96,2.95,3.23,5.46,16.08,10.15,32.34,10.28,49.54,0,2.82,0,5.65,0,8.47,0,6.91,0,13.83,0,20.74v18.58c-.81.03-1.62.06-2.43.08-.17-5.65-.33-11.29-.5-16.94-.28-13.47.46-27.05-1.13-40.36-1.63-13.53-5.56-26.79-8.49-40.17-.23-1.05-.45-2.11-.68-3.17Z"/>
      <path class="cls-60" d="M311.73,766.08c0-6.91,0-13.83,0-20.74.93,1.04,2.6,2.03,2.67,3.12.29,4.82.29,9.68,0,14.5-.07,1.09-1.74,2.08-2.67,3.12Z"/>
      <path class="cls-60" d="M488.86,745.34c0,6.29,0,12.57,0,18.86-4.1-2.41-4.1-16.45,0-18.86Z"/>
      <path class="cls-19" d="M340.12,254.37c.2-.35.4-.71.6-1.06,5.55-3.36,11.86-5.9,16.5-10.24,15.83-14.81,26.69-33.04,33.97-53.38,2.04-5.69,3.51-11.57,5.24-17.37,1.54-2.77,3.07-5.53,4.61-8.3,1.36,3.7,2.72,7.39,4.08,11.09,2.55,8.48,4.25,17.33,7.82,25.35,7.39,16.61,18.87,30.61,31.53,43.45,4.09,4.14,10.05,6.43,15.16,9.57.13.31.11.61-.04.91-1.69-.17-3.38-.35-5.07-.51-7.71-.72-15.42-1.7-23.15-1.96-1.89-.06-4.43,1.84-5.57,3.57-.7,1.06.24,4.7,1.21,5.05,1.77.63,4.1-.32,6.2-.61,2.53,0,5.06,0,7.59,0,13.41,3.53,26.62,7.54,38.62,17.77-.2-2.87-.28-4.13-.37-5.39,11.75,6.6,23.49,13.2,35.24,19.8,2.25,17.04,1.55,33.87-5.53,49.74-6.5,14.57-13.51,28.93-20.94,43.04-6.85,13.02-16.27,24.18-28.19,32.93-9.58,7.03-20.64,10.88-31.94,14.38-12.31,3.81-24.74,5.88-37.43,3.99-29.49-4.39-54.9-16.08-71.81-42.12-11.89-18.32-21.69-37.77-28.98-58.28-5.09-14.31-5.52-29.44-3.11-44.52,11.27-6.4,22.54-12.81,33.83-19.15.41-.23,1.16.14,1.75.23-.31,1.2-.61,2.39-1.21,4.71,2.06-1.43,3.11-2.16,4.16-2.89,11.04-7.02,23.07-11.54,35.82-14.26,2.21,0,4.42.02,6.63.03,2.15.84,4.38,3.47,6.52.48.92-1.29,1.48-3.65.91-4.96-.65-1.52-2.73-3.42-4.19-3.42-6.81-.01-13.62.49-20.41.99-3.37.25-6.72.89-10.08,1.35ZM398.33,393.08c-1.17.76-2.33,1.52-3.5,2.29.12.3.24.61.36.91h19.3c.03-.23.06-.46.1-.69-2.46-1.15-4.92-2.3-7.38-3.45,5.43-3.55,11.04-6.87,16.25-10.72,3.8-2.81,7.09-6.32,10.6-9.52,3.58-1.14,7.15-2.29,10.73-3.43-.17-.61-.35-1.21-.52-1.82-3.56.95-7.13,1.91-10.69,2.86-2.17.83-4.34,1.65-6.5,2.49-6.85,2.66-13.68,5.45-21.13,2.08-3.77,0-7.53,0-11.3.01-7.43,3.37-14.23.51-21.11-2.03-2.25-.83-4.66-1.23-6.99-1.83-2.51-5.26-6.98-1.61-10.34-2.98l-.37,1.46c3.58.9,7.16,1.8,10.74,2.69.85.88,1.69,1.79,2.56,2.65,7.27,7.18,14.61,14.27,24.44,18,1.59.35,3.17.69,4.76,1.04ZM390.92,346.8c.61.53,1.21,1.51,1.83,1.53,5.04.13,10.09.13,15.14,0,.63-.02,1.23-1.02,1.84-1.56,2.56-4.05,1.1-11.66-2.03-15.86-3.54-4.75-13.11-3.71-15.97,1.75-2.48,4.73-3.32,9.27-.81,14.15ZM431.33,303.19c5.05,5.47,11.13,9.03,18.71,8.69,6.3-.28,12.56-1.32,18.84-2.03-2.03,2.51-3.72,5.4-6.14,7.44-6.12,5.14-8.62,12.61-5.69,18.62,3.02,6.2,11.84,10.65,18.66,8.35,15.47-5.21,24.71-16.77,29.85-31.78.72-2.1.08-5.05-.82-7.25-3.35-8.18-6.7-9.69-17.14-8.45.55-1.05,1.1-2.11,1.59-3.04-3-.8-5.68-1.51-8.62-2.3,1.32-2.18,2.15-3.55,3.32-5.49-3.92.65-6.99,1.16-10.48,1.74.52-1.94.82-3.06.96-3.59-4.2-.83-8.19-1.32-11.99-2.44-8.76-2.58-17.18-2.18-25.36,1.96-4.39,2.99-8.77,5.98-13.51,9.21,3.01,3.99,5.41,7.17,7.81,10.35ZM368.27,303.4c2.77-3.24,5.54-6.48,9.14-10.69-5.31-3.26-9.95-6.12-14.6-8.97-1.33-.74-2.58-1.82-4-2.17-7.36-1.8-14.66-2.16-22.05.38-3.11,1.07-6.65.86-9.99,1.27-.25.03-.46.37-.8.66.31,1.03.63,2.1,1.19,3.95-3.85-.72-7-1.32-11.02-2.07,1.53,2.26,2.51,3.71,3.97,5.88-3.24.74-5.86,1.35-8.8,2.02.49,1.01,1.01,2.08,1.53,3.14-3.06-.06-6.41-.95-9.13-.02-7.89,2.7-10.78,11.55-7.51,19.97,3.37,8.69,9.73,15,16.47,20.83,3.4,2.94,7.75,5.2,12.06,6.59,6.94,2.24,15.7-2,18.75-8.18,2.98-6.05.52-13.53-5.63-18.68-2.43-2.04-4.14-4.94-6.17-7.45,6.77.69,13.54,1.94,20.31,1.92,6.53-.02,12.34-2.68,16.27-8.37Z"/>
      <path class="cls-5" d="M222.2,608.73c-9.61-9.64-16.07-21.09-19.76-34.17-4.44-15.76-4.33-31.72-3.18-47.91,1.25-17.54,6.36-34.07,11.48-50.64,4.62-14.94,9.74-29.73,14.47-44.63,4.12-12.96,8.06-25.97,11.98-38.99,3.64-12.1,7.14-24.24,10.72-36.36.13-.43.37-.82,1-1.07.83,23.47,4.07,46.12,15,67.08-3.56-27.2-10.83-53.98-8.67-81.75,2.8,7.17,6.51,14.14,8.19,21.57,2.22,9.83,3.63,19.99,3.99,30.06.49,13.37,1.18,27.05-1.02,40.12-3.08,18.32-4.19,35.92,3.71,53.2.97,2.13,2.22,4.13,3.19,6.25.94,2.05,1.68,4.2,2.5,6.3-3.85-18.03-6.15-35.75-1.79-53.87,4.06-16.85,7.26-33.87,13.79-50.12,3.75-9.32,5.42-19.48,8.03-29.25,4.63,8.56,9.27,17.11,13.9,25.67-.1,2.24-.72,4.6-.21,6.68,1.04,4.19,2.91,8.17,4.06,12.34,3.99,14.43,4.07,29.22,3.79,44.03-2.23,6.3-3.76,12.98-6.86,18.83-5.13,9.67-11.39,18.73-16.95,28.18-7.47,12.7-12.75,25.92-11.23,41.27,1.09,11,4.7,20.61,11.6,29.14,7.46,9.22,16.63,12.24,27.94,8.11,1.31-.48,2.7-.75,4.75-1.31-7.95,13.37-20.33,24.66-35.86,22.9-7.31-.83-16.47-6.54-18.78-13.5-5.62-16.93-11.5-33.8-16.31-50.97-6.64-23.68-9.35-47.83-5.3-72.38.41-2.46.67-4.95,1-7.42.31-2.39.62-4.79.93-7.19-8.13,19.57-8.89,40.12-7.05,60.56,1.15,12.8,4.84,25.44,8.11,37.97,5.63,21.55,12.31,42.75,24.99,61.48,3.35,4.95,6.63,9.93,12.58,12.16.03.27.07.53.13.8-2.76.38-5.56.6-8.29,1.16-8.6,1.75-15.16-1.52-19.58-8.63-4.2-6.76-8.14-13.76-11.4-21-15.08-33.47-19.91-68.88-19.2-105.26.04-1.99.44-3.97.67-5.95-1.32.26-1.9.67-2.01,1.17-1.81,8.54-3.9,17.04-5.23,25.66-1.47,9.55-1.68,19.3-3.41,28.79-3.59,19.7-4.85,39.36-1.52,59.21.65,3.86.74,7.82,1.08,11.73Z"/>
      <path class="cls-5" d="M545.34,340.26c2.1,27.81-5,54.6-8.73,81.81,11.01-20.91,14.07-43.64,15.69-67.03.8,3.2,1.46,6.45,2.43,9.6,5.35,17.48,10.72,34.96,16.18,52.4,8.59,27.47,17.53,54.83,25.79,82.4,5.63,18.79,6.89,38.39,4.92,57.68-1.98,19.36-8.52,37.55-23.23,51.61.5-4.51,1.34-9,1.45-13.52.35-14.03,1.09-28.11.39-42.11-.52-10.38-4.12-20.63-4.39-30.98-.35-13.31-3.43-25.95-6.22-38.74-.13-.59-.88-1.05-2.35-2.72.31,4.05.64,6.7.7,9.36.33,15.19-.32,30.29-2.73,45.35-4.15,26.01-11.17,50.96-24.38,73.98-8.87,15.45-17.18,15.54-31.37,12.51.06-.26.1-.53.13-.8,2.75-2.02,6.28-3.5,8.09-6.15,5.2-7.61,10.65-15.28,14.26-23.68,5.3-12.33,9.24-25.26,13.5-38.02,8.68-25.99,12.98-52.57,9.24-79.97-1.14-8.31-3.44-16.47-5.21-24.69-.42.09-.84.18-1.26.27.73,5.39,1.16,10.85,2.24,16.17,2.91,14.36,1.95,28.89.06,43.05-3.47,26.15-12.01,51.09-20.75,75.96-5.11,14.53-19.96,19.03-32.3,15.15-9.59-3.02-15.71-10.54-21.68-18.07-.67-.85-.99-1.98-1.8-3.65,2.34.69,3.8,1.18,5.29,1.55,7.28,1.81,14.75,3.27,21.03-2.21,15.32-13.39,20.6-30.36,17.17-50.27-2.32-13.51-9.61-24.69-16.45-36.11-4.17-6.97-8.14-14.06-12.21-21.09-1.22-4.96-3.14-9.87-3.55-14.9-1.4-17.42.99-34.52,6.01-51.21,2.29-7.61,5.26-15.01,7.73-22.57.34-1.03-.44-2.42-.7-3.64,2.13-4.14,4.27-8.27,6.4-12.41,1.63,7.15,2.32,14.68,5.07,21.37,6.72,16.31,11.12,33.19,15.13,50.29,3.79,16.18,6.04,32.22,1.76,48.62-1.09,4.19-1.74,8.49-2.6,12.74,2.66-4.53,5.06-9.07,6.97-13.82,5.86-14.58,7.8-29.54,4.34-45.08-1.39-6.24-2.82-12.59-3.04-18.94-.68-19.58-.13-39.18,4.77-58.27,1.87-7.28,5.42-14.13,8.2-21.18Z"/>
      <path class="cls-5" d="M375.76,206.28c-4.29,5.12-8.62,10.2-12.87,15.35-13.45,16.3-29.45,29.66-47.11,41.14-4.84,3.14-9.63,6.36-14.44,9.54-8.83,4.57-17.66,9.15-27.48,14.24.42-4.18.58-7.67,1.15-11.09,2.23-13.25,3.61-26.8,10.76-38.63,12.37-20.49,28.09-38.5,44.62-55.5,8.51-8.75,20.55-14.06,30.94-21.01,2.02-1.35,3.78-3.09,5.66-4.65-.25-.35-.49-.7-.74-1.06-4.15,1.25-8.25,2.74-12.46,3.7-19.7,4.48-38.39,11.46-55.75,21.89-7.35,4.41-14.8,8.67-22.21,13,8.95-16.82,21.93-29.91,37.62-40.45,7.25-4.87,14.68-9.46,22.03-14.18-.21-.43-.42-.87-.64-1.3-7.7,3.89-15.41,7.77-23.11,11.66.45-1.25.54-2.89,1.41-3.67,4.3-3.86,8.44-8.09,13.31-11.09,10.92-6.72,22.23-12.8,33.39-19.13,4.38-1.28,8.76-2.56,13.14-3.84,2.15-.36,4.33-.61,6.45-1.11,10.9-2.59,16.14-.27,21.11,9.48,2.84,5.57-.89,12.51-7.11,12.28-12.78-.47-23.95,4.11-34.71,10.13-2.83,1.58-5.27,3.87-7.88,5.83,13.5-5.12,27.05-5.52,40.89-3.71,3.79.49,5.07,2.18,5.89,5.87,1.89,8.48-.05,16.05-3.88,23.45-5.99,10.96-11.98,21.92-17.96,32.88ZM365.43,120.43c.05.35.09.7.14,1.06,7.4-1.12,14.79-2.23,22.19-3.35-.04-.3-.08-.61-.12-.91-7.4,1.07-14.81,2.14-22.21,3.2Z"/>
      <path class="cls-5" d="M488.86,148.93c-7.73-3.93-15.45-7.86-23.18-11.79-.25.46-.5.92-.75,1.37,5.59,3.52,11.19,7.03,16.77,10.56,16.07,10.14,29.98,22.5,40.06,38.82,1.07,1.73,2.01,3.53,3.01,5.3-.73-.26-1.52-.41-2.17-.8-8.6-5.14-17.15-10.35-25.76-15.47-18.16-10.82-38.62-15.3-58.58-21.14-.86-.25-1.92.19-4.24.46,1.85,1.68,2.68,2.71,3.74,3.34,4.59,2.71,9.37,5.1,13.84,7.97,5.91,3.8,12.45,7.14,17.22,12.11,10.38,10.83,20.22,22.24,29.5,34.02,9.95,12.64,20.34,25.25,23.62,41.72,1.7,8.57,3.3,17.18,4.49,25.83.58,4.19.11,8.53.12,12.8-18.87-13.85-37.78-27.64-56.58-41.58-3.36-2.49-6.3-5.55-9.43-8.35-3.11-3.3-6.35-6.49-9.3-9.93-5.48-6.41-11.13-12.72-16.09-19.53-12.44-17.07-21.14-36.23-30.12-55.23-1.84-3.9-3.29-7.81-.24-11.44,2.95-3.51,7.21-3.12,11.35-2.46,3.52.57,7.06.98,10.6,1.47.15-.52.31-1.05.46-1.57-5.71-2.62-11.38-5.38-17.17-7.82-2.77-1.17-4.35-2.08-3.43-5.78,1.82-7.31,4.78-10.2,12.22-10.25,6.66-.04,13.31,0,19.89,0-8.9-3.95-18.26-7.33-28.44-5.19-4.36.91-5.45-1.08-5.99-4.29-.66-3.98,2.36-3.98,4.86-3.66,6.17.78,12.31,1.87,18.46,2.84,4.39,1.26,8.77,2.52,13.16,3.78,4.56,2.41,9.13,4.81,13.69,7.24,11.77,6.28,23.25,13,32.68,22.64.95.97,1.17,2.67,1.73,4.02Z"/>
      <path class="cls-34" d="M488.86,148.93c-.56-1.36-.78-3.05-1.73-4.02-9.42-9.64-20.91-16.36-32.68-22.64-4.55-2.43-9.13-4.83-13.69-7.24-.22-.44-.34-1.17-.68-1.29-9.41-3.32-18.79-6.72-28.29-9.73-2.32-.73-5.08-.11-7.63-.11.02.42.05.84.07,1.26,8.5-.7,15.87,2.95,23.37,6.09-6.15-.97-12.29-2.06-18.46-2.84-2.5-.32-5.52-.32-4.86,3.66.53,3.21,1.62,5.2,5.99,4.29,10.19-2.13,19.55,1.24,28.44,5.19-6.58,0-13.24-.04-19.89,0-7.44.05-10.39,2.94-12.22,10.25-.92,3.7.66,4.61,3.43,5.78,5.79,2.44,11.45,5.19,17.17,7.82-.15.52-.31,1.05-.46,1.57-3.53-.48-7.08-.9-10.6-1.47-4.14-.67-8.4-1.06-11.35,2.46-3.05,3.63-1.6,7.53.24,11.44,8.98,19,17.68,38.16,30.12,55.23,4.96,6.81,10.61,13.12,16.09,19.53,2.94,3.44,6.19,6.63,9.3,9.93-1.05-.62-2.27-1.07-3.13-1.89-13.82-13.21-26.95-27.08-36.88-43.49-6.13-10.14-11.13-20.96-16.72-31.43-.66-1.23-1.83-2.18-2.77-3.26-1.54,2.77-3.07,5.53-4.61,8.3-.59,1-1.17,2.01-1.76,3.01-.31-.64-.63-1.29-.94-1.93,3.83-7.39,5.77-14.97,3.88-23.45-.82-3.69-2.1-5.38-5.89-5.87-13.84-1.81-27.39-1.41-40.89,3.71,2.62-1.96,5.05-4.25,7.88-5.83,10.77-6.03,21.94-10.61,34.71-10.13,6.21.23,9.95-6.7,7.11-12.28-4.96-9.74-10.21-12.07-21.11-9.48-2.12.5-4.3.75-6.45,1.11,7.56-3.03,14.93-6.75,23.43-6.73-3.04-.49-6.15-.79-8.95.01-7.04,2.01-13.98,4.39-20.87,6.87-2.38.86-4.5,2.44-6.75,3.69-11.15,6.34-22.47,12.41-33.39,19.13-4.87,3-9.01,7.23-13.31,11.09-.87.78-.96,2.43-1.41,3.67-7.19,5.45-15.26,10.08-21.35,16.57-7.52,8-13.39,17.55-19.96,26.44-.53.72-.91,1.56-1.98,3.45,3.83-18.48,9.29-34.9,19.72-49.33.67-.37,1.55-.58,1.97-1.13,4.99-6.71,10.58-12.68,18.44-16.15,9.86-4.35,19.43-9.45,29.54-13.11,12.14-4.4,24.61-7.98,37.12-11.21,8.18-2.11,15.15-4.9,17.49-13.95,3.17,0,6.34,0,9.51,0-.63,3.12-1.54,6.22-1.7,9.36-.04.84,2.23,2.62,3.38,2.57,14.78-.75,28.91,2.48,42.56,7.51,13.93,5.13,27.56,11.08,41.28,16.79,8.52,3.54,15.99,8.53,21.31,16.33.83,1.21,2.25,2.01,3.4,3.01,10.52,14.39,15.72,30.92,19.36,47.28-5.26-7.11-10.25-15.33-16.7-22.18-6.76-7.18-14.91-13.05-22.47-19.46-1.18-1-2.5-1.85-3.76-2.77Z"/>
      <path class="cls-5" d="M190.27,618.1c-1.91-.94-3.82-1.87-5.72-2.81-7.02-6.72-13.23-13.99-17.82-22.7-4.46-8.46-7.06-17.27-7.7-26.78-1.99-29.56,7.17-56.41,19.57-82.58,7.24-15.28,14.47-30.49,24.27-44.4,10.68-15.16,20.73-30.77,30.67-46.68-1.17,3.56-2.31,7.13-3.5,10.68-8.42,25.05-16.87,50.1-25.25,75.16-1.54,4.59-2.85,9.25-4.26,13.87-2.99,9.15-6.92,18.11-8.76,27.49-3.05,15.57-2.38,31.4.36,47.05.5,2.88,1.83,5.62,2.77,8.43-5.45,3.71-6.74,9.69-7.72,15.47-1.62,9.47-1.84,18.98,3.11,27.8Z"/>
      <path class="cls-34" d="M275.83,193.19c7.41-4.33,14.86-8.58,22.21-13,17.37-10.42,36.05-17.41,55.75-21.89,4.22-.96,8.31-2.45,12.46-3.7.25.35.49.7.74,1.06-1.88,1.56-3.64,3.3-5.66,4.65-10.39,6.95-22.43,12.26-30.94,21.01-16.53,17-32.25,35.01-44.62,55.5-7.15,11.84-8.53,25.38-10.76,38.63-.57,3.42-.73,6.91-1.15,11.09,9.83-5.09,18.66-9.66,27.48-14.24-2.83,2.4-5.58,4.92-8.52,7.19-7.65,5.92-15.75,11.32-22.99,17.69-10.81,9.5-16.53,22-18.98,36.86-2.1-17.86-4.05-35.09-1.23-52.2,2.58-15.64,5.84-31.26,10.1-46.52,3.81-13.63,9.39-26.76,14.27-40.08.29-.8,1.2-1.37,1.82-2.05Z"/>
      <path class="cls-34" d="M526.56,294.03c0-4.27.46-8.61-.12-12.8-1.19-8.65-2.79-17.26-4.49-25.83-3.28-16.47-13.67-29.09-23.62-41.72-9.28-11.78-19.12-23.2-29.5-34.02-4.77-4.98-11.31-8.31-17.22-12.11-4.47-2.88-9.26-5.27-13.84-7.97-1.06-.63-1.88-1.66-3.74-3.34,2.32-.28,3.38-.72,4.24-.46,19.96,5.85,40.42,10.32,58.58,21.14,8.6,5.13,17.16,10.33,25.76,15.47.65.39,1.44.54,2.17.8,2.31,4.39,5.35,8.55,6.81,13.2,5.51,17.59,10.54,35.33,15.68,53.02,4.78,16.44,5.23,33.32,4.65,50.24-.26,7.56-1.29,15.09-2.09,23.93-3.45-16.65-9.96-30.18-23.28-39.55Z"/>
      <path class="cls-1" d="M504.75,364.53c-2.13,4.14-4.27,8.27-6.4,12.41-4.38,7.24-8.76,14.49-13.15,21.73-2.56,3.4-5.12,6.8-7.68,10.2-9.81,9.53-20.09,18.4-32.99,23.6-1.25.6-2.51,1.21-3.76,1.81-3.51.61-5.07,2.62-4.7,6.23,1.13,11.12,2.09,22.26,3.37,33.36.36,3.17,1.59,6.23,2.41,9.35-.62.35-1.25.7-1.87,1.05-1.39-2.73-3.1-5.36-4.1-8.23-1.21-3.48-1.83-7.16-2.7-10.75-.02-.87-.03-1.74-.05-2.61-.57-4.7-1.14-9.4-1.71-14.09-.04-2.61-.14-5.23-.1-7.84.03-2.3-.95-2.7-2.83-1.71-2.01.22-4.01.5-6.02.66-8.93.7-17.87,2.06-26.78,1.85-8.74-.21-17.44-2.02-26.5-3.17v10.19c-.57,4.7-1.15,9.41-1.72,14.11-.02.88-.04,1.76-.06,2.63-.36,1.31-.78,2.61-1.06,3.94-1.13,5.31-1.48,10.9-5.74,15.01-.62-.35-1.24-.7-1.87-1.05.66-2.04,1.62-4.03,1.94-6.12.82-5.52,1.44-11.08,2-16.64.67-6.64,1.13-13.3,1.81-19.94.37-3.62-1.14-5.63-4.66-6.24-1.25-.6-2.5-1.21-3.75-1.81-6.8-4.11-13.82-7.91-20.32-12.45-4.59-3.2-8.47-7.41-12.66-11.17-2.56-3.4-5.13-6.8-7.69-10.2-1.88-2.82-3.76-5.65-5.64-8.47-4.63-8.56-9.27-17.11-13.9-25.67-2.86-6.52-5.71-13.05-8.55-19.54-11.57,4.56-18.42,2.98-24.29-5.32-3.49-4.94-4.31-10.58-4.21-16.44,1.01-2.8,2.01-5.59,3.02-8.39.3,1.85.6,3.7.91,5.55,1.09,4.65,1.65,9.5,3.4,13.88,1.7,4.25,5.13,7.38,10,8.33,4.99.98,8.92-2.91,7.87-7.8-.55-2.57-1.07-5.16-1.6-7.73-.56-10.08-1.12-20.16-1.68-30.24.27-1.61.54-3.23.82-4.84,1.59-1.18,3.18-2.37,4.77-3.55.03.95.06,1.9.08,2.86-2.41,15.09-1.98,30.21,3.11,44.52,7.29,20.52,17.08,39.96,28.98,58.28,16.9,26.04,42.31,37.73,71.81,42.12,12.69,1.89,25.13-.18,37.43-3.99,11.3-3.5,22.36-7.35,31.94-14.38,11.92-8.75,21.34-19.91,28.19-32.93,7.42-14.12,14.44-28.48,20.94-43.04,7.08-15.87,7.78-32.7,5.53-49.74,0-1.23-.01-2.46-.02-3.69,1.59,1.18,3.18,2.36,4.77,3.54.27,1.63.53,3.26.8,4.89-.54,10.06-1.09,20.11-1.64,30.17-.49,2.45-.94,4.91-1.49,7.35-1.25,5.53,2.94,9.78,8.28,7.83,2.91-1.06,6.46-2.99,7.7-5.51,2.49-5.06,3.59-10.81,5.27-16.27.26-1.86.53-3.72.79-5.57,1.57,4.02,3.15,8.05,4.72,12.07-.67,1.21-1.65,2.35-1.97,3.65-2.8,11.38-12.6,22.42-28.23,14.29-2.85,6.58-5.7,13.12-8.54,19.67Z"/>
      <path class="cls-34" d="M509.5,621.86c14.19,3.03,22.5,2.94,31.37-12.51,13.21-23.02,20.24-47.97,24.38-73.98,2.4-15.06,3.05-30.16,2.73-45.35-.06-2.66-.39-5.31-.7-9.36,1.47,1.67,2.22,2.13,2.35,2.72,2.79,12.79,5.87,25.44,6.22,38.74.27,10.36,3.87,20.61,4.39,30.98.7,14-.04,28.07-.39,42.11-.11,4.51-.95,9.01-1.45,13.52-7.56,5.39-14.63,11.76-22.84,15.85-6.67,3.33-14.66,5.19-22.13,5.37-7.41.18-14.88-2.58-22.33-3.99-1.39-.26-2.83-.26-4.24-.38-.37-.29-.73-.57-1.1-.86,1.25-.95,2.5-1.91,3.75-2.86Z"/>
      <path class="cls-34" d="M222.2,608.73c-.35-3.91-.44-7.87-1.08-11.73-3.33-19.85-2.07-39.51,1.52-59.21,1.73-9.49,1.94-19.24,3.41-28.79,1.33-8.62,3.42-17.12,5.23-25.66.11-.5.68-.91,2.01-1.17-.23,1.98-.63,3.97-.67,5.95-.71,36.38,4.12,71.79,19.2,105.26,3.27,7.25,7.2,14.25,11.4,21,4.42,7.11,10.98,10.38,19.58,8.63,2.73-.55,5.52-.78,8.28-1.16,1.25.96,2.5,1.91,3.75,2.86-.36.29-.72.58-1.09.86-3.47.83-7,1.45-10.39,2.54-8.12,2.61-16.24,3.03-24.44.54-6.27-1.9-13.04-2.91-18.63-6.03-6.57-3.67-12.1-9.19-18.08-13.9Z"/>
      <path class="cls-34" d="M258.79,323.22c-.11,5.87.72,11.51,4.21,16.44,5.87,8.3,12.72,9.88,24.29,5.32,2.84,6.49,5.7,13.02,8.55,19.54-2.61,9.78-4.28,19.93-8.03,29.25-6.53,16.25-9.73,33.27-13.79,50.12-4.37,18.12-2.06,35.84,1.79,53.87-.83-2.1-1.57-4.25-2.5-6.3-.97-2.13-2.22-4.13-3.19-6.25-7.9-17.28-6.79-34.88-3.71-53.2,2.2-13.07,1.51-26.75,1.02-40.12-.37-10.07-1.77-20.23-3.99-30.06-1.68-7.43-5.38-14.39-8.19-21.57.61-4.12,1.12-8.26,1.86-12.36.29-1.61,1.11-3.13,1.68-4.69Z"/>
      <path class="cls-34" d="M504.75,364.53c2.84-6.55,5.68-13.09,8.54-19.67,15.63,8.13,25.43-2.91,28.23-14.29.32-1.3,1.3-2.44,1.97-3.65.62,4.45,1.24,8.9,1.86,13.34-2.78,7.05-6.34,13.9-8.2,21.18-4.89,19.09-5.45,38.69-4.77,58.27.22,6.34,1.66,12.7,3.04,18.94,3.45,15.54,1.52,30.51-4.34,45.08-1.91,4.74-4.3,9.29-6.97,13.82.85-4.25,1.51-8.55,2.6-12.74,4.28-16.41,2.03-32.45-1.76-48.62-4.01-17.1-8.41-33.98-15.13-50.29-2.75-6.68-3.44-14.22-5.07-21.37Z"/>
      <path class="cls-5" d="M512.43,146.05c-1.15-.99-2.57-1.79-3.4-3.01-5.32-7.8-12.79-12.79-21.31-16.33-13.72-5.7-27.35-11.66-41.28-16.79-13.65-5.03-27.78-8.25-42.56-7.51-1.14.06-3.42-1.73-3.38-2.57.16-3.14,1.07-6.24,1.7-9.36,27.23.24,52.98,6.06,76.23,20.75,14.05,8.88,25.8,20.14,33.99,34.81Z"/>
      <path class="cls-5" d="M392.71,90.5c-2.34,9.05-9.31,11.84-17.49,13.95-12.51,3.23-24.98,6.81-37.12,11.21-10.1,3.66-19.68,8.76-29.54,13.11-7.86,3.47-13.45,9.44-18.44,16.15-.41.56-1.3.76-1.97,1.13,9.65-16.88,23.61-29.22,40.44-38.61,17.21-9.61,35.8-14.39,55.3-16.1,2.94-.26,5.88-.56,8.82-.84Z"/>
      <path class="cls-5" d="M245.74,329.83c2.56,11.06-1.21,21.06-4.46,31.43-5.08,16.23-12.1,31.45-20.61,46.07-.45.76-1.05,1.43-2.49,1.95,1.05-18.31,2.1-36.62,3.14-54.93,8.14-8.17,16.28-16.34,24.42-24.52Z"/>
      <path class="cls-5" d="M579.31,359.03c1.08,16.69,2.15,33.37,3.23,50.06-.44.14-.87.28-1.31.42-.99-1.8-1.91-3.64-2.97-5.41-7.67-12.79-13.99-26.17-17.97-40.6-2.26-8.22-7.14-15.77-6.38-24.77.28-3.26.65-6.51.97-9.77,3.15,3.46,6.49,6.78,9.41,10.43,5.14,6.43,10.03,13.08,15.02,19.63Z"/>
      <path class="cls-45" d="M505.69,675.64c-1.52,1.25-3.05,2.5-4.57,3.74-15.45,13.38-32.89,13.35-51.02,7.22-2.8-.95-5-3.69-7.48-5.6.22-.45.44-.9.66-1.35,4.93.72,9.9,1.24,14.78,2.21,15.64,3.1,37.15-5.04,45.06-17.24,5.45-8.41,5.29-17.56,3.8-27.02-.61-3.88-.14-7.93-.16-11.9,1.24.86,2.47,1.72,3.71,2.58.96,6.93,2.11,13.83,2.83,20.78,1.01,9.81-2.98,18.31-7.6,26.58Z"/>
      <path class="cls-5" d="M535.55,193.34c17.08,38.97,30.36,79.09,36.75,121.34-3.32-3.15-8.73-15.33-10.95-23.73-6.54-24.76-13.15-49.51-19.9-74.21-2.12-7.76-4.76-15.38-7.16-23.07.42-.11.84-.22,1.26-.33Z"/>
      <path class="cls-5" d="M229.03,314.88c5.63-42.41,18.93-82.64,36.76-121.55-1.22,5.11-2.26,10.26-3.68,15.31-4.75,16.85-9.35,33.74-14.53,50.45-5.35,17.27-7.48,35.56-16.3,51.72-.74,1.36-1.5,2.71-2.25,4.07Z"/>
      <path class="cls-45" d="M293.83,625.71c.17,3.38.72,6.79.42,10.13-.47,5.25-1.89,10.43-2.24,15.68-.72,10.88,3.91,18.08,14.63,21.14,10.15,2.89,20.65,4.54,31,6.72,1.16.24,2.33.4,3.71.64-5.42,6.96-27.61,5.13-42.19-2.91-.88.81-1.67,1.55-2.47,2.29-9.67-15.03-12-31.14-7.05-48.31.26-.89.31-1.84.46-2.76,1.24-.87,2.48-1.74,3.72-2.61Z"/>
      <path class="cls-7" d="M459.64,253.49c-5.11-3.14-11.08-5.43-15.16-9.57-12.66-12.84-24.14-26.84-31.53-43.45-3.57-8.02-5.27-16.87-7.82-25.35.74,1.16,1.65,2.25,2.21,3.49,12.28,27.46,29.53,51.45,50.76,72.65.63.63,1.04,1.48,1.55,2.23Z"/>
      <path class="cls-7" d="M394.67,175.33c.59-1,1.17-2.01,1.76-3.01-1.73,5.8-3.21,11.68-5.24,17.37-7.28,20.35-18.14,38.57-33.97,53.38-4.64,4.34-10.95,6.88-16.5,10.24,9.68-11.27,19.49-22.42,28.96-33.86,2.82-3.4,4.68-7.6,6.98-11.43,6-10.9,12.01-21.79,18.01-32.69Z"/>
      <path class="cls-39" d="M571.76,398.65c-.23.69-.82,1.51-.63,2.04,2.75,7.66,5.66,15.26,8.42,22.91,2.59,7.2,5.12,14.42,7.54,21.68,4.78,14.37,9.72,28.7,14.03,43.21,1.67,5.61,1.82,11.67,2.67,17.53-2.49-8.52-4.95-17.04-7.49-25.54-1.11-3.72-2.39-7.4-3.62-11.09-8.39-25.21-16.79-50.42-25.17-75.63-.18-.55-.21-1.15.55-2.13,1.23,2.34,2.47,4.68,3.7,7.02Z"/>
      <path class="cls-5" d="M440.81,259.94c-2.53,0-5.06,0-7.59,0-1.56-.89-3.12-1.78-5.71-3.27,1.3-1.12,2.5-3,3.53-2.92,6.82.57,13.62,1.5,20.41,2.44,3.7.52,7.37,1.29,11.05,1.96,6.35,1.32,10.33,5.04,11.71,11.85-11.59-6.65-23.4-11.96-38.27-11.9,2.46.93,3.66,1.38,4.87,1.84Z"/>
      <path class="cls-5" d="M367.36,259.94c-2.21,0-4.42-.02-6.63-.03,1.2-.44,2.39-.88,4.52-1.67-13.49-.62-24.43,4.08-35.16,9.6-1.33.68-2.81,1.09-4.21,1.62,2.34-5.63,5.62-10.25,12.2-11.3,10.03-1.4,20.08-2.63,30.07-4.28,3.34-.55,4.29.41,4.1,3.27-1.77,1.01-3.33,1.9-4.89,2.79Z"/>
      <path class="cls-34" d="M579.31,359.03c-4.99-6.55-9.88-13.2-15.02-19.63-2.92-3.65-6.26-6.96-9.41-10.43.42-1.32.85-2.63,1.33-4.15,7.29,8.33,14.75,16.33,21.48,24.9,1.71,2.18,1.14,6.16,1.61,9.31Z"/>
      <path class="cls-42" d="M367.36,259.94c1.56-.89,3.12-1.78,4.89-2.79.19-2.86-.77-3.82-4.1-3.27-9.99,1.65-20.04,2.88-30.07,4.28-.43-.87-.86-1.75-1.29-2.62,1.11-.39,2.22-.78,3.33-1.17,3.36-.46,6.7-1.1,10.08-1.35,6.8-.5,13.61-1,20.41-.99,1.46,0,3.54,1.9,4.19,3.42.57,1.32,0,3.68-.91,4.96-2.14,3-4.37.36-6.52-.48Z"/>
      <path class="cls-38" d="M462.51,258.16c-3.68-.66-7.35-1.44-11.05-1.96-6.79-.95-13.59-1.87-20.41-2.44-1.03-.09-2.23,1.79-3.53,2.92,2.59,1.48,4.15,2.37,5.71,3.27-2.1.29-4.44,1.25-6.2.61-.97-.35-1.92-3.99-1.21-5.05,1.15-1.73,3.69-3.63,5.57-3.57,7.73.26,15.43,1.24,23.15,1.96,1.69.16,3.38.34,5.07.51.73,1.44,6.97-1.39,2.91,3.76Z"/>
      <path class="cls-35" d="M262.72,320.38c-.3-1.85-.6-3.7-.91-5.55,4.01-9.83,10.54-17.49,19.72-22.86-.27,1.61-.54,3.23-.82,4.84-3.79,4.73-7.58,9.45-11.37,14.18-2.21,3.13-4.42,6.26-6.63,9.39Z"/>
      <path class="cls-35" d="M514.28,288.43c0,1.23.01,2.46.02,3.69-11.75-6.6-23.49-13.2-35.24-19.8-.87-1.62-1.74-3.24-2.79-5.21,12.97,7.27,25.49,14.29,38.01,21.31Z"/>
      <path class="cls-40" d="M245.74,329.83c-8.14,8.17-16.28,16.34-24.42,24.52,1.84-3.26,3.25-6.88,5.6-9.72,5.55-6.7,11.55-13.04,17.55-19.72.45,1.74.86,3.33,1.27,4.93Z"/>
      <path class="cls-23" d="M325.88,269.46c1.41-.53,2.88-.94,4.21-1.62,10.73-5.51,21.67-10.22,35.16-9.6-2.13.79-3.33,1.23-4.52,1.67-12.75,2.72-24.78,7.24-35.82,14.26.32-1.57.64-3.14.96-4.71Z"/>
      <path class="cls-35" d="M286.38,291.27c-.03-.95-.06-1.9-.08-2.86,12.43-6.95,24.85-13.91,37.36-20.91-.47,1.35-1.09,3.09-1.7,4.84-.59-.09-1.34-.46-1.75-.23-11.3,6.35-22.56,12.76-33.83,19.15Z"/>
      <path class="cls-35" d="M519.85,296.86c-.27-1.63-.53-3.26-.8-4.89,9.14,5.42,15.75,13.01,19.71,22.88-.26,1.86-.53,3.72-.79,5.57-2.23-3.8-4.46-7.59-6.69-11.39-2.29-3.06-4.43-6.25-6.92-9.13-1.15-1.32-2.98-2.05-4.51-3.05Z"/>
      <path class="cls-4" d="M394.67,175.33c-6,10.9-12.01,21.79-18.01,32.69-.3-.58-.59-1.16-.89-1.74,5.99-10.96,11.98-21.92,17.96-32.88.31.64.63,1.29.94,1.93Z"/>
      <path class="cls-22" d="M315.39,398.66c2.56,3.4,5.13,6.8,7.69,10.2.29,10.15,1.59,20.39.59,30.41-1.03,10.28-3.73,20.51-6.81,30.41-1.91,6.14-5.88,11.65-8.93,17.44-.86,1.29-1.72,2.59-2.58,3.88-3.66,6.55-7.71,12.92-10.9,19.68-8.75,18.53-10.41,37.01,2.77,54.36,2.91,3.84,6.99,8.58,11.17,9.31,10.21,1.81,23.4.06,28.67-13.67.37-.96.97-1.82,1.46-2.73.15.07.3.13.45.2-.62,3.36-1.24,6.73-1.86,10.09-.91,2.18-1.82,4.37-2.74,6.55-4.71,9.99-11.26,18.71-20.64,24.45-5,3.06-11.34,3.92-17.07,5.77-1.26,0-2.53-.02-3.79-.03-1.27,0-2.53,0-3.8,0-3.25-1.61-6.5-3.21-9.75-4.82-.29.27-.58.55-.86.82,2.9,4.25,5.8,8.5,8.7,12.76,1.26,1.42,2.52,2.84,3.78,4.26,0,1.02.01,2.05.02,3.07-5.95-2.24-9.23-7.21-12.58-12.16-12.67-18.73-19.35-39.93-24.99-61.48-3.27-12.52-6.97-25.17-8.11-37.97-1.83-20.44-1.08-40.99,7.05-60.56-.31,2.4-.62,4.79-.93,7.19-.33,2.48-.59,4.96-1,7.42-4.05,24.55-1.34,48.7,5.3,72.38,4.81,17.16,10.69,34.04,16.31,50.97,2.31,6.97,11.47,12.68,18.78,13.5,15.53,1.76,27.91-9.54,35.86-22.9-2.05.56-3.44.83-4.75,1.31-11.31,4.13-20.48,1.11-27.94-8.11-6.9-8.53-10.51-18.14-11.6-29.14-1.52-15.35,3.76-28.57,11.23-41.27,5.56-9.45,11.82-18.51,16.95-28.18,3.1-5.84,4.62-12.52,6.86-18.83.6-5.98,1.51-11.95,1.71-17.94.17-5.11-.45-10.26-.8-15.38-.2-2.94-.47-5.89-.88-8.81-.59-4.16-1.34-8.31-2.03-12.46Z"/>
      <path class="cls-22" d="M477.52,408.87c2.56-3.4,5.12-6.8,7.68-10.2-.35,2.31-.66,4.63-1.04,6.93-2.45,14.62-3.68,29.38-1.65,44.06.92,6.7,4.17,13.07,6.36,19.6,4.06,7.03,8.03,14.12,12.21,21.09,6.84,11.43,14.13,22.61,16.45,36.11,3.43,19.92-1.85,36.89-17.17,50.27-6.28,5.48-13.75,4.02-21.03,2.21-1.49-.37-2.95-.86-5.29-1.55.81,1.67,1.12,2.8,1.8,3.65,5.97,7.53,12.09,15.06,21.68,18.07,12.34,3.88,27.2-.62,32.3-15.15,8.74-24.86,17.27-49.81,20.75-75.96,1.88-14.16,2.85-28.68-.06-43.05-1.08-5.32-1.51-10.77-2.24-16.17.42-.09.84-.18,1.26-.27,1.77,8.23,4.08,16.38,5.21,24.69,3.74,27.39-.55,53.98-9.24,79.97-4.26,12.76-8.2,25.69-13.5,38.02-3.61,8.4-9.06,16.07-14.26,23.68-1.81,2.65-5.34,4.13-8.09,6.15,0-.98-.02-1.96-.02-2.94,2.14-2.51,4.28-5.03,6.42-7.54,1.95-3.29,3.9-6.58,5.84-9.87-.27-.2-.54-.4-.81-.59-2.54,1.36-5.09,2.72-7.63,4.08-1.91.26-3.81.53-5.72.79-1.26,0-2.52.02-3.78.03-13.34-.37-22.3-8.26-30.02-17.91-3-3.76-5.16-8.19-7.71-12.31-1-2.91-2-5.81-3-8.72-.55-2.72-1.11-5.44-1.66-8.15,7.21,15.7,14.79,16.66,28.28,16.82,2.49.03,5.51-1.41,7.42-3.13,14.46-12.99,18.2-29.17,13.82-47.77-2.86-12.16-10.36-21.99-15.82-32.85-.55-.97-1.1-1.94-1.66-2.9-3.42-6.29-7.12-12.43-10.19-18.89-4.61-9.72-6.22-20.29-6.62-30.88-.38-9.79.44-19.63.74-29.45Z"/>
      <path class="cls-54" d="M463.21,566.07c1,2.91,2,5.81,3,8.72-6.73-1.22-13.41-2.89-20.19-3.55-13.34-1.31-26.75-3.05-40.1-2.8-19.47.36-38.91,2.19-58.35,3.66-4.45.34-8.81,1.77-13.21,2.69.91-2.18,1.83-4.37,2.74-6.55,1.25-.1,2.51-.13,3.74-.3,13.95-1.95,27.84-4.38,41.84-5.8,27-2.74,53.8.01,80.51,3.94Z"/>
      <path class="cls-57" d="M503.93,605.01c1.26,0,2.52-.02,3.78-.03.63,4.38,1.26,8.76,1.89,13.13,0,.98.02,1.96.02,2.94-.03.27-.07.54-.13.8-1.25.95-2.5,1.91-3.75,2.86-.6-2.24-1.58-4.45-1.72-6.71-.28-4.32-.09-8.67-.09-13Z"/>
      <path class="cls-12" d="M290.96,621.07c0-1.02-.01-2.05-.02-3.07.64-4.34,1.29-8.67,1.93-13.01,1.26,0,2.53.02,3.79.02-.13,5.56-.2,11.13-.46,16.69-.05,1.03-.89,2.02-1.37,3.03-1.25-.95-2.5-1.91-3.75-2.86-.05-.26-.1-.53-.13-.8Z"/>
      <path class="cls-17" d="M487.61,296.78c10.43-1.24,13.79.27,17.14,8.45.9,2.19,1.54,5.15.82,7.25-5.15,15.01-14.38,26.57-29.85,31.78-6.82,2.3-15.64-2.15-18.66-8.35-2.93-6-.43-13.48,5.69-18.62,2.42-2.03,4.12-4.93,6.14-7.44,6.24-4.36,12.48-8.71,18.72-13.07Z"/>
      <path class="cls-17" d="M331.7,309.86c2.04,2.51,3.74,5.41,6.17,7.45,6.14,5.15,8.61,12.63,5.63,18.68-3.05,6.19-11.81,10.42-18.75,8.18-4.3-1.39-8.65-3.65-12.06-6.59-6.75-5.83-13.1-12.14-16.47-20.83-3.27-8.42-.38-17.26,7.51-19.97,2.72-.93,6.07-.04,9.13.02,6.28,4.35,12.56,8.7,18.84,13.06Z"/>
      <path class="cls-36" d="M393.57,392.04c-9.82-3.72-17.16-10.82-24.44-18-.87-.86-1.71-1.76-2.56-2.65,0-.39-.01-.78-.02-1.17,2.34.6,4.74,1,6.99,1.83,6.88,2.55,13.68,5.4,21.11,2.03-.11.44-.22.87-.33,1.31,3.99,0,7.99,0,11.98-.01-.12-.44-.23-.88-.35-1.31,7.44,3.37,14.28.58,21.13-2.08,2.16-.84,4.33-1.66,6.5-2.49.16.8.32,1.59.48,2.39-3.52,3.2-6.8,6.71-10.6,9.52-5.21,3.85-10.81,7.17-16.25,10.72l-.43-.16c-2.61-2.48-8.28-2.45-13.2.06ZM419.98,378.93c-13.2,4.19-26.4,3.45-40.7-.27,10.57,8.41,31.81,8.63,40.7.27Z"/>
      <path class="cls-61" d="M331.7,309.86c-6.28-4.35-12.56-8.7-18.84-13.06-.52-1.07-1.04-2.13-1.53-3.14,2.95-.68,5.56-1.28,8.8-2.02-1.47-2.17-2.44-3.61-3.97-5.88,4.01.76,7.17,1.35,11.02,2.07-.56-1.85-.88-2.92-1.19-3.95.34-.29.55-.63.8-.66,3.34-.41,6.88-.2,9.99-1.27,7.4-2.54,14.69-2.18,22.05-.38,1.43.35,2.67,1.43,4,2.17-3.24.05-6.49.11-9.73.16-3.1.24-6.21.47-9.31.71-.87.3-1.74.6-2.62.91-8.35,1.24-13.41,7.23-19.05,12.89,5.96,4.34,11.73,8.21,19.01,8.92,5.01,3.84,10.3,2.61,15.62.84,3.84-1.59,7.69-3.17,11.53-4.76-3.93,5.7-9.74,8.36-16.27,8.37-6.77.02-13.54-1.23-20.31-1.92Z"/>
      <path class="cls-61" d="M487.61,296.78c-6.24,4.36-12.48,8.71-18.72,13.07-6.28.7-12.55,1.74-18.84,2.02-7.58.34-13.67-3.22-18.71-8.69,4.17,1.65,8.33,3.31,12.49,4.96,5.31,1.79,10.6,3.01,15.62-.82,7.28-.71,13.05-4.58,19.04-8.95-5.73-5.56-10.69-11.68-19.07-12.87-.87-.3-1.74-.6-2.61-.9-3.7-.25-7.4-.49-11.1-.74-2.89-.08-5.78-.16-8.67-.25,8.19-4.14,16.61-4.54,25.36-1.96,3.8,1.12,7.79,1.61,11.99,2.44-.14.53-.44,1.64-.96,3.59,3.49-.58,6.56-1.09,10.48-1.74-1.17,1.93-2,3.3-3.32,5.49,2.94.78,5.62,1.5,8.62,2.3-.49.94-1.04,1.99-1.59,3.04Z"/>
      <path class="cls-17" d="M390.92,346.8c-2.51-4.88-1.68-9.42.81-14.15,2.86-5.46,12.44-6.5,15.97-1.75,3.13,4.2,4.59,11.81,2.03,15.86-5.26-4.12-13.65-4.1-18.81.04Z"/>
      <path class="cls-53" d="M437.04,283.63c2.89.08,5.78.16,8.67.24.22.51.45,1.03.68,1.54-4.33,1.3-4.79,5.03-5.42,8.64.95,4.7,1.91,9.39,2.86,14.09-4.16-1.65-8.33-3.31-12.5-4.96-2.4-3.18-4.8-6.36-7.81-10.35,4.74-3.23,9.13-6.22,13.51-9.21Z"/>
      <path class="cls-16" d="M368.27,303.4c-3.84,1.59-7.69,3.17-11.53,4.76.96-4.7,1.91-9.4,2.87-14.1.19-4.9-3.29-7.45-6.52-10.15,3.24-.05,6.49-.11,9.73-.16,4.64,2.85,9.29,5.71,14.6,8.97-3.6,4.21-6.37,7.45-9.14,10.69Z"/>
      <path class="cls-18" d="M407.21,392.14c2.46,1.15,4.92,2.3,7.38,3.45-.03.23-.06.46-.1.69h-19.3c-.12-.3-.24-.61-.36-.91,1.17-.76,2.33-1.52,3.5-2.29,2.81-.37,5.63-.73,8.44-1.1,0,0,.43.16.43.16Z"/>
      <path class="cls-55" d="M390.92,346.8c5.16-4.14,13.55-4.16,18.81-.04-.61.55-1.22,1.55-1.84,1.56-5.04.13-10.09.13-15.14,0-.62-.02-1.22-.99-1.83-1.53Z"/>
      <path class="cls-43" d="M434.06,371.9c-.16-.8-.32-1.59-.48-2.39,3.57-.95,7.13-1.91,10.7-2.86.17.61.35,1.21.52,1.82-3.58,1.14-7.15,2.29-10.73,3.43Z"/>
      <path class="cls-51" d="M406.78,391.98c-2.81.37-5.63.73-8.44,1.1-1.59-.35-3.17-.69-4.76-1.04,4.93-2.51,10.59-2.54,13.2-.06Z"/>
      <path class="cls-43" d="M366.55,370.23c0,.39.01.78.02,1.17-3.58-.9-7.16-1.79-10.74-2.69l.37-1.46c3.36,1.38,7.83-2.27,10.34,2.98Z"/>
      <path class="cls-30" d="M405.95,374.08c.12.44.23.88.35,1.31-3.99,0-7.99,0-11.98.01.11-.44.22-.88.33-1.31,3.77,0,7.53,0,11.3-.01Z"/>
      <path class="cls-40" d="M315.39,398.66c.68,4.15,1.44,8.29,2.03,12.46.41,2.92.68,5.86.88,8.81.35,5.12.97,10.27.8,15.38-.19,5.99-1.11,11.96-1.71,17.94.27-14.81.19-29.6-3.79-44.03-1.15-4.17-3.02-8.15-4.06-12.34-.52-2.08.1-4.45.21-6.68,1.88,2.82,3.76,5.65,5.64,8.47Z"/>
      <path class="cls-40" d="M488.86,469.26c-2.19-6.52-5.44-12.9-6.36-19.6-2.02-14.68-.79-29.44,1.65-44.06.39-2.31.7-4.62,1.04-6.93,4.38-7.24,8.76-14.49,13.15-21.73.26,1.22,1.04,2.61.7,3.64-2.47,7.56-5.44,14.96-7.73,22.57-5.02,16.69-7.41,33.79-6.01,51.21.4,5.03,2.32,9.94,3.55,14.9Z"/>
      <path class="cls-37" d="M359.83,115.03c2.24-1.25,4.36-2.84,6.75-3.69,6.89-2.48,13.83-4.86,20.87-6.87,2.8-.8,5.91-.5,8.95-.01-8.51-.02-15.88,3.7-23.43,6.73-4.38,1.28-8.76,2.56-13.14,3.84Z"/>
      <path class="cls-20" d="M365.43,120.43c7.4-1.07,14.81-2.14,22.21-3.2.04.3.08.61.12.91-7.4,1.12-14.79,2.23-22.19,3.35-.05-.35-.09-.7-.14-1.06Z"/>
      <path class="cls-37" d="M427.6,111.24c-7.5-3.14-14.87-6.79-23.37-6.09-.02-.42-.05-.84-.07-1.26,2.56,0,5.31-.62,7.63.11,9.51,3,18.89,6.41,28.29,9.73.34.12.46.85.68,1.29-4.39-1.26-8.77-2.52-13.16-3.78Z"/>
      <path class="cls-34" d="M477.52,408.87c-.29,9.82-1.11,19.66-.74,29.45.41,10.58,2.01,21.16,6.62,30.88,3.06,6.45,6.77,12.6,10.19,18.89-2.87-.38-5.74-1.04-8.62-1.1-14.45-.34-29.18,2.59-43.11-3.76-.83-3.11-2.05-6.18-2.41-9.34-1.28-11.1-2.23-22.24-3.37-33.36-.37-3.61,1.19-5.62,4.7-6.23-3.67,19.97,9.23,44.64,20.04,48.28-.05-.15-.07-.33-.17-.43-13.17-13.22-18.53-28.86-14.87-47.38.13-.65-.81-1.51-1.25-2.28,12.9-5.21,23.18-14.07,32.99-23.6Z"/>
      <path class="cls-34" d="M307.93,487.11c3.05-5.79,7.02-11.29,8.93-17.44,3.08-9.91,5.78-20.13,6.81-30.41,1-10.02-.3-20.26-.59-30.41,4.2,3.76,8.08,7.97,12.66,11.17,6.5,4.54,13.52,8.33,20.32,12.45-.34,1.22-1.15,2.53-.94,3.65,2.44,12.9-.08,24.83-6.99,35.82-2.42,3.85-5.48,7.29-8.4,11.12,15.32-8.08,23.46-35.47,20.08-48.77,3.52.61,5.03,2.61,4.66,6.24-.68,6.64-1.14,13.3-1.81,19.94-.56,5.56-1.18,11.11-2,16.64-.31,2.09-1.27,4.09-1.94,6.12-7.72,3.42-15.82,4.32-24.2,4.05-8.86-.29-17.73-.12-26.6-.16Z"/>
      <path class="cls-19" d="M433.18,465.3c.87,3.59,1.49,7.28,2.7,10.75,1,2.87,2.7,5.49,4.1,8.23-5.63,5.15-10.56,11.51-17.02,15.2-16.26,9.3-42.89,7.38-55.66-7.99-2.1-2.52-4.46-4.82-6.71-7.22,4.26-4.11,4.61-9.71,5.74-15.01.28-1.33.7-2.63,1.06-3.94,19.38,11.04,46.85,11.03,65.79-.03Z"/>
      <path class="cls-59" d="M360.6,484.27c2.24,2.4,4.61,4.69,6.71,7.22,12.77,15.36,39.4,17.29,55.66,7.99,6.46-3.7,11.39-10.06,17.02-15.2.62-.35,1.25-.7,1.87-1.06,13.93,6.35,28.66,3.42,43.11,3.76,2.88.07,5.75.72,8.62,1.1.55.97,1.1,1.94,1.66,2.9-11.28,0-22.57.28-33.84-.08-6.11-.19-12.18-1.46-18.82-2.32-4.62,3.8-9.79,8.9-15.76,12.79-16.6,10.82-34.18,14.48-52.79,5.04-7.38-3.74-14.47-8.08-21.92-11.67-3.73-1.8-7.93-3.41-11.98-3.57-11.57-.48-23.18-.18-34.78-.19.86-1.29,1.72-2.59,2.58-3.88,8.87.03,17.74-.13,26.6.16,8.38.27,16.48-.63,24.2-4.05.62.35,1.24.7,1.87,1.05Z"/>
      <path class="cls-60" d="M367.46,462.69c.57-4.7,1.15-9.41,1.72-14.11.31.3.63.6.94.9.22,1.62-.14,3.93.79,4.71,1.94,1.64,4.45,3.04,6.93,3.53,13.85,2.76,27.81,2.65,41.75.76,2.88-.39,5.81-1.41,8.37-2.78,2.19-1.18,4.8-2.93,2.5-6.24.32-.29.64-.58.97-.87.57,4.7,1.14,9.4,1.71,14.09-.9.19-1.82.33-2.7.59-5.59,1.68-11.08,3.9-16.79,4.92-4.79.86-9.87-.02-14.76.5-8.85.93-17.34.19-25.49-3.57-1.94-.9-3.96-1.63-5.94-2.44Z"/>
      <path class="cls-44" d="M431.42,448.59c-.32.29-.64.58-.97.87-4.15,1.6-8.22,4.22-12.48,4.59-10.05.89-20.21,1.13-30.31.79-4.63-.15-9.19-2.27-13.78-3.5,2.03-.63,4.09-1.87,6.08-1.78,13.91.64,27.19-2.8,40.45-6.16,2.87-.73,5.38-2.87,8.06-4.37,1.88-.99,2.86-.59,2.83,1.71-.03,2.61.06,5.23.1,7.84Z"/>
      <path class="cls-7" d="M428.48,439.05c-2.68,1.49-5.19,3.64-8.06,4.37-13.26,3.36-26.54,6.8-40.45,6.16-2-.09-4.05,1.15-6.08,1.78-1.26-.62-2.51-1.25-3.77-1.87-.31-.3-.63-.6-.94-.9,0-3.42,0-6.85,0-10.19,9.07,1.15,17.77,2.96,26.5,3.17,8.91.21,17.85-1.15,26.78-1.85,2.01-.16,4.02-.44,6.02-.66Z"/>
      <path class="cls-19" d="M531.28,309.04c2.23,3.8,4.46,7.59,6.69,11.39-1.67,5.46-2.78,11.21-5.26,16.28-1.24,2.53-4.78,4.45-7.7,5.51-5.35,1.95-9.53-2.3-8.28-7.83.55-2.44,1-4.9,1.49-7.35,5.38,1.25,8.45.25,10.44-4.91,1.58-4.09,1.8-8.7,2.62-13.09Z"/>
      <path class="cls-19" d="M262.72,320.38c2.21-3.13,4.42-6.26,6.62-9.39.63,3.47,1.22,6.94,1.9,10.4,1.05,5.3,6.27,7.94,11.14,5.67.53,2.58,1.04,5.16,1.6,7.73,1.05,4.89-2.88,8.78-7.87,7.8-4.87-.95-8.3-4.08-10-8.33-1.75-4.38-2.32-9.23-3.4-13.88Z"/>
      <path class="cls-17" d="M531.28,309.04c-.82,4.38-1.04,9-2.62,13.09-1.99,5.16-5.07,6.16-10.44,4.91.55-10.06,1.09-20.11,1.64-30.17,1.52,1,3.36,1.72,4.51,3.05,2.49,2.88,4.64,6.07,6.92,9.13Z"/>
      <path class="cls-10" d="M367.46,462.69c1.98.81,4,1.55,5.94,2.44,8.15,3.76,16.64,4.5,25.49,3.57,4.89-.52,9.96.36,14.76-.5,5.71-1.02,11.2-3.25,16.79-4.92.88-.26,1.8-.4,2.7-.59.01.87.03,1.74.04,2.61-18.93,11.06-46.41,11.07-65.79.03.02-.88.04-1.76.06-2.64Z"/>
      <path class="cls-17" d="M282.39,327.05c-4.88,2.27-10.1-.37-11.14-5.67-.68-3.46-1.27-6.93-1.9-10.4,3.79-4.73,7.58-9.45,11.37-14.18.56,10.08,1.12,20.16,1.68,30.24Z"/>
      <path class="cls-14" d="M359.82,434.28c3.38,13.3-4.76,40.69-20.08,48.77,2.92-3.82,5.98-7.27,8.4-11.12,6.92-10.99,9.43-22.93,6.99-35.82-.21-1.12.6-2.43.94-3.65,1.25.6,2.5,1.21,3.75,1.81Z"/>
      <path class="cls-14" d="M444.53,432.48c.44.76,1.37,1.63,1.25,2.28-3.67,18.52,1.69,34.17,14.87,47.38.1.1.11.29.17.43-10.81-3.65-23.71-28.31-20.04-48.28,1.25-.6,2.51-1.21,3.76-1.81Z"/>
      <path class="cls-28" d="M305.35,490.99c11.59,0,23.2-.29,34.78.19,4.05.17,8.26,1.78,11.98,3.57,7.45,3.59,14.54,7.93,21.92,11.67,18.61,9.44,36.2,5.78,52.79-5.04,5.97-3.89,11.14-9,15.76-12.79,6.65.85,12.72,2.12,18.82,2.32,11.27.36,22.56.09,33.84.08,5.46,10.86,12.96,20.68,15.82,32.85,4.38,18.6.64,34.77-13.82,47.77-1.91,1.72-4.93,3.16-7.42,3.13-13.49-.17-21.07-1.12-28.28-16.82.55,2.72,1.11,5.44,1.66,8.15-26.71-3.93-53.52-6.68-80.51-3.94-14,1.42-27.9,3.85-41.84,5.8-1.24.17-2.5.21-3.74.3.62-3.36,1.24-6.73,1.86-10.09-.15-.07-.3-.13-.45-.2-.49.91-1.1,1.77-1.46,2.73-5.26,13.74-18.45,15.48-28.67,13.67-4.18-.74-8.25-5.48-11.17-9.31-13.18-17.35-11.51-35.83-2.77-54.36,3.19-6.77,7.24-13.13,10.9-19.68Z"/>
      <path class="cls-3" d="M287.16,613.74c-2.9-4.25-5.8-8.5-8.7-12.76.29-.27.58-.55.86-.82,3.25,1.61,6.5,3.21,9.75,4.82-.64,2.92-1.27,5.84-1.91,8.76Z"/>
      <path class="cls-21" d="M287.16,613.74c.64-2.92,1.27-5.84,1.91-8.76,1.27,0,2.53,0,3.8,0-.64,4.34-1.29,8.68-1.93,13.01-1.26-1.42-2.52-2.84-3.78-4.26Z"/>
      <path class="cls-21" d="M509.61,618.12c-.63-4.38-1.26-8.76-1.89-13.13,1.91-.26,3.81-.53,5.72-.79.87,2.13,1.73,4.26,2.6,6.38-2.14,2.51-4.28,5.03-6.42,7.54Z"/>
      <path class="cls-13" d="M516.03,610.57c-.87-2.13-1.73-4.26-2.6-6.38,2.54-1.36,5.09-2.72,7.63-4.08.27.2.54.4.81.59-1.95,3.29-3.9,6.58-5.84,9.87Z"/>
      <path class="cls-33" d="M419.98,378.93c-8.88,8.35-30.13,8.13-40.7-.27,14.3,3.73,27.5,4.47,40.7.27Z"/>
      <path class="cls-16" d="M341.13,307.33c-7.28-.71-13.05-4.58-19.01-8.92,5.64-5.65,10.7-11.65,19.05-12.89-2.76,7.26-3.47,14.53-.04,21.8Z"/>
      <path class="cls-58" d="M353.09,283.91c3.23,2.71,6.71,5.25,6.52,10.15-.86-.52-1.73-1.03-1.86-1.11-1.01,3.3-1.55,7.08-3.27,10.2-2.45,4.44-7.07,4.17-9.49-.35-1.13-2.12-1.39-4.72-2.04-7.09,1.47.14,2.93.28,4.4.42-.25,1.12-1.08,2.73-.63,3.26.9,1.07,2.44,1.93,3.82,2.11.74.1,2.25-1.29,2.43-2.2.43-2.11.68-4.44.22-6.5-.35-1.56-1.93-2.84-2.96-4.25-1.23,1.15-2.45,2.31-3.68,3.46-2.11.35-4.79.16-3.58,3.72-.22-1.19-.72-2.41-.59-3.56.3-2.53.92-5.03,1.4-7.54,3.1-.24,6.21-.47,9.31-.71Z"/>
      <path class="cls-47" d="M342.96,295.71c.65,2.38.91,4.97,2.04,7.09,2.42,4.52,7.04,4.79,9.49.35,1.72-3.12,2.26-6.9,3.27-10.2.13.08.99.59,1.86,1.11-.96,4.7-1.91,9.4-2.87,14.1-5.32,1.77-10.6,3-15.62-.84-3.43-7.27-2.72-14.54.04-21.8.87-.3,1.75-.6,2.62-.91-.49,2.51-1.11,5.01-1.4,7.54-.13,1.15.37,2.37.59,3.56,0,0-.01-.01-.01-.01Z"/>
      <path class="cls-48" d="M459.41,285.52c8.38,1.19,13.35,7.3,19.07,12.87-5.99,4.37-11.76,8.24-19.04,8.95,3.46-7.28,2.74-14.55-.03-21.82Z"/>
      <path class="cls-2" d="M440.97,294.06c.63-3.62,1.09-7.34,5.42-8.64-.23-.51-.46-1.03-.68-1.54,3.7.25,7.4.49,11.1.74.32,1.63.8,3.25.9,4.89.13,2.07-.06,4.15-.11,6.23,1.24-3.58-1.5-3.35-3.59-3.74-1.06-1.16-1.96-2.61-3.26-3.34-.47-.27-2.66,1.06-2.76,1.82-.39,3.11-.5,6.32-.12,9.42.07.56,3.27,1.51,4.42.98,1.63-.77,4.15-2.49.93-4.73,1.46-.14,2.92-.28,4.39-.42-.26,1.21-.2,2.62-.84,3.58-1.61,2.41-3.16,5.69-5.47,6.5-1.43.5-4.56-2.6-6.3-4.62-1.75-2.02-2.72-4.71-4.03-7.11Z"/>
      <path class="cls-47" d="M457.6,295.73c.05-2.08.23-4.16.11-6.23-.1-1.64-.59-3.26-.9-4.89.87.3,1.74.6,2.61.9,2.77,7.27,3.49,14.54.03,21.82-5.02,3.83-10.3,2.61-15.62.82-.95-4.7-1.91-9.4-2.86-14.09,1.31,2.4,2.28,5.09,4.03,7.11,1.74,2.02,4.87,5.12,6.3,4.62,2.31-.81,3.86-4.09,5.47-6.5.64-.95.58-2.37.84-3.58,0,0-.01.01-.01.01Z"/>
      <path class="cls-25" d="M370.12,449.48c1.26.62,2.51,1.25,3.77,1.87,4.59,1.23,9.16,3.35,13.78,3.5,10.09.33,20.25.1,30.31-.79,4.26-.38,8.33-3,12.48-4.59,2.3,3.32-.31,5.07-2.5,6.24-2.56,1.37-5.49,2.39-8.37,2.78-13.94,1.89-27.91,1.99-41.75-.76-2.48-.49-4.99-1.89-6.93-3.53-.93-.78-.56-3.09-.79-4.71Z"/>
      <path class="cls-27" d="M346.55,292.01c1.23-1.15,2.45-2.31,3.68-3.46,1.03,1.41,2.61,2.69,2.96,4.25.47,2.06.22,4.38-.22,6.5-.19.92-1.69,2.3-2.43,2.2-1.38-.18-2.92-1.04-3.82-2.11-.45-.53.38-2.14.63-3.26.67-.73,1.33-1.46,1.99-2.19-.93-.64-1.87-1.29-2.8-1.93Z"/>
      <path class="cls-31" d="M346.55,292.01c.93.64,1.87,1.29,2.8,1.93-.66.73-1.32,1.46-1.99,2.19-1.47-.14-2.93-.28-4.4-.42,0,0,.01.01.01.01-1.21-3.55,1.47-3.36,3.58-3.72Z"/>
      <path class="cls-32" d="M453.23,296.14c3.22,2.24.7,3.96-.93,4.73-1.14.54-4.35-.42-4.42-.98-.38-3.1-.27-6.3.12-9.42.09-.76,2.29-2.09,2.76-1.82,1.3.73,2.2,2.18,3.26,3.34-.92.65-1.84,1.3-2.76,1.95.66.73,1.31,1.46,1.97,2.19Z"/>
      <path class="cls-49" d="M453.23,296.14c-.66-.73-1.31-1.46-1.97-2.19.92-.65,1.84-1.3,2.76-1.95,2.09.39,4.82.16,3.59,3.74,0,0,.01-.01.01-.01-1.46.14-2.92.28-4.39.42Z"/>
      <path class="cls-61" d="M313.86,297.37c4.52,5.6,10.12,11.28,17.61,12.29,1.29.17,2.75-.31,3.08-1.75.27-1.17-.36-2.89-1.75-3.08-3.13-.42-5.91-1.76-8.24-3.54-2.74-2.1-5.01-4.79-7.16-7.46-.85-1.05-2.65-.88-3.54,0-1.04,1.04-.85,2.48,0,3.54h0Z"/>
      <path class="cls-61" d="M470.77,309.36c6.78-2.64,12.55-7.08,16.83-12.97.77-1.06.22-2.83-.9-3.42-1.3-.69-2.6-.24-3.42.9-.12.17-.24.33-.36.49-.27.36.35-.44-.13.17-.23.29-.46.57-.7.85-.5.59-1.02,1.17-1.57,1.73-.57.59-1.16,1.15-1.77,1.7-.27.24-.55.49-.84.72-.16.13-.31.26-.47.39-.04.03-.52.41-.33.26-.94.72-2.48,1.74-3.73,2.45-.68.38-1.36.74-2.06,1.08-.37.18-.74.35-1.12.51-.13.06-.33.14-.08.03-.23.09-.46.18-.68.27-1.21.47-2.19,1.7-1.75,3.08.38,1.18,1.77,2.25,3.08,1.75h0Z"/>
    </g>
  </g>
</svg>